{
.appVersion = "3165";
.formatVersion = 3;
axes = (
{
name = Weight;
tag = wght;
},
{
name = Width;
tag = wdth;
}
);
classes = (
{
automatic = 1;
code = "A Aacute Abreve Acaron Acircumflex Adieresis Agrave Amacron Aogonek Aring Aringacute Atilde AE AEacute B C Cacute Ccaron Ccedilla Cdotaccent D Eth Dcaron Dcroat Ddotbelow E Eacute Ecaron Ecircumflex Edieresis Edotaccent Egrave Emacron Eogonek Etilde Schwa F G Gbreve Gcaron Gcommaaccent Gdotaccent H Hbar Hdotbelow I IJ Iacute Icircumflex Idieresis Idotaccent Idotbelow Igrave Imacron Iogonek Itilde J Jacute K Kcommaaccent L Lacute Lcaron Lcommaaccent Ldot Lslash M N Nacute Ncaron Ncommaaccent Nhookleft Ntilde Eng O Oacute Ocircumflex Odieresis Odotbelow Ograve Ohungarumlaut Omacron Oslash Oslashacute Otilde OE P Thorn Q R Racute Rcaron Rcommaaccent S Sacute Saltillo Scaron Scedilla Scommaaccent Sdotbelow Germandbls T Tbar Tcaron Tcedilla Tcommaaccent Tdotbelow U Uacute Ubreve Ucircumflex Udieresis Udotbelow Ugrave Uhungarumlaut Umacron Uogonek Uring Utilde V W Wacute Wcircumflex Wdieresis Wgrave X Y Yacute Ycircumflex Ydieresis Ygrave Ymacron Ytilde Z Zacute Zcaron Zdotaccent Zdotbelow A-cy Be-cy Ve-cy Ge-cy Geupturn-cy De-cy Ie-cy Io-cy Zhe-cy Ze-cy Ii-cy Iishort-cy Ka-cy El-cy Em-cy En-cy O-cy Pe-cy Er-cy Es-cy Te-cy U-cy Ushort-cy Ef-cy Ha-cy Che-cy Tse-cy Sha-cy Shcha-cy Softsign-cy Yeru-cy Hardsign-cy E-cy Ereversed-cy I-cy Yi-cy Yu-cy Ya-cy";
name = Uppercase;
}
);
customParameters = (
{
name = "Enforce Compatibility Check";
value = 1;
},
{
name = "Family Alignment Zones";
value = (
{
pos = 848;
size = 16;
},
{
pos = 800;
size = 16;
},
{
pos = 600;
size = 16;
},
{
pos = 0;
size = -16;
},
{
pos = -200;
size = -16;
}
);
},
{
name = panose;
value = (
2,
11,
0,
9,
2,
0,
0,
0,
0,
4
);
},
{
name = "Use Typo Metrics";
value = 1;
},
{
name = "Variable Font Origin";
value = m01;
},
{
name = fsType;
value = (
);
},
{
name = isFixedPitch;
value = 1;
}
);
date = "2020-11-28 12:14:13 +0000";
familyName = "Martian Mono";

glyphs = (
{
glyphname = A;
kernLeft = A_LEFT;
kernRight = A_RIGHT;
lastChange = "2022-11-19 10:43:12 +0000";
layers = (
{
anchors = (
{
name = bottom;
pos = (375,0);
},
{
name = connect;
pos = (375,0);
},
{
name = ogonek;
pos = (694,10);
},
{
name = top;
pos = (375,800);
},
{
name = topacute;
pos = (375,800);
},
{
name = topgrave;
pos = (375,800);
}
);
layerId = m01;
shapes = (
{
closed = 1;
nodes = (
(169,0,l),
(367,712,l),
(377,712,l),
(574,0,l),
(694,0,l),
(468,800,l),
(282,800,l),
(56,0,l)
);
},
{
closed = 1;
nodes = (
(565,271,l),
(565,379,l),
(185,379,l),
(185,271,l)
);
}
);
width = 750;
},
{
anchors = (
{
name = bottom;
pos = (375,0);
},
{
name = connect;
pos = (375,0);
},
{
name = ogonek;
pos = (727,10);
},
{
name = top;
pos = (375,800);
},
{
name = topacute;
pos = (375,800);
},
{
name = topgrave;
pos = (375,800);
}
);
layerId = m002;
shapes = (
{
closed = 1;
nodes = (
(198,0,l),
(359,680,l),
(379,680,l),
(540,0,l),
(727,0,l),
(535,800,l),
(215,800,l),
(23,0,l)
);
},
{
closed = 1;
nodes = (
(575,220,l),
(575,400,l),
(175,400,l),
(175,220,l)
);
}
);
width = 750;
},
{
anchors = (
{
name = bottom;
pos = (300,0);
},
{
name = connect;
pos = (300,0);
},
{
name = ogonek;
pos = (555,10);
},
{
name = top;
pos = (300,800);
},
{
name = topacute;
pos = (300,800);
},
{
name = topgrave;
pos = (300,800);
}
);
layerId = m005;
shapes = (
{
closed = 1;
nodes = (
(154,0,l),
(292,720,l),
(302,720,l),
(439,0,l),
(555,0,l),
(392,800,l),
(208,800,l),
(45,0,l)
);
},
{
closed = 1;
nodes = (
(440,272,l),
(440,378,l),
(160,378,l),
(160,272,l)
);
}
);
width = 600;
},
{
anchors = (
{
name = bottom;
pos = (300,0);
},
{
name = connect;
pos = (300,0);
},
{
name = ogonek;
pos = (582,10);
},
{
name = top;
pos = (300,800);
},
{
name = topacute;
pos = (300,800);
},
{
name = topgrave;
pos = (300,800);
}
);
layerId = m006;
shapes = (
{
closed = 1;
nodes = (
(193,0,l),
(286,630,l),
(306,630,l),
(393,0,l),
(582,0,l),
(452,800,l),
(148,800,l),
(18,0,l)
);
},
{
closed = 1;
nodes = (
(479,222,l),
(479,398,l),
(119,398,l),
(119,222,l)
);
}
);
width = 600;
},
{
anchors = (
{
name = bottom;
pos = (375,0);
},
{
name = connect;
pos = (375,0);
},
{
name = ogonek;
pos = (660,10);
},
{
name = top;
pos = (375,800);
},
{
name = topacute;
pos = (375,800);
},
{
name = topgrave;
pos = (375,800);
}
);
layerId = m007;
shapes = (
{
closed = 1;
nodes = (
(133,0,l),
(370,760,l),
(376,760,l),
(614,0,l),
(660,0,l),
(409,800,l),
(341,800,l),
(90,0,l)
);
},
{
closed = 1;
nodes = (
(537,326,l),
(537,364,l),
(217,364,l),
(217,326,l)
);
}
);
width = 750;
},
{
anchors = (
{
name = bottom;
pos = (300,0);
},
{
name = connect;
pos = (300,0);
},
{
name = ogonek;
pos = (524,10);
},
{
name = top;
pos = (300,800);
},
{
name = topacute;
pos = (300,800);
},
{
name = topgrave;
pos = (300,800);
}
);
layerId = m009;
shapes = (
{
closed = 1;
nodes = (
(118,0,l),
(295,764,l),
(301,764,l),
(479,0,l),
(524,0,l),
(336,800,l),
(264,800,l),
(76,0,l)
);
},
{
closed = 1;
nodes = (
(422,326,l),
(422,364,l),
(182,364,l),
(182,326,l)
);
}
);
width = 600;
}
);
unicode = 65;
},
{
glyphname = AE;
lastChange = "2022-10-01 15:35:02 +0000";
layers = (
{
anchors = (
{
name = bottom;
pos = (300,0);
},
{
name = top;
pos = (370,800);
}
);
background = {
shapes = (
{
ref = OE;
}
);
};
layerId = m009;
shapes = (
{
closed = 1;
nodes = (
(560,0,l),
(560,38,l),
(372,38,l),
(372,385,l),
(530,385,l),
(530,421,l),
(372,421,l),
(372,762,l),
(570,762,l),
(570,800,l),
(275,800,l),
(10,0,l),
(53,0,l),
(304,762,l),
(330,762,l),
(330,362,l),
(139,362,l),
(139,326,l),
(330,326,l),
(330,0,l)
);
}
);
width = 600;
},
{
anchors = (
{
name = bottom;
pos = (300,0);
},
{
name = top;
pos = (360,800);
}
);
background = {
shapes = (
{
ref = OE;
}
);
};
layerId = m005;
shapes = (
{
closed = 1;
nodes = (
(570,0,l),
(570,106,l),
(414,106,l),
(414,353,l),
(540,353,l),
(540,453,l),
(414,453,l),
(414,694,l),
(580,694,l),
(580,800,l),
(200,800,l),
(10,0,l),
(120,0,l),
(280,694,l),
(304,694,l),
(304,372,l),
(137,372,l),
(137,272,l),
(304,272,l),
(304,0,l)
);
}
);
width = 600;
},
{
anchors = (
{
name = bottom;
pos = (300,0);
},
{
name = top;
pos = (330,800);
}
);
background = {
shapes = (
{
ref = OE;
}
);
};
layerId = m006;
shapes = (
{
closed = 1;
nodes = (
(570,0,l),
(570,160,l),
(448,160,l),
(448,322,l),
(540,322,l),
(540,478,l),
(448,478,l),
(448,640,l),
(580,640,l),
(580,800,l),
(105,800,l),
(10,0,l),
(184,0,l),
(250,630,l),
(270,630,l),
(270,379,l),
(160,379,l),
(160,223,l),
(270,223,l),
(270,0,l)
);
}
);
width = 600;
},
{
anchors = (
{
name = bottom;
pos = (375,0);
},
{
name = top;
pos = (450,800);
}
);
background = {
shapes = (
{
ref = M;
}
);
};
layerId = m007;
shapes = (
{
closed = 1;
nodes = (
(700,0,l),
(700,38,l),
(452,38,l),
(452,385,l),
(670,385,l),
(670,421,l),
(452,421,l),
(452,762,l),
(710,762,l),
(710,800,l),
(335,800,l),
(15,0,l),
(59,0,l),
(362,762,l),
(410,762,l),
(410,362,l),
(171,362,l),
(171,326,l),
(410,326,l),
(410,0,l)
);
}
);
width = 750;
},
{
anchors = (
{
name = bottom;
pos = (375,0);
},
{
name = top;
pos = (460,800);
}
);
background = {
shapes = (
{
ref = M;
}
);
};
layerId = m01;
shapes = (
{
closed = 1;
nodes = (
(700,0,l),
(700,108,l),
(494,108,l),
(494,353,l),
(670,353,l),
(670,453,l),
(494,453,l),
(494,692,l),
(710,692,l),
(710,800,l),
(267,800,l),
(15,0,l),
(131,0,l),
(344,692,l),
(380,692,l),
(380,371,l),
(195,371,l),
(195,271,l),
(380,271,l),
(380,0,l)
);
}
);
width = 750;
},
{
anchors = (
{
name = bottom;
pos = (375,0);
},
{
name = top;
pos = (430,800);
}
);
background = {
shapes = (
{
ref = OE;
}
);
};
layerId = m002;
shapes = (
{
closed = 1;
nodes = (
(710,0,l),
(710,160,l),
(538,160,l),
(538,318,l),
(680,318,l),
(680,474,l),
(538,474,l),
(538,640,l),
(720,640,l),
(720,800,l),
(193,800,l),
(10,0,l),
(185,0,l),
(326,640,l),
(350,640,l),
(350,376,l),
(202,376,l),
(202,220,l),
(350,220,l),
(350,0,l)
);
}
);
width = 750;
}
);
unicode = 198;
},
{
glyphname = B;
lastChange = "2022-03-26 20:15:50 +0000";
layers = (
{
background = {
shapes = (
{
pos = (30,0);
ref = "En-cy";
}
);
};
layerId = m01;
shapes = (
{
closed = 1;
nodes = (
(396,0,ls),
(572,0,o),
(680,84,o),
(680,222,cs),
(680,313,o),
(632,381,o),
(550,406,c),
(550,422,l),
(623,445,o),
(666,505,o),
(666,582,cs),
(666,717,o),
(563,800,o),
(396,800,cs),
(130,800,l),
(130,0,l)
);
},
{
closed = 1;
nodes = (
(244,354,l),
(396,354,ls),
(506,354,o),
(566,309,o),
(566,230,cs),
(566,151,o),
(506,106,o),
(396,106,cs),
(244,106,l)
);
},
{
closed = 1;
nodes = (
(244,694,l),
(396,694,ls),
(500,694,o),
(556,651,o),
(556,574,cs),
(556,497,o),
(500,454,o),
(396,454,cs),
(244,454,l)
);
}
);
width = 750;
},
{
background = {
shapes = (
{
pos = (20,0);
ref = "En-cy";
}
);
};
layerId = m002;
shapes = (
{
closed = 1;
nodes = (
(420,0,ls),
(599,0,o),
(700,84,o),
(700,232,cs),
(700,322,o),
(657,388,o),
(580,416,c),
(580,432,l),
(647,460,o),
(684,514,o),
(684,582,cs),
(684,722,o),
(588,800,o),
(416,800,cs),
(90,800,l),
(90,0,l)
);
},
{
closed = 1;
nodes = (
(278,324,l),
(418,324,ls),
(480,324,o),
(516,296,o),
(516,248,cs),
(516,203,o),
(480,176,o),
(418,176,cs),
(278,176,l)
);
},
{
closed = 1;
nodes = (
(278,624,l),
(414,624,ls),
(476,624,o),
(512,597,o),
(512,552,cs),
(512,509,o),
(476,484,o),
(414,484,cs),
(278,484,l)
);
}
);
width = 750;
},
{
background = {
shapes = (
{
pos = (25,0);
ref = "En-cy";
}
);
};
layerId = m005;
shapes = (
{
closed = 1;
nodes = (
(287,0,ls),
(447,0,o),
(545,82,o),
(545,217,cs),
(545,305,o),
(496,376,o),
(415,404,c),
(415,420,l),
(487,444,o),
(531,506,o),
(531,584,cs),
(531,718,o),
(438,800,o),
(287,800,cs),
(105,800,l),
(105,0,l)
);
},
{
closed = 1;
nodes = (
(219,354,l),
(287,354,ls),
(380,354,o),
(431,309,o),
(431,230,cs),
(431,151,o),
(380,106,o),
(287,106,cs),
(219,106,l)
);
},
{
closed = 1;
nodes = (
(219,694,l),
(287,694,ls),
(375,694,o),
(423,651,o),
(423,574,cs),
(423,497,o),
(375,454,o),
(287,454,cs),
(219,454,l)
);
}
);
width = 600;
},
{
background = {
shapes = (
{
pos = (20,0);
ref = "En-cy";
}
);
};
layerId = m006;
shapes = (
{
closed = 1;
nodes = (
(316,0,ls),
(480,0,o),
(580,87,o),
(580,230,cs),
(580,321,o),
(534,392,o),
(458,416,c),
(458,432,l),
(524,458,o),
(564,515,o),
(564,582,cs),
(564,717,o),
(468,800,o),
(312,800,cs),
(60,800,l),
(60,0,l)
);
},
{
closed = 1;
nodes = (
(248,324,l),
(312,324,ls),
(362,324,o),
(392,296,o),
(392,248,cs),
(392,200,o),
(362,172,o),
(312,172,cs),
(248,172,l)
);
},
{
closed = 1;
nodes = (
(248,628,l),
(308,628,ls),
(358,628,o),
(388,601,o),
(388,556,cs),
(388,511,o),
(358,484,o),
(308,484,cs),
(248,484,l)
);
}
);
width = 600;
},
{
background = {
shapes = (
{
pos = (40,0);
ref = "En-cy";
}
);
};
layerId = m007;
shapes = (
{
closed = 1;
nodes = (
(386,0,ls),
(561,0,o),
(660,76,o),
(660,212,cs),
(660,315,o),
(604,384,o),
(504,404,c),
(504,414,l),
(597,431,o),
(650,496,o),
(650,592,cs),
(650,724,o),
(554,800,o),
(386,800,cs),
(170,800,l),
(170,0,l)
);
},
{
closed = 1;
nodes = (
(212,388,l),
(386,388,ls),
(534,388,o),
(618,325,o),
(618,212,cs),
(618,101,o),
(534,38,o),
(386,38,cs),
(212,38,l)
);
},
{
closed = 1;
nodes = (
(212,762,l),
(386,762,ls),
(529,762,o),
(609,701,o),
(609,592,cs),
(609,485,o),
(529,424,o),
(386,424,cs),
(212,424,l)
);
}
);
width = 750;
},
{
background = {
shapes = (
{
pos = (30,0);
ref = "En-cy";
}
);
};
layerId = m009;
shapes = (
{
closed = 1;
nodes = (
(256,0,ls),
(419,0,o),
(510,76,o),
(510,211,cs),
(510,310,o),
(459,380,o),
(368,405,c),
(368,415,l),
(454,435,o),
(502,499,o),
(502,591,cs),
(502,725,o),
(413,800,o),
(256,800,cs),
(150,800,l),
(150,0,l)
);
},
{
closed = 1;
nodes = (
(192,388,l),
(256,388,ls),
(392,388,o),
(468,324,o),
(468,211,cs),
(468,100,o),
(392,38,o),
(256,38,cs),
(192,38,l)
);
},
{
closed = 1;
nodes = (
(192,762,l),
(256,762,ls),
(389,762,o),
(461,702,o),
(461,591,cs),
(461,484,o),
(387,424,o),
(256,424,cs),
(192,424,l)
);
}
);
width = 600;
}
);
unicode = 66;
},
{
glyphname = C;
kernLeft = RND_LEFT;
lastChange = "2022-05-22 14:59:39 +0000";
layers = (
{
anchors = (
{
name = bottom;
pos = (404,0);
},
{
name = connect;
pos = (180,400);
},
{
name = top;
pos = (404,800);
}
);
background = {
shapes = (
{
pos = (20,0);
ref = O;
}
);
};
layerId = m01;
shapes = (
{
closed = 1;
nodes = (
(559,-16,o),
(662,89,o),
(674,266,c),
(568,266,l),
(550,157,o),
(489,92,o),
(395,92,cs),
(260,92,o),
(198,191,o),
(198,400,cs),
(198,609,o),
(263,708,o),
(405,708,cs),
(503,708,o),
(568,638,o),
(588,520,c),
(694,520,l),
(682,706,o),
(575,816,o),
(405,816,cs),
(192,816,o),
(84,676,o),
(84,400,cs),
(84,124,o),
(189,-16,o),
(395,-16,cs)
);
}
);
width = 750;
},
{
anchors = (
{
name = bottom;
pos = (396,0);
},
{
name = connect;
pos = (232,400);
},
{
name = top;
pos = (396,800);
}
);
background = {
shapes = (
{
pos = (25,0);
ref = O;
}
);
};
layerId = m002;
shapes = (
{
closed = 1;
nodes = (
(571,-20,o),
(690,96,o),
(702,286,c),
(528,286,l),
(507,198,o),
(461,152,o),
(388,152,cs),
(293,152,o),
(244,236,o),
(244,400,cs),
(244,564,o),
(296,648,o),
(398,648,cs),
(476,648,o),
(524,599,o),
(544,504,c),
(718,504,l),
(706,700,o),
(585,820,o),
(398,820,cs),
(179,820,o),
(56,669,o),
(56,400,cs),
(56,131,o),
(176,-20,o),
(388,-20,cs)
);
}
);
width = 750;
},
{
anchors = (
{
name = bottom;
pos = (320,0);
},
{
name = connect;
pos = (182,400);
},
{
name = top;
pos = (320,800);
}
);
background = {
shapes = (
{
pos = (21,0);
ref = O;
}
);
};
layerId = m005;
shapes = (
{
closed = 1;
nodes = (
(447,-16,o),
(522,77,o),
(532,256,c),
(430,256,l),
(412,140,o),
(378,90,o),
(311,90,cs),
(226,90,o),
(190,183,o),
(190,400,cs),
(190,617,o),
(229,710,o),
(319,710,cs),
(390,710,o),
(426,656,o),
(444,530,c),
(546,530,l),
(536,719,o),
(459,816,o),
(319,816,cs),
(154,816,o),
(76,683,o),
(76,400,cs),
(76,117,o),
(151,-16,o),
(311,-16,cs)
);
}
);
width = 600;
},
{
anchors = (
{
name = bottom;
pos = (320,0);
},
{
name = connect;
pos = (224,400);
},
{
name = top;
pos = (320,800);
}
);
background = {
shapes = (
{
pos = (18,0);
ref = O;
}
);
};
layerId = m006;
shapes = (
{
closed = 1;
nodes = (
(464,-20,o),
(553,81,o),
(566,276,c),
(400,276,l),
(381,187,o),
(355,148,o),
(312,148,cs),
(252,148,o),
(226,224,o),
(226,400,cs),
(226,576,o),
(254,652,o),
(318,652,cs),
(364,652,o),
(392,610,o),
(410,514,c),
(576,514,l),
(568,716,o),
(478,820,o),
(318,820,cs),
(128,820,o),
(38,686,o),
(38,400,cs),
(38,114,o),
(126,-20,o),
(312,-20,cs)
);
}
);
width = 600;
},
{
anchors = (
{
name = bottom;
pos = (398,0);
},
{
name = connect;
pos = (144,400);
},
{
name = top;
pos = (398,800);
}
);
background = {
shapes = (
{
pos = (20,0);
ref = O;
}
);
};
layerId = m007;
shapes = (
{
closed = 1;
nodes = (
(539,-12,o),
(628,79,o),
(649,256,c),
(608,256,l),
(590,104,o),
(515,26,o),
(387,26,cs),
(232,26,o),
(152,153,o),
(152,400,cs),
(152,647,o),
(235,774,o),
(397,774,cs),
(528,774,o),
(604,689,o),
(620,524,c),
(661,524,l),
(642,714,o),
(552,812,o),
(397,812,cs),
(208,812,o),
(110,672,o),
(110,400,cs),
(110,128,o),
(204,-12,o),
(387,-12,cs)
);
}
);
width = 750;
},
{
anchors = (
{
name = bottom;
pos = (318,0);
},
{
name = connect;
pos = (143,400);
},
{
name = top;
pos = (318,800);
}
);
background = {
shapes = (
{
pos = (19,0);
ref = O;
}
);
};
layerId = m009;
shapes = (
{
closed = 1;
nodes = (
(429,-12,o),
(489,71,o),
(502,246,c),
(462,246,l),
(450,96,o),
(403,26,o),
(315,26,cs),
(203,26,o),
(151,146,o),
(151,400,cs),
(151,654,o),
(206,774,o),
(323,774,cs),
(413,774,o),
(461,697,o),
(472,534,c),
(512,534,l),
(499,723,o),
(439,812,o),
(323,812,cs),
(177,812,o),
(109,680,o),
(109,400,cs),
(109,120,o),
(175,-12,o),
(315,-12,cs)
);
}
);
width = 600;
}
);
unicode = 67;
},
{
glyphname = D;
kernRight = RND_RIGHT;
lastChange = "2022-08-28 18:39:19 +0000";
layers = (
{
anchors = (
{
name = bottom;
pos = (355,0);
},
{
name = center;
pos = (355,400);
},
{
name = top;
pos = (355,800);
}
);
background = {
shapes = (
{
ref = H;
}
);
};
layerId = m01;
shapes = (
{
closed = 1;
nodes = (
(340,0,ls),
(570,0,o),
(690,138,o),
(690,400,cs),
(690,662,o),
(570,800,o),
(340,800,cs),
(100,800,l),
(100,0,l)
);
},
{
closed = 1;
nodes = (
(214,692,l),
(340,692,ls),
(496,692,o),
(576,594,o),
(576,400,cs),
(576,206,o),
(496,108,o),
(340,108,cs),
(214,108,l)
);
}
);
width = 750;
},
{
anchors = (
{
name = bottom;
pos = (355,0);
},
{
name = center;
pos = (355,400);
},
{
name = top;
pos = (355,800);
}
);
background = {
shapes = (
{
ref = H;
}
);
};
layerId = m002;
shapes = (
{
closed = 1;
nodes = (
(350,0,ls),
(586,0,o),
(720,146,o),
(720,400,cs),
(720,654,o),
(586,800,o),
(350,800,cs),
(70,800,l),
(70,0,l)
);
},
{
closed = 1;
nodes = (
(258,626,l),
(350,626,ls),
(470,626,o),
(532,549,o),
(532,400,cs),
(532,251,o),
(470,174,o),
(350,174,cs),
(258,174,l)
);
}
);
width = 750;
},
{
anchors = (
{
name = bottom;
pos = (290,0);
},
{
name = center;
pos = (290,400);
},
{
name = top;
pos = (290,800);
}
);
background = {
shapes = (
{
ref = H;
}
);
};
layerId = m005;
shapes = (
{
closed = 1;
nodes = (
(271,0,ls),
(457,0,o),
(545,128,o),
(545,400,cs),
(545,672,o),
(457,800,o),
(271,800,cs),
(80,800,l),
(80,0,l)
);
},
{
closed = 1;
nodes = (
(194,694,l),
(271,694,ls),
(383,694,o),
(431,606,o),
(431,400,cs),
(431,194,o),
(383,106,o),
(271,106,cs),
(194,106,l)
);
}
);
width = 600;
},
{
anchors = (
{
name = bottom;
pos = (290,0);
},
{
name = center;
pos = (290,400);
},
{
name = top;
pos = (290,800);
}
);
background = {
shapes = (
{
ref = H;
}
);
};
layerId = m006;
shapes = (
{
closed = 1;
nodes = (
(268,0,ls),
(476,0,o),
(580,132,o),
(580,400,cs),
(580,668,o),
(476,800,o),
(268,800,cs),
(40,800,l),
(40,0,l)
);
},
{
closed = 1;
nodes = (
(228,624,l),
(268,624,ls),
(355,624,o),
(392,557,o),
(392,400,cs),
(392,243,o),
(355,176,o),
(268,176,cs),
(228,176,l)
);
}
);
width = 600;
},
{
anchors = (
{
name = bottom;
pos = (355,0);
},
{
name = center;
pos = (355,400);
},
{
name = top;
pos = (355,800);
}
);
background = {
shapes = (
{
ref = H;
}
);
};
layerId = m007;
shapes = (
{
closed = 1;
nodes = (
(332,0,ls),
(542,0,o),
(660,144,o),
(660,400,cs),
(660,656,o),
(542,800,o),
(332,800,cs),
(130,800,l),
(130,0,l)
);
},
{
closed = 1;
nodes = (
(172,762,l),
(332,762,ls),
(515,762,o),
(618,632,o),
(618,400,cs),
(618,168,o),
(515,38,o),
(332,38,cs),
(172,38,l)
);
}
);
width = 750;
},
{
anchors = (
{
name = bottom;
pos = (280,0);
},
{
name = center;
pos = (280,400);
},
{
name = top;
pos = (280,800);
}
);
background = {
shapes = (
{
ref = H;
}
);
};
layerId = m009;
shapes = (
{
closed = 1;
nodes = (
(254,0,ls),
(428,0,o),
(510,128,o),
(510,400,cs),
(510,672,o),
(428,800,o),
(254,800,cs),
(120,800,l),
(120,0,l)
);
},
{
closed = 1;
nodes = (
(162,762,l),
(254,762,ls),
(400,762,o),
(468,646,o),
(468,400,cs),
(468,154,o),
(400,38,o),
(254,38,cs),
(162,38,l)
);
}
);
width = 600;
}
);
unicode = 68;
},
{
glyphname = Eth;
lastChange = "2022-07-15 21:08:58 +0000";
layers = (
{
layerId = m009;
shapes = (
{
closed = 1;
nodes = (
(260,382,l),
(260,418,l),
(50,418,l),
(50,382,l)
);
},
{
ref = D;
}
);
width = 600;
},
{
layerId = m005;
shapes = (
{
closed = 1;
nodes = (
(280,347,l),
(280,453,l),
(30,453,l),
(30,347,l)
);
},
{
ref = D;
}
);
width = 600;
},
{
layerId = m006;
shapes = (
{
closed = 1;
nodes = (
(300,320,l),
(300,480,l),
(10,480,l),
(10,320,l)
);
},
{
ref = D;
}
);
width = 600;
},
{
layerId = m007;
shapes = (
{
closed = 1;
nodes = (
(320,382,l),
(320,418,l),
(60,418,l),
(60,382,l)
);
},
{
ref = D;
}
);
width = 750;
},
{
layerId = m01;
shapes = (
{
closed = 1;
nodes = (
(340,347,l),
(340,453,l),
(40,453,l),
(40,347,l)
);
},
{
ref = D;
}
);
width = 750;
},
{
layerId = m002;
shapes = (
{
closed = 1;
nodes = (
(360,320,l),
(360,480,l),
(20,480,l),
(20,320,l)
);
},
{
ref = D;
}
);
width = 750;
}
);
unicode = 208;
},
{
glyphname = E;
kernRight = E_RIGHT;
lastChange = "2022-09-11 17:24:23 +0000";
layers = (
{
anchors = (
{
name = bottom;
pos = (414,0);
},
{
name = ogonek;
pos = (640,10);
},
{
name = top;
pos = (414,800);
},
{
name = topleft;
pos = (20,800);
}
);
background = {
shapes = (
{
pos = (50,0);
ref = H;
}
);
};
layerId = m01;
shapes = (
{
closed = 1;
nodes = (
(650,0,l),
(650,108,l),
(264,108,l),
(264,353,l),
(610,353,l),
(610,453,l),
(264,453,l),
(264,692,l),
(660,692,l),
(660,800,l),
(150,800,l),
(150,0,l)
);
}
);
width = 750;
},
{
anchors = (
{
name = bottom;
pos = (402,0);
},
{
name = ogonek;
pos = (658,10);
},
{
name = top;
pos = (402,800);
},
{
name = topleft;
pos = (20,800);
}
);
background = {
shapes = (
{
pos = (40,0);
ref = H;
}
);
};
layerId = m002;
shapes = (
{
closed = 1;
nodes = (
(670,0,l),
(670,160,l),
(298,160,l),
(298,318,l),
(630,318,l),
(630,474,l),
(298,474,l),
(298,640,l),
(680,640,l),
(680,800,l),
(110,800,l),
(110,0,l)
);
}
);
width = 750;
},
{
anchors = (
{
name = bottom;
pos = (326,0);
},
{
name = ogonek;
pos = (502,10);
},
{
name = top;
pos = (326,800);
},
{
name = topleft;
pos = (20,800);
}
);
background = {
shapes = (
{
pos = (40,0);
ref = H;
}
);
};
layerId = m005;
shapes = (
{
closed = 1;
nodes = (
(510,0,l),
(510,106,l),
(234,106,l),
(234,353,l),
(470,353,l),
(470,453,l),
(234,453,l),
(234,694,l),
(520,694,l),
(520,800,l),
(120,800,l),
(120,0,l)
);
}
);
width = 600;
},
{
anchors = (
{
name = bottom;
pos = (320,0);
},
{
name = ogonek;
pos = (530,10);
},
{
name = top;
pos = (320,800);
},
{
name = topleft;
pos = (20,800);
}
);
background = {
shapes = (
{
pos = (30,0);
ref = H;
}
);
};
layerId = m006;
shapes = (
{
closed = 1;
nodes = (
(540,0,l),
(540,160,l),
(258,160,l),
(258,322,l),
(500,322,l),
(500,478,l),
(258,478,l),
(258,640,l),
(550,640,l),
(550,800,l),
(70,800,l),
(70,0,l)
);
}
);
width = 600;
},
{
anchors = (
{
name = bottom;
pos = (422,0);
},
{
name = ogonek;
pos = (620,10);
},
{
name = top;
pos = (422,800);
},
{
name = topleft;
pos = (20,800);
}
);
background = {
shapes = (
{
pos = (60,0);
ref = H;
}
);
};
layerId = m007;
shapes = (
{
closed = 1;
nodes = (
(630,0,l),
(630,38,l),
(232,38,l),
(232,385,l),
(590,385,l),
(590,421,l),
(232,421,l),
(232,762,l),
(640,762,l),
(640,800,l),
(190,800,l),
(190,0,l)
);
}
);
width = 750;
},
{
anchors = (
{
name = bottom;
pos = (332,0);
},
{
name = ogonek;
pos = (472,10);
},
{
name = top;
pos = (332,800);
},
{
name = topleft;
pos = (20,800);
}
);
background = {
shapes = (
{
pos = (50,0);
ref = H;
}
);
};
layerId = m009;
shapes = (
{
closed = 1;
nodes = (
(480,0,l),
(480,38,l),
(212,38,l),
(212,385,l),
(440,385,l),
(440,421,l),
(212,421,l),
(212,762,l),
(490,762,l),
(490,800,l),
(170,800,l),
(170,0,l)
);
}
);
width = 600;
}
);
unicode = 69;
},
{
glyphname = Schwa;
lastChange = "2022-09-23 16:40:45 +0000";
layers = (
{
background = {
shapes = (
{
ref = O;
}
);
};
layerId = m009;
shapes = (
{
closed = 1;
nodes = (
(482,408,l),
(110,408,l),
(109,398,o),
(108,383,o),
(108,368,cs),
(108,110,o),
(171,-12,o),
(304,-12,cs),
(444,-12,o),
(510,117,o),
(510,392,cs),
(510,678,o),
(445,812,o),
(306,812,cs),
(192,812,o),
(123,728,o),
(91,548,c),
(133,548,l),
(161,702,o),
(216,774,o),
(306,774,cs),
(416,774,o),
(468,652,o),
(468,392,cs),
(468,143,o),
(416,26,o),
(304,26,cs),
(199,26,o),
(150,137,o),
(150,373,c),
(130,372,l),
(482,372,l)
);
}
);
width = 600;
},
{
background = {
shapes = (
{
ref = O;
}
);
};
layerId = m005;
shapes = (
{
closed = 1;
nodes = (
(469,435,l),
(68,435,l),
(67,429,o),
(65,411,o),
(65,378,cs),
(65,102,o),
(135,-16,o),
(298,-16,cs),
(466,-16,o),
(545,115,o),
(545,393,cs),
(545,681,o),
(465,816,o),
(294,816,cs),
(161,816,o),
(82,732,o),
(50,553,c),
(157,553,l),
(189,663,o),
(229,710,o),
(294,710,cs),
(390,710,o),
(431,615,o),
(431,393,cs),
(431,181,o),
(391,90,o),
(298,90,cs),
(215,90,o),
(179,177,o),
(179,380,c),
(150,333,l),
(469,333,l)
);
}
);
width = 600;
},
{
background = {
shapes = (
{
ref = O;
}
);
};
layerId = m006;
shapes = (
{
closed = 1;
nodes = (
(462,471,l),
(42,471,l),
(38,453,o),
(37,424,o),
(37,396,cs),
(37,113,o),
(122,-20,o),
(302,-20,cs),
(491,-20,o),
(580,113,o),
(580,396,cs),
(580,684,o),
(491,820,o),
(303,820,cs),
(148,820,o),
(57,733,o),
(20,548,c),
(199,548,l),
(224,621,o),
(253,652,o),
(303,652,cs),
(365,652,o),
(392,575,o),
(392,396,cs),
(392,222,o),
(365,148,o),
(302,148,cs),
(248,148,o),
(225,222,o),
(225,396,c),
(161,319,l),
(462,319,l)
);
}
);
width = 600;
},
{
background = {
shapes = (
{
ref = O;
}
);
};
layerId = m007;
shapes = (
{
closed = 1;
nodes = (
(632,408,l),
(110,408,l),
(109,397,o),
(108,384,o),
(108,368,cs),
(108,125,o),
(202,-12,o),
(370,-12,cs),
(556,-12,o),
(660,133,o),
(660,392,cs),
(660,661,o),
(555,812,o),
(368,812,cs),
(227,812,o),
(127,717,o),
(91,548,c),
(133,548,l),
(165,693,o),
(250,774,o),
(368,774,cs),
(528,774,o),
(618,636,o),
(618,392,cs),
(618,158,o),
(529,26,o),
(370,26,cs),
(229,26,o),
(150,151,o),
(150,373,c),
(130,372,l),
(632,372,l)
);
}
);
width = 750;
},
{
background = {
shapes = (
{
ref = O;
}
);
};
layerId = m01;
shapes = (
{
closed = 1;
nodes = (
(614,435,l),
(78,435,l),
(77,429,o),
(75,411,o),
(75,378,cs),
(75,118,o),
(176,-16,o),
(371,-16,cs),
(582,-16,o),
(690,123,o),
(690,393,cs),
(690,672,o),
(579,816,o),
(363,816,cs),
(208,816,o),
(99,721,o),
(60,553,c),
(167,553,l),
(207,657,o),
(273,710,o),
(363,710,cs),
(508,710,o),
(576,609,o),
(576,393,cs),
(576,187,o),
(510,90,o),
(371,90,cs),
(247,90,o),
(189,183,o),
(189,380,c),
(160,333,l),
(614,333,l)
);
}
);
width = 750;
},
{
background = {
shapes = (
{
ref = O;
}
);
};
layerId = m002;
shapes = (
{
closed = 1;
nodes = (
(602,471,l),
(52,471,l),
(48,453,o),
(47,424,o),
(47,396,cs),
(47,130,o),
(163,-20,o),
(370,-20,cs),
(594,-20,o),
(720,130,o),
(720,396,cs),
(720,667,o),
(593,820,o),
(367,820,cs),
(199,820,o),
(78,722,o),
(30,548,c),
(225,548,l),
(251,617,o),
(299,652,o),
(367,652,cs),
(476,652,o),
(532,565,o),
(532,396,cs),
(532,232,o),
(477,148,o),
(370,148,cs),
(281,148,o),
(235,232,o),
(235,396,c),
(171,319,l),
(602,319,l)
);
}
);
width = 750;
}
);
unicode = 399;
},
{
glyphname = F;
kernRight = F_RIGHT;
lastChange = "2021-09-26 15:58:30 +0000";
layers = (
{
background = {
shapes = (
{
pos = (20,0);
ref = E;
}
);
};
layerId = m01;
shapes = (
{
closed = 1;
nodes = (
(284,0,l),
(284,341,l),
(630,341,l),
(630,441,l),
(284,441,l),
(284,692,l),
(680,692,l),
(680,800,l),
(170,800,l),
(170,0,l)
);
}
);
width = 750;
},
{
background = {
shapes = (
{
pos = (20,0);
ref = E;
}
);
};
layerId = m002;
shapes = (
{
closed = 1;
nodes = (
(308,0,l),
(308,294,l),
(640,294,l),
(640,458,l),
(308,458,l),
(308,620,l),
(690,620,l),
(690,800,l),
(120,800,l),
(120,0,l)
);
}
);
width = 750;
},
{
background = {
shapes = (
{
pos = (10,0);
ref = E;
}
);
};
layerId = m005;
shapes = (
{
closed = 1;
nodes = (
(254,0,l),
(254,341,l),
(490,341,l),
(490,441,l),
(254,441,l),
(254,694,l),
(540,694,l),
(540,800,l),
(140,800,l),
(140,0,l)
);
}
);
width = 600;
},
{
background = {
shapes = (
{
pos = (10,0);
ref = E;
}
);
};
layerId = m006;
shapes = (
{
closed = 1;
nodes = (
(268,0,l),
(268,296,l),
(510,296,l),
(510,456,l),
(268,456,l),
(268,624,l),
(560,624,l),
(560,800,l),
(80,800,l),
(80,0,l)
);
}
);
width = 600;
},
{
background = {
shapes = (
{
pos = (30,0);
ref = E;
}
);
};
layerId = m007;
shapes = (
{
closed = 1;
nodes = (
(262,0,l),
(262,374,l),
(620,374,l),
(620,410,l),
(262,410,l),
(262,762,l),
(670,762,l),
(670,800,l),
(220,800,l),
(220,0,l)
);
}
);
width = 750;
},
{
background = {
shapes = (
{
pos = (10,0);
ref = E;
}
);
};
layerId = m009;
shapes = (
{
closed = 1;
nodes = (
(242,0,l),
(242,374,l),
(470,374,l),
(470,410,l),
(242,410,l),
(242,762,l),
(520,762,l),
(520,800,l),
(200,800,l),
(200,0,l)
);
}
);
width = 600;
}
);
unicode = 70;
},
{
glyphname = G;
kernLeft = RND_LEFT;
lastChange = "2022-08-28 05:45:56 +0000";
layers = (
{
anchors = (
{
name = bottom;
pos = (396,0);
},
{
name = top;
pos = (396,800);
}
);
background = {
shapes = (
{
pos = (-10,0);
ref = C;
}
);
};
layerId = m01;
shapes = (
{
closed = 1;
nodes = (
(443,-16,o),
(507,16,o),
(533,70,c),
(563,70,l),
(563,0,l),
(663,0,l),
(663,400,l),
(369,400,l),
(369,292,l),
(563,292,l),
(563,180,o),
(484,86,o),
(390,86,cs),
(253,86,o),
(188,186,o),
(188,400,cs),
(188,609,o),
(254,708,o),
(393,708,cs),
(493,708,o),
(553,644,o),
(575,540,c),
(683,540,l),
(667,711,o),
(563,816,o),
(393,816,cs),
(183,816,o),
(74,675,o),
(74,400,cs),
(74,129,o),
(180,-16,o),
(362,-16,cs)
);
}
);
width = 750;
},
{
anchors = (
{
name = bottom;
pos = (392,0);
},
{
name = top;
pos = (392,800);
}
);
background = {
shapes = (
{
pos = (-11,0);
ref = C;
}
);
};
layerId = m002;
shapes = (
{
closed = 1;
nodes = (
(408,-18,o),
(462,12,o),
(480,70,c),
(520,70,l),
(520,0,l),
(690,0,l),
(690,428,l),
(364,428,l),
(364,264,l),
(520,264,l),
(520,191,o),
(470,142,o),
(396,142,cs),
(281,142,o),
(232,223,o),
(232,400,cs),
(232,564,o),
(286,648,o),
(390,648,cs),
(462,648,o),
(508,604,o),
(526,520,c),
(706,520,l),
(696,706,o),
(576,820,o),
(390,820,cs),
(167,820,o),
(44,669,o),
(44,400,cs),
(44,133,o),
(149,-18,o),
(330,-18,cs)
);
}
);
width = 750;
},
{
anchors = (
{
name = bottom;
pos = (312,0);
},
{
name = top;
pos = (312,800);
}
);
background = {
shapes = (
{
pos = (-11,0);
ref = C;
}
);
};
layerId = m005;
shapes = (
{
closed = 1;
nodes = (
(338,-12,o),
(382,10,o),
(401,50,c),
(431,50,l),
(431,0,l),
(521,0,l),
(521,400,l),
(309,400,l),
(309,298,l),
(431,298,l),
(431,178,o),
(380,84,o),
(315,84,cs),
(220,84,o),
(179,179,o),
(179,400,cs),
(179,617,o),
(219,710,o),
(311,710,cs),
(380,710,o),
(415,662,o),
(433,550,c),
(535,550,l),
(525,725,o),
(448,816,o),
(311,816,cs),
(144,816,o),
(65,683,o),
(65,400,cs),
(65,125,o),
(146,-12,o),
(277,-12,cs)
);
}
);
width = 600;
},
{
anchors = (
{
name = bottom;
pos = (318,0);
},
{
name = top;
pos = (318,800);
}
);
background = {
shapes = (
{
pos = (-4,0);
ref = C;
}
);
};
layerId = m006;
shapes = (
{
closed = 1;
nodes = (
(306,-16,o),
(355,14,o),
(372,60,c),
(414,60,l),
(414,0,l),
(566,0,l),
(566,428,l),
(310,428,l),
(310,264,l),
(414,264,l),
(414,184,o),
(376,130,o),
(321,130,cs),
(250,130,o),
(220,211,o),
(220,400,cs),
(220,576,o),
(249,652,o),
(316,652,cs),
(364,652,o),
(392,615,o),
(410,530,c),
(576,530,l),
(568,718,o),
(475,820,o),
(316,820,cs),
(124,820,o),
(34,686,o),
(34,400,cs),
(34,125,o),
(107,-16,o),
(248,-16,cs)
);
}
);
width = 600;
},
{
anchors = (
{
name = bottom;
pos = (392,0);
},
{
name = top;
pos = (392,800);
}
);
background = {
shapes = (
{
pos = (-6,0);
ref = C;
}
);
};
layerId = m007;
shapes = (
{
closed = 1;
nodes = (
(479,-12,o),
(546,29,o),
(583,108,c),
(603,108,l),
(603,0,l),
(641,0,l),
(641,370,l),
(360,370,l),
(360,330,l),
(603,330,l),
(603,139,o),
(522,26,o),
(385,26,cs),
(227,26,o),
(146,154,o),
(146,400,cs),
(146,646,o),
(231,774,o),
(397,774,cs),
(521,774,o),
(593,694,o),
(609,544,c),
(650,544,l),
(631,719,o),
(546,812,o),
(397,812,cs),
(205,812,o),
(104,671,o),
(104,400,cs),
(104,129,o),
(200,-12,o),
(385,-12,cs)
);
}
);
width = 750;
},
{
anchors = (
{
name = bottom;
pos = (314,0);
},
{
name = top;
pos = (314,800);
}
);
background = {
shapes = (
{
pos = (-9,0);
ref = C;
}
);
};
layerId = m009;
shapes = (
{
closed = 1;
nodes = (
(363,-12,o),
(403,17,o),
(429,80,c),
(449,80,l),
(449,0,l),
(485,0,l),
(485,370,l),
(296,370,l),
(296,330,l),
(449,330,l),
(449,139,o),
(394,26,o),
(302,26,cs),
(193,26,o),
(142,146,o),
(142,400,cs),
(142,654,o),
(197,774,o),
(314,774,cs),
(404,774,o),
(452,704,o),
(463,554,c),
(503,554,l),
(490,729,o),
(429,812,o),
(314,812,cs),
(168,812,o),
(100,680,o),
(100,400,cs),
(100,120,o),
(165,-12,o),
(302,-12,cs)
);
}
);
width = 600;
}
);
unicode = 71;
},
{
glyphname = H;
lastChange = "2022-11-19 10:45:04 +0000";
layers = (
{
layerId = m01;
shapes = (
{
closed = 1;
nodes = (
(214,0,l),
(214,349,l),
(536,349,l),
(536,0,l),
(650,0,l),
(650,800,l),
(536,800,l),
(536,457,l),
(214,457,l),
(214,800,l),
(100,800,l),
(100,0,l)
);
}
);
width = 750;
},
{
layerId = m002;
shapes = (
{
closed = 1;
nodes = (
(258,0,l),
(258,306,l),
(492,306,l),
(492,0,l),
(680,0,l),
(680,800,l),
(492,800,l),
(492,486,l),
(258,486,l),
(258,800,l),
(70,800,l),
(70,0,l)
);
}
);
width = 750;
},
{
layerId = m005;
shapes = (
{
closed = 1;
nodes = (
(194,0,l),
(194,350,l),
(406,350,l),
(406,0,l),
(520,0,l),
(520,800,l),
(406,800,l),
(406,456,l),
(194,456,l),
(194,800,l),
(80,800,l),
(80,0,l)
);
}
);
width = 600;
},
{
layerId = m006;
shapes = (
{
closed = 1;
nodes = (
(228,0,l),
(228,308,l),
(372,308,l),
(372,0,l),
(560,0,l),
(560,800,l),
(372,800,l),
(372,484,l),
(228,484,l),
(228,800,l),
(40,800,l),
(40,0,l)
);
}
);
width = 600;
},
{
layerId = m007;
shapes = (
{
closed = 1;
nodes = (
(172,0,l),
(172,384,l),
(578,384,l),
(578,0,l),
(620,0,l),
(620,800,l),
(578,800,l),
(578,422,l),
(172,422,l),
(172,800,l),
(130,800,l),
(130,0,l)
);
}
);
width = 750;
},
{
layerId = m009;
shapes = (
{
closed = 1;
nodes = (
(162,0,l),
(162,384,l),
(438,384,l),
(438,0,l),
(480,0,l),
(480,800,l),
(438,800,l),
(438,422,l),
(162,422,l),
(162,800,l),
(120,800,l),
(120,0,l)
);
}
);
width = 600;
}
);
unicode = 72;
},
{
glyphname = Hbar;
lastChange = "2022-11-19 10:48:33 +0000";
layers = (
{
anchors = (
{
name = top;
pos = (300,800);
}
);
layerId = m009;
shapes = (
{
closed = 1;
nodes = (
(162,0,l),
(162,384,l),
(438,384,l),
(438,0,l),
(480,0,l),
(480,800,l),
(438,800,l),
(438,422,l),
(162,422,l),
(162,800,l),
(120,800,l),
(120,0,l)
);
},
{
closed = 1;
nodes = (
(554,605,l),
(554,637,l),
(46,637,l),
(46,605,l)
);
}
);
width = 600;
},
{
anchors = (
{
name = top;
pos = (300,800);
}
);
layerId = m005;
shapes = (
{
closed = 1;
nodes = (
(204,0,l),
(204,350,l),
(396,350,l),
(396,0,l),
(510,0,l),
(510,800,l),
(396,800,l),
(396,456,l),
(204,456,l),
(204,800,l),
(90,800,l),
(90,0,l)
);
},
{
closed = 1;
nodes = (
(570,600,l),
(570,690,l),
(30,690,l),
(30,600,l)
);
}
);
width = 600;
},
{
anchors = (
{
name = top;
pos = (300,800);
}
);
layerId = m006;
shapes = (
{
closed = 1;
nodes = (
(248,0,l),
(248,308,l),
(352,308,l),
(352,0,l),
(540,0,l),
(540,800,l),
(352,800,l),
(352,484,l),
(248,484,l),
(248,800,l),
(60,800,l),
(60,0,l)
);
},
{
closed = 1;
nodes = (
(586,595,l),
(586,715,l),
(14,715,l),
(14,595,l)
);
}
);
width = 600;
},
{
anchors = (
{
name = top;
pos = (375,800);
}
);
layerId = m007;
shapes = (
{
closed = 1;
nodes = (
(172,0,l),
(172,384,l),
(578,384,l),
(578,0,l),
(620,0,l),
(620,800,l),
(578,800,l),
(578,422,l),
(172,422,l),
(172,800,l),
(130,800,l),
(130,0,l)
);
},
{
closed = 1;
nodes = (
(720,605,l),
(720,637,l),
(30,637,l),
(30,605,l)
);
}
);
width = 750;
},
{
anchors = (
{
name = top;
pos = (375,800);
}
);
layerId = m01;
shapes = (
{
closed = 1;
nodes = (
(224,0,l),
(224,349,l),
(526,349,l),
(526,0,l),
(640,0,l),
(640,800,l),
(526,800,l),
(526,457,l),
(224,457,l),
(224,800,l),
(110,800,l),
(110,0,l)
);
},
{
closed = 1;
nodes = (
(730,600,l),
(730,690,l),
(20,690,l),
(20,600,l)
);
}
);
width = 750;
},
{
anchors = (
{
name = top;
pos = (375,800);
}
);
layerId = m002;
shapes = (
{
closed = 1;
nodes = (
(268,0,l),
(268,306,l),
(482,306,l),
(482,0,l),
(670,0,l),
(670,800,l),
(482,800,l),
(482,486,l),
(268,486,l),
(268,800,l),
(80,800,l),
(80,0,l)
);
},
{
closed = 1;
nodes = (
(740,595,l),
(740,715,l),
(10,715,l),
(10,595,l)
);
}
);
width = 750;
}
);
unicode = 294;
},
{
glyphname = I;
lastChange = "2022-09-11 17:24:37 +0000";
layers = (
{
anchors = (
{
name = bottom;
pos = (375,0);
},
{
name = ogonek;
pos = (640,10);
},
{
name = top;
pos = (375,800);
},
{
name = topleft;
pos = (20,800);
}
);
background = {
shapes = (
{
ref = H;
}
);
};
layerId = m01;
shapes = (
{
closed = 1;
nodes = (
(650,0,l),
(650,108,l),
(432,108,l),
(432,692,l),
(650,692,l),
(650,800,l),
(100,800,l),
(100,692,l),
(318,692,l),
(318,108,l),
(100,108,l),
(100,0,l)
);
}
);
width = 750;
},
{
anchors = (
{
name = bottom;
pos = (375,0);
},
{
name = ogonek;
pos = (668,10);
},
{
name = top;
pos = (375,800);
},
{
name = topleft;
pos = (20,800);
}
);
background = {
shapes = (
{
ref = H;
}
);
};
layerId = m002;
shapes = (
{
closed = 1;
nodes = (
(680,0,l),
(680,180,l),
(469,180,l),
(469,620,l),
(680,620,l),
(680,800,l),
(70,800,l),
(70,620,l),
(281,620,l),
(281,180,l),
(70,180,l),
(70,0,l)
);
}
);
width = 750;
},
{
anchors = (
{
name = bottom;
pos = (300,0);
},
{
name = ogonek;
pos = (512,10);
},
{
name = top;
pos = (300,800);
},
{
name = topleft;
pos = (20,800);
}
);
background = {
shapes = (
{
ref = H;
}
);
};
layerId = m005;
shapes = (
{
closed = 1;
nodes = (
(520,0,l),
(520,106,l),
(357,106,l),
(357,694,l),
(520,694,l),
(520,800,l),
(80,800,l),
(80,694,l),
(243,694,l),
(243,106,l),
(80,106,l),
(80,0,l)
);
}
);
width = 600;
},
{
anchors = (
{
name = bottom;
pos = (300,0);
},
{
name = ogonek;
pos = (550,10);
},
{
name = top;
pos = (300,800);
},
{
name = topleft;
pos = (20,800);
}
);
background = {
shapes = (
{
ref = H;
}
);
};
layerId = m006;
shapes = (
{
closed = 1;
nodes = (
(560,0,l),
(560,176,l),
(394,176,l),
(394,624,l),
(560,624,l),
(560,800,l),
(40,800,l),
(40,624,l),
(206,624,l),
(206,176,l),
(40,176,l),
(40,0,l)
);
}
);
width = 600;
},
{
anchors = (
{
name = bottom;
pos = (375,0);
},
{
name = ogonek;
pos = (610,10);
},
{
name = top;
pos = (375,800);
},
{
name = topleft;
pos = (20,800);
}
);
background = {
shapes = (
{
ref = H;
}
);
};
layerId = m007;
shapes = (
{
closed = 1;
nodes = (
(620,0,l),
(620,38,l),
(396,38,l),
(396,762,l),
(620,762,l),
(620,800,l),
(130,800,l),
(130,762,l),
(354,762,l),
(354,38,l),
(130,38,l),
(130,0,l)
);
}
);
width = 750;
},
{
anchors = (
{
name = bottom;
pos = (300,0);
},
{
name = ogonek;
pos = (472,10);
},
{
name = top;
pos = (300,800);
},
{
name = topleft;
pos = (20,800);
}
);
background = {
shapes = (
{
ref = H;
}
);
};
layerId = m009;
shapes = (
{
closed = 1;
nodes = (
(480,0,l),
(480,38,l),
(321,38,l),
(321,762,l),
(480,762,l),
(480,800,l),
(120,800,l),
(120,762,l),
(279,762,l),
(279,38,l),
(120,38,l),
(120,0,l)
);
}
);
width = 600;
}
);
unicode = 73;
},
{
glyphname = IJ;
lastChange = "2022-09-01 18:49:14 +0000";
layers = (
{
background = {
shapes = (
{
ref = H;
}
);
};
layerId = m009;
shapes = (
{
closed = 1;
nodes = (
(142,0,l),
(142,800,l),
(100,800,l),
(100,0,l)
);
},
{
closed = 1;
nodes = (
(432,-12,o),
(500,65,o),
(500,190,cs),
(500,800,l),
(458,800,l),
(458,190,ls),
(458,88,o),
(406,26,o),
(320,26,cs),
(282,26,l),
(282,-12,l),
(320,-12,l)
);
}
);
width = 600;
},
{
background = {
shapes = (
{
ref = H;
}
);
};
layerId = m005;
shapes = (
{
closed = 1;
nodes = (
(174,0,l),
(174,800,l),
(60,800,l),
(60,0,l)
);
},
{
closed = 1;
nodes = (
(459,-16,o),
(540,68,o),
(540,210,cs),
(540,800,l),
(426,800,l),
(426,220,ls),
(426,138,o),
(386,90,o),
(319,90,cs),
(284,90,l),
(284,-16,l),
(319,-16,l)
);
}
);
width = 600;
},
{
background = {
shapes = (
{
ref = H;
}
);
};
layerId = m006;
shapes = (
{
closed = 1;
nodes = (
(208,0,l),
(208,800,l),
(20,800,l),
(20,0,l)
);
},
{
closed = 1;
nodes = (
(483,-20,o),
(580,79,o),
(580,246,cs),
(580,800,l),
(392,800,l),
(392,264,ls),
(392,196,o),
(365,156,o),
(318,156,cs),
(288,156,l),
(288,-20,l),
(318,-20,l)
);
}
);
width = 600;
},
{
background = {
shapes = (
{
ref = H;
}
);
};
layerId = m007;
shapes = (
{
closed = 1;
nodes = (
(152,0,l),
(152,800,l),
(110,800,l),
(110,0,l)
);
},
{
closed = 1;
nodes = (
(545,-12,o),
(640,76,o),
(640,220,cs),
(640,800,l),
(598,800,l),
(598,220,ls),
(598,100,o),
(519,26,o),
(390,26,cs),
(332,26,l),
(332,-12,l),
(390,-12,l)
);
}
);
width = 750;
},
{
background = {
shapes = (
{
ref = H;
}
);
};
layerId = m01;
shapes = (
{
closed = 1;
nodes = (
(194,0,l),
(194,800,l),
(80,800,l),
(80,0,l)
);
},
{
closed = 1;
nodes = (
(565,-16,o),
(670,84,o),
(670,250,cs),
(670,800,l),
(556,800,l),
(556,260,ls),
(556,154,o),
(496,92,o),
(394,92,cs),
(334,92,l),
(334,-16,l),
(394,-16,l)
);
}
);
width = 750;
},
{
background = {
shapes = (
{
ref = H;
}
);
};
layerId = m002;
shapes = (
{
closed = 1;
nodes = (
(238,0,l),
(238,800,l),
(50,800,l),
(50,0,l)
);
},
{
closed = 1;
nodes = (
(583,-20,o),
(700,90,o),
(700,270,cs),
(700,800,l),
(512,800,l),
(512,270,ls),
(512,192,o),
(472,152,o),
(393,152,cs),
(338,152,l),
(338,-20,l),
(393,-20,ls)
);
}
);
width = 750;
}
);
unicode = 306;
},
{
glyphname = J;
kernRight = U_RIGHT;
lastChange = "2022-09-18 19:35:13 +0000";
layers = (
{
anchors = (
{
name = bottom;
pos = (375,0);
},
{
name = top;
pos = (385,800);
},
{
name = topacute;
pos = (572,800);
}
);
background = {
shapes = (
{
ref = H;
}
);
};
layerId = m01;
shapes = (
{
closed = 1;
nodes = (
(525,-16,o),
(630,84,o),
(630,250,cs),
(630,800,l),
(138,800,l),
(138,690,l),
(516,690,l),
(516,260,ls),
(516,154,o),
(456,92,o),
(354,92,cs),
(252,92,o),
(192,154,o),
(192,260,cs),
(192,350,l),
(80,350,l),
(80,250,ls),
(80,84,o),
(184,-16,o),
(354,-16,cs)
);
}
);
width = 750;
},
{
anchors = (
{
name = bottom;
pos = (375,0);
},
{
name = top;
pos = (385,800);
},
{
name = topacute;
pos = (556,800);
}
);
background = {
shapes = (
{
ref = H;
}
);
};
layerId = m002;
shapes = (
{
closed = 1;
nodes = (
(542,-20,o),
(659,90,o),
(659,270,cs),
(659,800,l),
(105,800,l),
(105,620,l),
(471,620,l),
(471,270,ls),
(471,192,o),
(431,152,o),
(352,152,cs),
(273,152,o),
(233,192,o),
(233,270,cs),
(233,350,l),
(49,350,l),
(49,270,ls),
(49,90,o),
(164,-20,o),
(352,-20,cs)
);
}
);
width = 750;
},
{
anchors = (
{
name = bottom;
pos = (300,0);
},
{
name = top;
pos = (320,800);
},
{
name = topacute;
pos = (456,800);
}
);
background = {
shapes = (
{
ref = H;
}
);
};
layerId = m005;
shapes = (
{
closed = 1;
nodes = (
(429,-16,o),
(510,68,o),
(510,210,cs),
(510,800,l),
(128,800,l),
(128,690,l),
(396,690,l),
(396,220,ls),
(396,138,o),
(356,90,o),
(289,90,cs),
(222,90,o),
(182,138,o),
(182,220,cs),
(182,350,l),
(70,350,l),
(70,210,ls),
(70,68,o),
(150,-16,o),
(289,-16,cs)
);
}
);
width = 600;
},
{
anchors = (
{
name = bottom;
pos = (300,0);
},
{
name = top;
pos = (320,800);
},
{
name = topacute;
pos = (450,800);
}
);
background = {
shapes = (
{
ref = H;
}
);
};
layerId = m006;
shapes = (
{
closed = 1;
nodes = (
(453,-20,o),
(550,79,o),
(550,246,cs),
(550,800,l),
(86,800,l),
(86,620,l),
(362,620,l),
(362,256,ls),
(362,188,o),
(335,148,o),
(288,148,cs),
(241,148,o),
(214,188,o),
(214,256,cs),
(214,350,l),
(30,350,l),
(30,246,ls),
(30,79,o),
(126,-20,o),
(288,-20,cs)
);
}
);
width = 600;
},
{
anchors = (
{
name = bottom;
pos = (375,0);
},
{
name = top;
pos = (385,800);
},
{
name = topacute;
pos = (580,800);
}
);
background = {
shapes = (
{
ref = H;
}
);
};
layerId = m007;
shapes = (
{
closed = 1;
nodes = (
(505,-12,o),
(600,76,o),
(600,220,cs),
(600,800,l),
(150,800,l),
(150,760,l),
(558,760,l),
(558,220,ls),
(558,100,o),
(479,26,o),
(350,26,cs),
(227,26,o),
(152,100,o),
(152,220,cs),
(152,350,l),
(111,350,l),
(111,220,ls),
(111,76,o),
(202,-12,o),
(350,-12,cs)
);
}
);
width = 750;
},
{
anchors = (
{
name = bottom;
pos = (300,0);
},
{
name = top;
pos = (449,800);
},
{
name = topacute;
pos = (452,800);
}
);
background = {
shapes = (
{
ref = H;
}
);
};
layerId = m009;
shapes = (
{
closed = 1;
nodes = (
(402,-12,o),
(470,65,o),
(470,190,cs),
(470,800,l),
(150,800,l),
(150,760,l),
(428,760,l),
(428,190,ls),
(428,88,o),
(376,26,o),
(290,26,cs),
(204,26,o),
(152,88,o),
(152,190,cs),
(152,350,l),
(111,350,l),
(111,190,ls),
(111,65,o),
(179,-12,o),
(290,-12,cs)
);
}
);
width = 600;
}
);
unicode = 74;
},
{
glyphname = K;
kernRight = X_RIGHT;
lastChange = "2022-09-17 15:22:59 +0000";
layers = (
{
anchors = (
{
name = bottom;
pos = (395,0);
},
{
name = top;
pos = (395,800);
}
);
background = {
shapes = (
{
pos = (50,0);
ref = H;
}
);
};
layerId = m01;
shapes = (
{
closed = 1;
nodes = (
(150,0,l),
(264,0,l),
(264,800,l),
(150,800,l)
);
},
{
closed = 1;
nodes = (
(686,0,l),
(368,391,l),
(698,800,l),
(560,800,l),
(227,387,l),
(542,0,l)
);
}
);
width = 750;
},
{
anchors = (
{
name = bottom;
pos = (395,0);
},
{
name = top;
pos = (395,800);
}
);
background = {
shapes = (
{
pos = (40,0);
ref = H;
}
);
};
layerId = m002;
shapes = (
{
closed = 1;
nodes = (
(110,0,l),
(298,0,l),
(298,800,l),
(110,800,l)
);
},
{
closed = 1;
nodes = (
(706,0,l),
(471,394,l),
(722,800,l),
(518,800,l),
(262,386,l),
(492,0,l)
);
}
);
width = 750;
},
{
anchors = (
{
name = bottom;
pos = (310,0);
},
{
name = top;
pos = (310,800);
}
);
background = {
shapes = (
{
pos = (35,0);
ref = H;
}
);
};
layerId = m005;
shapes = (
{
closed = 1;
nodes = (
(115,0,l),
(227,0,l),
(227,800,l),
(115,800,l)
);
},
{
closed = 1;
nodes = (
(543,0,l),
(323,393,l),
(551,800,l),
(431,800,l),
(199,386,l),
(414,0,l)
);
}
);
width = 600;
},
{
anchors = (
{
name = bottom;
pos = (310,0);
},
{
name = top;
pos = (310,800);
}
);
background = {
shapes = (
{
pos = (30,0);
ref = H;
}
);
};
layerId = m006;
shapes = (
{
closed = 1;
nodes = (
(70,0,l),
(254,0,l),
(254,800,l),
(70,800,l)
);
},
{
closed = 1;
nodes = (
(576,0,l),
(423,397,l),
(588,800,l),
(400,800,l),
(230,386,l),
(379,0,l)
);
}
);
width = 600;
},
{
anchors = (
{
name = bottom;
pos = (395,0);
},
{
name = top;
pos = (395,800);
}
);
background = {
shapes = (
{
pos = (60,0);
ref = H;
}
);
};
layerId = m007;
shapes = (
{
closed = 1;
nodes = (
(190,0,l),
(232,0,l),
(232,800,l),
(190,800,l)
);
},
{
closed = 1;
nodes = (
(645,0,l),
(277,388,l),
(653,800,l),
(600,800,l),
(222,386,l),
(588,0,l)
);
}
);
width = 750;
},
{
anchors = (
{
name = bottom;
pos = (310,0);
},
{
name = top;
pos = (310,800);
}
);
background = {
shapes = (
{
pos = (40,0);
ref = H;
}
);
};
layerId = m009;
shapes = (
{
closed = 1;
nodes = (
(160,0,l),
(202,0,l),
(202,800,l),
(160,800,l)
);
},
{
closed = 1;
nodes = (
(490,0,l),
(239,388,l),
(494,800,l),
(448,800,l),
(192,386,l),
(441,0,l)
);
}
);
width = 600;
},
{
associatedMasterId = m002;
background = {
shapes = (
{
pos = (40,0);
ref = H;
},
{
pos = (-61,0);
ref = X;
}
);
};
layerId = "E23DAB35-70E3-4957-AFDA-A0CFB9468DDD";
name = "12 Oct 21, 12:15";
shapes = (
{
closed = 1;
nodes = (
(110,0,l),
(298,0,l),
(298,296,l),
(318,296,l),
(332,232,l),
(508,0,l),
(726,0,l),
(420,394,l),
(742,800,l),
(535,800,l),
(332,540,l),
(318,476,l),
(298,476,l),
(298,800,l),
(110,800,l)
);
}
);
width = 750;
}
);
unicode = 75;
},
{
glyphname = L;
lastChange = "2022-09-17 15:23:54 +0000";
layers = (
{
anchors = (
{
name = bottom;
pos = (435,0);
},
{
name = center;
pos = (375,400);
},
{
name = top;
pos = (375,800);
},
{
name = topacute;
pos = (250,800);
},
{
name = topright;
pos = (410,800);
}
);
background = {
shapes = (
{
pos = (90,0);
ref = H;
}
);
};
layerId = m01;
shapes = (
{
closed = 1;
nodes = (
(680,0,l),
(680,108,l),
(304,108,l),
(304,800,l),
(190,800,l),
(190,0,l)
);
}
);
width = 750;
},
{
anchors = (
{
name = bottom;
pos = (415,0);
},
{
name = center;
pos = (375,400);
},
{
name = top;
pos = (375,800);
},
{
name = topacute;
pos = (230,800);
},
{
name = topright;
pos = (420,800);
}
);
background = {
shapes = (
{
pos = (70,0);
ref = H;
}
);
};
layerId = m002;
shapes = (
{
closed = 1;
nodes = (
(690,0,l),
(690,180,l),
(328,180,l),
(328,800,l),
(140,800,l),
(140,0,l)
);
}
);
width = 750;
},
{
anchors = (
{
name = bottom;
pos = (350,0);
},
{
name = center;
pos = (300,400);
},
{
name = top;
pos = (300,800);
},
{
name = topacute;
pos = (218,800);
},
{
name = topright;
pos = (340,800);
}
);
background = {
shapes = (
{
pos = (80,0);
ref = H;
}
);
};
layerId = m005;
shapes = (
{
closed = 1;
nodes = (
(540,0,l),
(540,106,l),
(274,106,l),
(274,800,l),
(160,800,l),
(160,0,l)
);
}
);
width = 600;
},
{
anchors = (
{
name = bottom;
pos = (335,0);
},
{
name = center;
pos = (300,400);
},
{
name = top;
pos = (300,800);
},
{
name = topacute;
pos = (202,800);
},
{
name = topright;
pos = (350,800);
}
);
background = {
shapes = (
{
pos = (70,0);
ref = H;
}
);
};
layerId = m006;
shapes = (
{
closed = 1;
nodes = (
(560,0,l),
(560,176,l),
(298,176,l),
(298,800,l),
(110,800,l),
(110,0,l)
);
}
);
width = 600;
},
{
anchors = (
{
name = bottom;
pos = (445,0);
},
{
name = center;
pos = (375,400);
},
{
name = top;
pos = (375,800);
},
{
name = topacute;
pos = (236,800);
},
{
name = topright;
pos = (400,800);
}
);
background = {
shapes = (
{
pos = (80,0);
ref = H;
}
);
};
layerId = m007;
shapes = (
{
closed = 1;
nodes = (
(680,0,l),
(680,38,l),
(252,38,l),
(252,800,l),
(210,800,l),
(210,0,l)
);
}
);
width = 750;
},
{
anchors = (
{
name = bottom;
pos = (350,0);
},
{
name = center;
pos = (300,400);
},
{
name = top;
pos = (300,800);
},
{
name = topacute;
pos = (204,800);
},
{
name = topright;
pos = (330,800);
}
);
background = {
shapes = (
{
pos = (60,0);
ref = H;
}
);
};
layerId = m009;
shapes = (
{
closed = 1;
nodes = (
(520,0,l),
(520,38,l),
(222,38,l),
(222,800,l),
(180,800,l),
(180,0,l)
);
}
);
width = 600;
}
);
unicode = 76;
},
{
glyphname = Lslash;
lastChange = "2022-09-18 18:15:55 +0000";
layers = (
{
layerId = m009;
shapes = (
{
closed = 1;
nodes = (
(390,446,l),
(390,487,l),
(90,322,l),
(90,281,l)
);
},
{
ref = L;
}
);
width = 600;
},
{
layerId = m005;
shapes = (
{
closed = 1;
nodes = (
(400,416,l),
(400,528,l),
(82,353,l),
(82,241,l)
);
},
{
ref = L;
}
);
width = 600;
},
{
layerId = m006;
shapes = (
{
closed = 1;
nodes = (
(418,422,l),
(418,582,l),
(57,383,l),
(57,223,l)
);
},
{
ref = L;
}
);
width = 600;
},
{
layerId = m007;
shapes = (
{
closed = 1;
nodes = (
(444,465,l),
(444,506,l),
(114,324,l),
(114,283,l)
);
},
{
ref = L;
}
);
width = 750;
},
{
layerId = m01;
shapes = (
{
closed = 1;
nodes = (
(484,458,l),
(484,568,l),
(84,348,l),
(84,238,l)
);
},
{
ref = L;
}
);
width = 750;
},
{
layerId = m002;
shapes = (
{
closed = 1;
nodes = (
(514,458,l),
(514,618,l),
(54,366,l),
(54,206,l)
);
},
{
ref = L;
}
);
width = 750;
}
);
unicode = 321;
},
{
glyphname = M;
lastChange = "2022-03-19 09:41:23 +0000";
layers = (
{
background = {
shapes = (
{
ref = H;
}
);
};
layerId = m01;
shapes = (
{
closed = 1;
nodes = (
(186,0,l),
(186,500,l),
(182,720,l),
(192,720,l),
(294,270,l),
(456,270,l),
(558,720,l),
(568,720,l),
(564,500,l),
(564,0,l),
(670,0,l),
(670,800,l),
(490,800,l),
(383,330,l),
(373,330,l),
(266,800,l),
(80,800,l),
(80,0,l)
);
}
);
width = 750;
},
{
background = {
shapes = (
{
ref = H;
}
);
};
layerId = m002;
shapes = (
{
closed = 1;
nodes = (
(224,0,l),
(224,320,l),
(212,630,l),
(232,630,l),
(287,250,l),
(463,250,l),
(518,630,l),
(538,630,l),
(526,320,l),
(526,0,l),
(690,0,l),
(690,800,l),
(444,800,l),
(389,424,l),
(369,424,l),
(314,800,l),
(60,800,l),
(60,0,l)
);
}
);
width = 750;
},
{
background = {
shapes = (
{
ref = H;
}
);
};
layerId = m005;
shapes = (
{
closed = 1;
nodes = (
(160,0,l),
(160,380,l),
(156,720,l),
(170,720,l),
(238,270,l),
(366,270,l),
(430,720,l),
(444,720,l),
(440,380,l),
(440,0,l),
(540,0,l),
(540,800,l),
(375,800,l),
(311,350,l),
(297,350,l),
(229,800,l),
(60,800,l),
(60,0,l)
);
}
);
width = 600;
},
{
background = {
shapes = (
{
ref = H;
}
);
};
layerId = m006;
shapes = (
{
closed = 1;
nodes = (
(180,0,l),
(180,250,l),
(163,630,l),
(183,630,l),
(225,250,l),
(375,250,l),
(417,630,l),
(437,630,l),
(420,250,l),
(420,0,l),
(570,0,l),
(570,800,l),
(356,800,l),
(314,390,l),
(294,390,l),
(252,800,l),
(30,800,l),
(30,0,l)
);
}
);
width = 600;
},
{
background = {
shapes = (
{
ref = H;
}
);
};
layerId = m007;
shapes = (
{
closed = 1;
nodes = (
(140,0,l),
(140,570,l),
(140,770,l),
(148,770,l),
(339,290,l),
(409,290,l),
(602,770,l),
(610,770,l),
(610,570,l),
(610,0,l),
(650,0,l),
(650,800,l),
(575,800,l),
(379,311,l),
(373,311,l),
(178,800,l),
(100,800,l),
(100,0,l)
);
}
);
width = 750;
},
{
background = {
shapes = (
{
ref = H;
}
);
};
layerId = m009;
shapes = (
{
closed = 1;
nodes = (
(128,0,l),
(128,670,l),
(128,766,l),
(138,766,l),
(267,290,l),
(333,290,l),
(462,766,l),
(472,766,l),
(472,670,l),
(472,0,l),
(510,0,l),
(510,800,l),
(435,800,l),
(304,316,l),
(298,316,l),
(167,800,l),
(90,800,l),
(90,0,l)
);
}
);
width = 600;
}
);
unicode = 77;
},
{
glyphname = N;
lastChange = "2022-09-25 09:30:31 +0000";
layers = (
{
anchors = (
{
name = bottom;
pos = (375,0);
},
{
name = bottomright;
pos = (658,0);
},
{
name = hookleft;
pos = (92,0);
},
{
name = top;
pos = (375,800);
}
);
background = {
shapes = (
{
ref = H;
}
);
};
layerId = m01;
shapes = (
{
closed = 1;
nodes = (
(200,0,l),
(200,550,l),
(196,730,l),
(206,730,l),
(458,0,l),
(658,0,l),
(658,800,l),
(550,800,l),
(550,250,l),
(554,70,l),
(544,70,l),
(292,800,l),
(92,800,l),
(92,0,l)
);
}
);
width = 750;
},
{
anchors = (
{
name = bottom;
pos = (375,0);
},
{
name = bottomright;
pos = (688,0);
},
{
name = hookleft;
pos = (62,0);
},
{
name = top;
pos = (375,800);
}
);
background = {
shapes = (
{
ref = H;
}
);
};
layerId = m002;
shapes = (
{
closed = 1;
nodes = (
(230,0,l),
(230,340,l),
(220,660,l),
(240,660,l),
(388,0,l),
(688,0,l),
(688,800,l),
(520,800,l),
(520,460,l),
(530,140,l),
(510,140,l),
(362,800,l),
(62,800,l),
(62,0,l)
);
}
);
width = 750;
},
{
anchors = (
{
name = bottom;
pos = (300,0);
},
{
name = bottomright;
pos = (526,0);
},
{
name = hookleft;
pos = (74,0);
},
{
name = top;
pos = (300,800);
}
);
background = {
shapes = (
{
ref = H;
}
);
};
layerId = m005;
shapes = (
{
closed = 1;
nodes = (
(172,0,l),
(172,390,l),
(168,720,l),
(182,720,l),
(344,0,l),
(526,0,l),
(526,800,l),
(428,800,l),
(428,410,l),
(432,80,l),
(418,80,l),
(256,800,l),
(74,800,l),
(74,0,l)
);
}
);
width = 600;
},
{
anchors = (
{
name = bottom;
pos = (300,0);
},
{
name = bottomright;
pos = (560,0);
},
{
name = hookleft;
pos = (40,0);
},
{
name = top;
pos = (300,800);
}
);
background = {
shapes = (
{
ref = H;
}
);
};
layerId = m006;
shapes = (
{
closed = 1;
nodes = (
(188,0,l),
(188,290,l),
(172,640,l),
(192,640,l),
(290,0,l),
(560,0,l),
(560,800,l),
(412,800,l),
(412,510,l),
(428,160,l),
(408,160,l),
(310,800,l),
(40,800,l),
(40,0,l)
);
}
);
width = 600;
},
{
anchors = (
{
name = bottom;
pos = (375,0);
},
{
name = bottomright;
pos = (628,0);
},
{
name = hookleft;
pos = (122,0);
},
{
name = top;
pos = (375,800);
}
);
background = {
shapes = (
{
ref = H;
}
);
};
layerId = m007;
shapes = (
{
closed = 1;
nodes = (
(162,0,l),
(162,676,l),
(162,770,l),
(169,770,l),
(551,0,l),
(628,0,l),
(628,800,l),
(588,800,l),
(588,127,l),
(588,30,l),
(581,30,l),
(199,800,l),
(122,800,l),
(122,0,l)
);
}
);
width = 750;
},
{
anchors = (
{
name = bottom;
pos = (300,0);
},
{
name = bottomright;
pos = (486,0);
},
{
name = hookleft;
pos = (114,0);
},
{
name = top;
pos = (300,800);
}
);
background = {
shapes = (
{
ref = H;
}
);
};
layerId = m009;
shapes = (
{
closed = 1;
nodes = (
(152,0,l),
(152,666,l),
(152,766,l),
(161,766,l),
(410,0,l),
(486,0,l),
(486,800,l),
(448,800,l),
(448,134,l),
(448,34,l),
(439,34,l),
(190,800,l),
(114,800,l),
(114,0,l)
);
}
);
width = 600;
}
);
unicode = 78;
},
{
glyphname = O;
kernLeft = RND_LEFT;
kernRight = RND_RIGHT;
lastChange = "2022-04-03 19:13:07 +0000";
layers = (
{
anchors = (
{
name = bottom;
pos = (375,0);
},
{
name = center;
pos = (375,400);
},
{
name = ogonek;
pos = (675,10);
},
{
name = tail;
pos = (375,-10);
},
{
name = top;
pos = (375,800);
},
{
name = topleft;
pos = (20,800);
},
{
name = topright;
pos = (730,800);
},
{
name = zero;
pos = (375,400);
}
);
background = {
shapes = (
{
ref = H;
}
);
};
layerId = m01;
shapes = (
{
closed = 1;
nodes = (
(583,-16,o),
(690,125,o),
(690,400,cs),
(690,675,o),
(583,816,o),
(375,816,cs),
(167,816,o),
(60,675,o),
(60,400,cs),
(60,125,o),
(167,-16,o),
(375,-16,cs)
);
},
{
closed = 1;
nodes = (
(238,92,o),
(174,191,o),
(174,400,cs),
(174,609,o),
(238,708,o),
(375,708,cs),
(512,708,o),
(576,609,o),
(576,400,cs),
(576,191,o),
(512,92,o),
(375,92,cs)
);
}
);
width = 750;
},
{
anchors = (
{
name = bottom;
pos = (375,0);
},
{
name = center;
pos = (375,400);
},
{
name = ogonek;
pos = (675,10);
},
{
name = tail;
pos = (375,-10);
},
{
name = top;
pos = (375,800);
},
{
name = topleft;
pos = (20,800);
},
{
name = topright;
pos = (730,800);
},
{
name = zero;
pos = (375,400);
}
);
background = {
shapes = (
{
ref = H;
}
);
};
layerId = m002;
shapes = (
{
closed = 1;
nodes = (
(596,-20,o),
(720,131,o),
(720,400,cs),
(720,669,o),
(596,820,o),
(375,820,cs),
(154,820,o),
(30,669,o),
(30,400,cs),
(30,131,o),
(154,-20,o),
(375,-20,cs)
);
},
{
closed = 1;
nodes = (
(271,152,o),
(218,236,o),
(218,400,cs),
(218,564,o),
(271,648,o),
(375,648,cs),
(479,648,o),
(532,564,o),
(532,400,cs),
(532,236,o),
(479,152,o),
(375,152,cs)
);
}
);
width = 750;
},
{
anchors = (
{
name = bottom;
pos = (300,0);
},
{
name = center;
pos = (300,400);
},
{
name = ogonek;
pos = (540,10);
},
{
name = tail;
pos = (300,-10);
},
{
name = top;
pos = (300,800);
},
{
name = topleft;
pos = (20,800);
},
{
name = topright;
pos = (580,800);
},
{
name = zero;
pos = (300,400);
}
);
background = {
shapes = (
{
ref = H;
}
);
};
layerId = m005;
shapes = (
{
closed = 1;
nodes = (
(467,-16,o),
(545,117,o),
(545,400,cs),
(545,683,o),
(467,816,o),
(300,816,cs),
(133,816,o),
(55,683,o),
(55,400,cs),
(55,117,o),
(133,-16,o),
(300,-16,cs)
);
},
{
closed = 1;
nodes = (
(208,90,o),
(169,183,o),
(169,400,cs),
(169,617,o),
(208,710,o),
(300,710,cs),
(392,710,o),
(431,617,o),
(431,400,cs),
(431,183,o),
(392,90,o),
(300,90,cs)
);
}
);
width = 600;
},
{
anchors = (
{
name = bottom;
pos = (300,0);
},
{
name = center;
pos = (300,400);
},
{
name = ogonek;
pos = (540,10);
},
{
name = tail;
pos = (300,-10);
},
{
name = top;
pos = (300,800);
},
{
name = topleft;
pos = (20,800);
},
{
name = topright;
pos = (580,800);
},
{
name = zero;
pos = (300,400);
}
);
background = {
shapes = (
{
ref = H;
}
);
};
layerId = m006;
shapes = (
{
closed = 1;
nodes = (
(490,-20,o),
(580,114,o),
(580,400,cs),
(580,686,o),
(490,820,o),
(300,820,cs),
(110,820,o),
(20,686,o),
(20,400,cs),
(20,114,o),
(110,-20,o),
(300,-20,cs)
);
},
{
closed = 1;
nodes = (
(236,148,o),
(208,224,o),
(208,400,cs),
(208,576,o),
(236,652,o),
(300,652,cs),
(364,652,o),
(392,576,o),
(392,400,cs),
(392,224,o),
(364,148,o),
(300,148,cs)
);
}
);
width = 600;
},
{
anchors = (
{
name = bottom;
pos = (375,0);
},
{
name = center;
pos = (375,400);
},
{
name = ogonek;
pos = (675,10);
},
{
name = tail;
pos = (375,-10);
},
{
name = top;
pos = (375,800);
},
{
name = topleft;
pos = (20,800);
},
{
name = topright;
pos = (730,800);
},
{
name = zero;
pos = (375,400);
}
);
background = {
shapes = (
{
ref = H;
}
);
};
layerId = m007;
shapes = (
{
closed = 1;
nodes = (
(563,-12,o),
(660,128,o),
(660,400,cs),
(660,672,o),
(563,812,o),
(375,812,cs),
(187,812,o),
(90,672,o),
(90,400,cs),
(90,128,o),
(187,-12,o),
(375,-12,cs)
);
},
{
closed = 1;
nodes = (
(215,26,o),
(132,153,o),
(132,400,cs),
(132,647,o),
(215,774,o),
(375,774,cs),
(535,774,o),
(618,647,o),
(618,400,cs),
(618,153,o),
(535,26,o),
(375,26,cs)
);
}
);
width = 750;
},
{
anchors = (
{
name = bottom;
pos = (300,0);
},
{
name = center;
pos = (300,400);
},
{
name = ogonek;
pos = (540,10);
},
{
name = tail;
pos = (300,-10);
},
{
name = top;
pos = (300,800);
},
{
name = topleft;
pos = (20,800);
},
{
name = topright;
pos = (580,800);
},
{
name = zero;
pos = (300,400);
}
);
background = {
shapes = (
{
ref = H;
}
);
};
layerId = m009;
shapes = (
{
closed = 1;
nodes = (
(443,-12,o),
(510,120,o),
(510,400,cs),
(510,680,o),
(443,812,o),
(300,812,cs),
(157,812,o),
(90,680,o),
(90,400,cs),
(90,120,o),
(157,-12,o),
(300,-12,cs)
);
},
{
closed = 1;
nodes = (
(186,26,o),
(132,146,o),
(132,400,cs),
(132,654,o),
(186,774,o),
(300,774,cs),
(414,774,o),
(468,654,o),
(468,400,cs),
(468,146,o),
(414,26,o),
(300,26,cs)
);
}
);
width = 600;
}
);
unicode = 79;
},
{
glyphname = OE;
lastChange = "2022-04-19 19:16:18 +0000";
layers = (
{
background = {
shapes = (
{
ref = M;
}
);
};
layerId = m009;
shapes = (
{
closed = 1;
nodes = (
(280,-12,o),
(321,21,o),
(336,80,c),
(348,80,l),
(348,0,l),
(580,0,l),
(580,38,l),
(390,38,l),
(390,385,l),
(560,385,l),
(560,421,l),
(390,421,l),
(390,762,l),
(590,762,l),
(590,800,l),
(348,800,l),
(348,720,l),
(336,720,l),
(321,779,o),
(280,812,o),
(220,812,cs),
(97,812,o),
(50,699,o),
(50,400,cs),
(50,101,o),
(97,-12,o),
(220,-12,cs)
);
},
{
closed = 1;
nodes = (
(127,26,o),
(92,129,o),
(92,400,cs),
(92,671,o),
(127,774,o),
(221,774,cs),
(315,774,o),
(350,671,o),
(350,400,cs),
(350,129,o),
(315,26,o),
(221,26,cs)
);
}
);
width = 600;
},
{
background = {
shapes = (
{
ref = M;
}
);
};
layerId = m005;
shapes = (
{
closed = 1;
nodes = (
(249,-16,o),
(288,7,o),
(306,48,c),
(326,48,l),
(326,0,l),
(580,0,l),
(580,106,l),
(438,106,l),
(438,353,l),
(560,353,l),
(560,453,l),
(438,453,l),
(438,694,l),
(590,694,l),
(590,800,l),
(326,800,l),
(326,752,l),
(306,752,l),
(288,793,o),
(249,816,o),
(198,816,cs),
(75,816,o),
(28,702,o),
(28,400,cs),
(28,98,o),
(75,-16,o),
(198,-16,cs)
);
},
{
closed = 1;
nodes = (
(163,90,o),
(142,162,o),
(142,400,cs),
(142,638,o),
(163,710,o),
(234,710,cs),
(305,710,o),
(326,638,o),
(326,400,cs),
(326,162,o),
(305,90,o),
(234,90,cs)
);
}
);
width = 600;
},
{
background = {
shapes = (
{
ref = M;
}
);
};
layerId = m006;
shapes = (
{
closed = 1;
nodes = (
(229,-20,o),
(270,12,o),
(282,60,c),
(302,60,l),
(302,0,l),
(578,0,l),
(578,160,l),
(464,160,l),
(464,322,l),
(558,322,l),
(558,478,l),
(464,478,l),
(464,640,l),
(588,640,l),
(588,800,l),
(302,800,l),
(302,740,l),
(282,740,l),
(270,788,o),
(229,820,o),
(180,820,cs),
(57,820,o),
(20,722,o),
(20,400,cs),
(20,78,o),
(57,-20,o),
(180,-20,cs)
);
},
{
closed = 1;
nodes = (
(205,142,o),
(198,181,o),
(198,400,cs),
(198,619,o),
(205,658,o),
(242,658,cs),
(279,658,o),
(286,619,o),
(286,400,cs),
(286,181,o),
(279,142,o),
(242,142,cs)
);
}
);
width = 600;
},
{
background = {
shapes = (
{
ref = M;
}
);
};
layerId = m007;
shapes = (
{
closed = 1;
nodes = (
(355,-12,o),
(412,28,o),
(436,100,c),
(448,100,l),
(448,0,l),
(730,0,l),
(730,38,l),
(490,38,l),
(490,385,l),
(700,385,l),
(700,421,l),
(490,421,l),
(490,762,l),
(740,762,l),
(740,800,l),
(448,800,l),
(448,700,l),
(436,700,l),
(412,772,o),
(355,812,o),
(275,812,cs),
(119,812,o),
(60,699,o),
(60,400,cs),
(60,101,o),
(119,-12,o),
(275,-12,cs)
);
},
{
closed = 1;
nodes = (
(150,26,o),
(102,129,o),
(102,400,cs),
(102,671,o),
(150,774,o),
(276,774,cs),
(402,774,o),
(450,671,o),
(450,400,cs),
(450,129,o),
(402,26,o),
(276,26,cs)
);
}
);
width = 750;
},
{
background = {
shapes = (
{
ref = M;
}
);
};
layerId = m01;
shapes = (
{
closed = 1;
nodes = (
(307,-16,o),
(348,4,o),
(376,48,c),
(396,48,l),
(396,0,l),
(730,0,l),
(730,108,l),
(510,108,l),
(510,353,l),
(700,353,l),
(700,453,l),
(510,453,l),
(510,692,l),
(740,692,l),
(740,800,l),
(396,800,l),
(396,752,l),
(376,752,l),
(348,796,o),
(307,816,o),
(245,816,cs),
(103,816,o),
(40,702,o),
(40,400,cs),
(40,98,o),
(103,-16,o),
(245,-16,cs)
);
},
{
closed = 1;
nodes = (
(183,92,o),
(154,164,o),
(154,400,cs),
(154,636,o),
(183,708,o),
(277,708,cs),
(371,708,o),
(400,636,o),
(400,400,cs),
(400,164,o),
(371,92,o),
(277,92,cs)
);
}
);
width = 750;
},
{
background = {
shapes = (
{
ref = M;
}
);
};
layerId = m002;
shapes = (
{
closed = 1;
nodes = (
(290,-20,o),
(340,16,o),
(356,80,c),
(376,80,l),
(376,0,l),
(730,0,l),
(730,160,l),
(564,160,l),
(564,318,l),
(700,318,l),
(700,474,l),
(564,474,l),
(564,640,l),
(740,640,l),
(740,800,l),
(376,800,l),
(376,720,l),
(356,720,l),
(340,784,o),
(290,820,o),
(222,820,cs),
(80,820,o),
(26,705,o),
(26,400,cs),
(26,95,o),
(80,-20,o),
(222,-20,cs)
);
},
{
closed = 1;
nodes = (
(233,158,o),
(214,214,o),
(214,400,cs),
(214,586,o),
(233,642,o),
(297,642,cs),
(361,642,o),
(380,586,o),
(380,400,cs),
(380,214,o),
(361,158,o),
(297,158,cs)
);
}
);
width = 750;
}
);
unicode = 338;
},
{
glyphname = P;
kernRight = F_RIGHT;
lastChange = "2022-10-29 09:27:03 +0000";
layers = (
{
background = {
shapes = (
{
pos = (40,0);
ref = H;
}
);
};
layerId = m01;
shapes = (
{
closed = 1;
nodes = (
(254,0,l),
(254,330,l),
(448,330,ls),
(602,330,o),
(702,422,o),
(702,564,cs),
(702,708,o),
(602,800,o),
(448,800,cs),
(140,800,l),
(140,0,l)
);
},
{
closed = 1;
nodes = (
(254,692,l),
(452,692,ls),
(536,692,o),
(588,643,o),
(588,563,cs),
(588,483,o),
(536,434,o),
(452,434,cs),
(254,434,l)
);
}
);
width = 750;
},
{
background = {
shapes = (
{
pos = (20,0);
ref = H;
}
);
};
layerId = m002;
shapes = (
{
closed = 1;
nodes = (
(278,0,l),
(278,298,l),
(434,298,ls),
(606,298,o),
(718,393,o),
(718,544,cs),
(718,701,o),
(606,800,o),
(434,800,cs),
(90,800,l),
(90,0,l)
);
},
{
closed = 1;
nodes = (
(278,620,l),
(434,620,ls),
(495,620,o),
(530,593,o),
(530,544,cs),
(530,495,o),
(495,468,o),
(434,468,cs),
(278,468,l)
);
}
);
width = 750;
},
{
background = {
shapes = (
{
pos = (30,0);
ref = H;
}
);
};
layerId = m005;
shapes = (
{
closed = 1;
nodes = (
(224,0,l),
(224,332,l),
(316,332,ls),
(464,332,o),
(558,422,o),
(558,566,cs),
(558,709,o),
(464,800,o),
(316,800,cs),
(110,800,l),
(110,0,l)
);
},
{
closed = 1;
nodes = (
(224,694,l),
(320,694,ls),
(397,694,o),
(444,644,o),
(444,563,cs),
(444,482,o),
(397,432,o),
(320,432,cs),
(224,432,l)
);
}
);
width = 600;
},
{
background = {
shapes = (
{
pos = (10,0);
ref = H;
}
);
};
layerId = m006;
shapes = (
{
closed = 1;
nodes = (
(238,0,l),
(238,298,l),
(306,298,ls),
(474,298,o),
(582,394,o),
(582,544,cs),
(582,700,o),
(474,800,o),
(306,800,cs),
(50,800,l),
(50,0,l)
);
},
{
closed = 1;
nodes = (
(238,628,l),
(306,628,ls),
(361,628,o),
(394,598,o),
(394,546,cs),
(394,494,o),
(361,464,o),
(306,464,cs),
(238,464,l)
);
}
);
width = 600;
},
{
background = {
shapes = (
{
pos = (40,0);
ref = H;
}
);
};
layerId = m007;
shapes = (
{
closed = 1;
nodes = (
(212,0,l),
(212,358,l),
(440,358,ls),
(595,358,o),
(682,438,o),
(682,579,cs),
(682,720,o),
(595,800,o),
(440,800,cs),
(170,800,l),
(170,0,l)
);
},
{
closed = 1;
nodes = (
(212,762,l),
(444,762,ls),
(569,762,o),
(640,696,o),
(640,578,cs),
(640,460,o),
(569,394,o),
(444,394,cs),
(212,394,l)
);
}
);
width = 750;
},
{
background = {
shapes = (
{
ref = H;
}
);
};
layerId = m009;
shapes = (
{
closed = 1;
nodes = (
(196,0,l),
(196,358,l),
(310,358,ls),
(448,358,o),
(532,442,o),
(532,579,cs),
(532,716,o),
(448,800,o),
(310,800,cs),
(154,800,l),
(154,0,l)
);
},
{
closed = 1;
nodes = (
(196,762,l),
(314,762,ls),
(423,762,o),
(490,692,o),
(490,578,cs),
(490,464,o),
(423,394,o),
(314,394,cs),
(196,394,l)
);
}
);
width = 600;
}
);
unicode = 80;
},
{
glyphname = Thorn;
lastChange = "2022-07-16 16:26:28 +0000";
layers = (
{
layerId = m009;
shapes = (
{
closed = 1;
nodes = (
(196,0,l),
(196,189,l),
(310,189,ls),
(448,189,o),
(532,273,o),
(532,410,cs),
(532,547,o),
(448,631,o),
(310,631,cs),
(196,631,l),
(196,800,l),
(154,800,l),
(154,0,l)
);
},
{
closed = 1;
nodes = (
(196,593,l),
(314,593,ls),
(423,593,o),
(490,523,o),
(490,409,cs),
(490,295,o),
(423,225,o),
(314,225,cs),
(196,225,l)
);
}
);
width = 600;
},
{
layerId = m005;
shapes = (
{
closed = 1;
nodes = (
(224,0,l),
(224,176,l),
(316,176,ls),
(464,176,o),
(558,266,o),
(558,408,cs),
(558,553,o),
(464,644,o),
(316,644,cs),
(224,644,l),
(224,800,l),
(110,800,l),
(110,0,l)
);
},
{
closed = 1;
nodes = (
(224,538,l),
(320,538,ls),
(397,538,o),
(444,488,o),
(444,407,cs),
(444,326,o),
(397,276,o),
(320,276,cs),
(224,276,l)
);
}
);
width = 600;
},
{
layerId = m006;
shapes = (
{
closed = 1;
nodes = (
(238,0,l),
(238,159,l),
(306,159,ls),
(474,159,o),
(582,255,o),
(582,405,cs),
(582,561,o),
(474,661,o),
(306,661,cs),
(238,661,l),
(238,800,l),
(50,800,l),
(50,0,l)
);
},
{
closed = 1;
nodes = (
(238,489,l),
(306,489,ls),
(361,489,o),
(394,459,o),
(394,407,cs),
(394,355,o),
(361,325,o),
(306,325,cs),
(238,325,l)
);
}
);
width = 600;
},
{
layerId = m007;
shapes = (
{
closed = 1;
nodes = (
(212,0,l),
(212,189,l),
(440,189,ls),
(595,189,o),
(682,269,o),
(682,410,cs),
(682,551,o),
(595,631,o),
(440,631,cs),
(212,631,l),
(212,800,l),
(170,800,l),
(170,0,l)
);
},
{
closed = 1;
nodes = (
(212,593,l),
(444,593,ls),
(569,593,o),
(640,527,o),
(640,409,cs),
(640,291,o),
(569,225,o),
(444,225,cs),
(212,225,l)
);
}
);
width = 750;
},
{
layerId = m01;
shapes = (
{
closed = 1;
nodes = (
(254,0,l),
(254,175,l),
(448,175,ls),
(602,175,o),
(702,267,o),
(702,409,cs),
(702,553,o),
(602,645,o),
(448,645,cs),
(254,645,l),
(254,800,l),
(140,800,l),
(140,0,l)
);
},
{
closed = 1;
nodes = (
(254,537,l),
(452,537,ls),
(536,537,o),
(588,488,o),
(588,408,cs),
(588,328,o),
(536,279,o),
(452,279,cs),
(254,279,l)
);
}
);
width = 750;
},
{
layerId = m002;
shapes = (
{
closed = 1;
nodes = (
(278,0,l),
(278,159,l),
(434,159,ls),
(606,159,o),
(718,254,o),
(718,405,cs),
(718,562,o),
(606,661,o),
(434,661,cs),
(278,661,l),
(278,800,l),
(90,800,l),
(90,0,l)
);
},
{
closed = 1;
nodes = (
(278,481,l),
(434,481,ls),
(495,481,o),
(530,454,o),
(530,405,cs),
(530,356,o),
(495,329,o),
(434,329,cs),
(278,329,l)
);
}
);
width = 750;
}
);
unicode = 222;
},
{
glyphname = R;
lastChange = "2022-09-17 15:24:36 +0000";
layers = (
{
anchors = (
{
name = bottom;
pos = (395,0);
},
{
name = top;
pos = (375,800);
}
);
background = {
shapes = (
{
pos = (-16,0);
ref = P;
}
);
};
layerId = m01;
shapes = (
{
closed = 1;
nodes = (
(238,0,l),
(238,345,l),
(432,345,ls),
(583,345,o),
(686,436,o),
(686,569,cs),
(686,711,o),
(586,800,o),
(432,800,cs),
(124,800,l),
(124,0,l)
);
},
{
closed = 1;
nodes = (
(706,0,l),
(466,365,l),
(340,365,l),
(574,0,l)
);
},
{
closed = 1;
nodes = (
(238,692,l),
(434,692,ls),
(516,692,o),
(572,642,o),
(572,568,cs),
(572,494,o),
(516,444,o),
(434,444,cs),
(238,444,l)
);
}
);
width = 750;
},
{
anchors = (
{
name = bottom;
pos = (395,0);
},
{
name = top;
pos = (375,800);
}
);
background = {
shapes = (
{
ref = P;
}
);
};
layerId = m002;
shapes = (
{
closed = 1;
nodes = (
(268,0,l),
(268,308,l),
(436,308,ls),
(594,308,o),
(708,407,o),
(708,544,cs),
(708,698,o),
(599,800,o),
(436,800,cs),
(80,800,l),
(80,0,l)
);
},
{
closed = 1;
nodes = (
(728,0,l),
(500,338,l),
(294,338,l),
(511,0,l)
);
},
{
closed = 1;
nodes = (
(268,620,l),
(426,620,ls),
(484,620,o),
(520,591,o),
(520,544,cs),
(520,497,o),
(484,468,o),
(426,468,cs),
(268,468,l)
);
}
);
width = 750;
},
{
anchors = (
{
name = bottom;
pos = (320,0);
},
{
name = top;
pos = (300,800);
}
);
background = {
shapes = (
{
ref = P;
}
);
};
layerId = m005;
shapes = (
{
closed = 1;
nodes = (
(212,0,l),
(212,345,l),
(294,345,ls),
(445,345,o),
(548,436,o),
(548,569,cs),
(548,712,o),
(448,800,o),
(294,800,cs),
(98,800,l),
(98,0,l)
);
},
{
closed = 1;
nodes = (
(568,0,l),
(378,365,l),
(262,365,l),
(443,0,l)
);
},
{
closed = 1;
nodes = (
(212,694,l),
(296,694,ls),
(382,694,o),
(434,646,o),
(434,569,cs),
(434,492,o),
(382,444,o),
(296,444,cs),
(212,444,l)
);
}
);
width = 600;
},
{
anchors = (
{
name = bottom;
pos = (310,0);
},
{
name = top;
pos = (300,800);
}
);
background = {
shapes = (
{
ref = P;
}
);
};
layerId = m006;
shapes = (
{
closed = 1;
nodes = (
(230,0,l),
(230,308,l),
(298,308,ls),
(464,308,o),
(574,398,o),
(574,544,cs),
(574,702,o),
(464,800,o),
(298,800,cs),
(42,800,l),
(42,0,l)
);
},
{
closed = 1;
nodes = (
(592,0,l),
(435,338,l),
(247,338,l),
(394,0,l)
);
},
{
closed = 1;
nodes = (
(230,628,l),
(298,628,ls),
(353,628,o),
(386,596,o),
(386,542,cs),
(386,488,o),
(353,456,o),
(298,456,cs),
(230,456,l)
);
}
);
width = 600;
},
{
anchors = (
{
name = bottom;
pos = (395,0);
},
{
name = top;
pos = (375,800);
}
);
background = {
shapes = (
{
ref = P;
}
);
};
layerId = m007;
shapes = (
{
closed = 1;
nodes = (
(192,0,l),
(192,360,l),
(410,360,ls),
(566,360,o),
(662,443,o),
(662,579,cs),
(662,716,o),
(566,800,o),
(410,800,cs),
(150,800,l),
(150,0,l)
);
},
{
closed = 1;
nodes = (
(672,0,l),
(415,370,l),
(367,370,l),
(621,0,l)
);
},
{
closed = 1;
nodes = (
(192,762,l),
(416,762,ls),
(542,762,o),
(620,692,o),
(620,579,cs),
(620,466,o),
(542,396,o),
(416,396,cs),
(192,396,l)
);
}
);
width = 750;
},
{
anchors = (
{
name = bottom;
pos = (310,0);
},
{
name = top;
pos = (300,800);
}
);
background = {
shapes = (
{
pos = (-16,0);
ref = P;
}
);
};
layerId = m009;
shapes = (
{
closed = 1;
nodes = (
(180,0,l),
(180,360,l),
(274,360,ls),
(429,360,o),
(516,439,o),
(516,579,cs),
(516,720,o),
(429,800,o),
(274,800,cs),
(138,800,l),
(138,0,l)
);
},
{
closed = 1;
nodes = (
(522,0,l),
(323,370,l),
(278,370,l),
(475,0,l)
);
},
{
closed = 1;
nodes = (
(180,762,l),
(280,762,ls),
(404,762,o),
(474,696,o),
(474,579,cs),
(474,462,o),
(404,396,o),
(280,396,cs),
(180,396,l)
);
}
);
width = 600;
}
);
unicode = 82;
},
{
glyphname = S;
lastChange = "2022-09-01 17:37:27 +0000";
layers = (
{
anchors = (
{
name = bottom;
pos = (378,0);
},
{
name = currencystroke;
pos = (384,400);
},
{
name = top;
pos = (388,800);
}
);
background = {
shapes = (
{
ref = C;
}
);
};
layerId = m01;
shapes = (
{
closed = 1;
nodes = (
(88,204,l),
(98,68,o),
(212,-16,o),
(382,-16,cs),
(550,-16,o),
(662,80,o),
(662,224,cs),
(662,356,o),
(586,432,o),
(436,450,cs),
(334,462,ls),
(252,472,o),
(210,510,o),
(210,574,cs),
(210,657,o),
(277,708,o),
(386,708,cs),
(483,708,o),
(550,660,o),
(572,576,c),
(682,576,l),
(672,725,o),
(556,816,o),
(386,816,cs),
(213,816,o),
(98,719,o),
(98,574,cs),
(98,442,o),
(174,366,o),
(324,348,cs),
(426,336,ls),
(508,326,o),
(550,288,o),
(550,224,cs),
(550,142,o),
(486,92,o),
(382,92,cs),
(287,92,o),
(222,132,o),
(200,204,c)
);
}
);
width = 750;
},
{
anchors = (
{
name = bottom;
pos = (384,0);
},
{
name = currencystroke;
pos = (390,400);
},
{
name = top;
pos = (394,800);
}
);
background = {
shapes = (
{
ref = C;
}
);
};
layerId = m002;
shapes = (
{
closed = 1;
nodes = (
(66,224,l),
(78,68,o),
(194,-20,o),
(387,-20,cs),
(577,-20,o),
(694,78,o),
(694,238,cs),
(694,375,o),
(606,468,o),
(458,485,cs),
(338,499,ls),
(289,505,o),
(260,530,o),
(260,566,cs),
(260,621,o),
(306,652,o),
(387,652,cs),
(465,652,o),
(514,619,o),
(530,556,c),
(710,556,l),
(698,725,o),
(582,820,o),
(387,820,cs),
(194,820,o),
(76,721,o),
(76,560,cs),
(76,423,o),
(164,330,o),
(312,313,cs),
(432,299,ls),
(481,293,o),
(510,268,o),
(510,232,cs),
(510,178,o),
(466,148,o),
(387,148,cs),
(315,148,o),
(270,174,o),
(254,224,c)
);
}
);
width = 750;
},
{
anchors = (
{
name = bottom;
pos = (307,0);
},
{
name = currencystroke;
pos = (311,400);
},
{
name = top;
pos = (317,800);
}
);
background = {
shapes = (
{
ref = C;
}
);
};
layerId = m005;
shapes = (
{
closed = 1;
nodes = (
(80,204,l),
(84,68,o),
(168,-16,o),
(308,-16,cs),
(444,-16,o),
(532,74,o),
(532,220,cs),
(532,338,o),
(471,417,o),
(352,449,cs),
(292,465,ls),
(237,480,o),
(200,525,o),
(200,580,cs),
(200,663,o),
(245,710,o),
(318,710,cs),
(384,710,o),
(422,664,o),
(444,576,c),
(546,576,l),
(540,725,o),
(456,816,o),
(318,816,cs),
(178,816,o),
(88,726,o),
(88,580,cs),
(88,460,o),
(149,381,o),
(268,349,cs),
(328,333,ls),
(383,318,o),
(420,274,o),
(420,220,cs),
(420,137,o),
(377,90,o),
(308,90,cs),
(241,90,o),
(203,129,o),
(183,204,c)
);
}
);
width = 600;
},
{
anchors = (
{
name = bottom;
pos = (302,0);
},
{
name = currencystroke;
pos = (304,400);
},
{
name = top;
pos = (312,800);
}
);
background = {
shapes = (
{
ref = C;
}
);
};
layerId = m006;
shapes = (
{
closed = 1;
nodes = (
(42,224,l),
(50,71,o),
(145,-20,o),
(298,-20,cs),
(454,-20,o),
(550,77,o),
(550,234,cs),
(550,366,o),
(484,449,o),
(354,482,cs),
(282,500,ls),
(250,508,o),
(228,538,o),
(228,574,cs),
(228,622,o),
(259,654,o),
(304,654,cs),
(346,654,o),
(377,621,o),
(392,556,c),
(560,556,l),
(556,722,o),
(460,820,o),
(302,820,cs),
(143,820,o),
(46,723,o),
(46,566,cs),
(46,433,o),
(112,349,o),
(242,316,cs),
(314,298,ls),
(346,290,o),
(368,261,o),
(368,226,cs),
(368,178,o),
(340,146,o),
(300,146,cs),
(259,146,o),
(230,172,o),
(216,224,c)
);
}
);
width = 600;
},
{
anchors = (
{
name = bottom;
pos = (382,0);
},
{
name = currencystroke;
pos = (386,400);
},
{
name = top;
pos = (392,800);
}
);
background = {
shapes = (
{
ref = C;
}
);
};
layerId = m007;
shapes = (
{
closed = 1;
nodes = (
(122,204,l),
(133,61,o),
(224,-12,o),
(391,-12,cs),
(542,-12,o),
(634,72,o),
(634,208,cs),
(634,328,o),
(567,399,o),
(438,414,cs),
(336,426,ls),
(224,439,o),
(172,491,o),
(172,590,cs),
(172,704,o),
(253,774,o),
(385,774,cs),
(523,774,o),
(599,707,o),
(609,576,c),
(650,576,l),
(639,732,o),
(549,812,o),
(385,812,cs),
(227,812,o),
(130,728,o),
(130,590,cs),
(130,470,o),
(197,399,o),
(326,384,cs),
(428,372,ls),
(540,359,o),
(592,307,o),
(592,208,cs),
(592,95,o),
(516,26,o),
(391,26,cs),
(251,26,o),
(173,87,o),
(163,204,c)
);
}
);
width = 750;
},
{
anchors = (
{
name = bottom;
pos = (308,0);
},
{
name = currencystroke;
pos = (312,400);
},
{
name = top;
pos = (318,800);
}
);
background = {
shapes = (
{
ref = C;
}
);
};
layerId = m009;
shapes = (
{
closed = 1;
nodes = (
(117,204,l),
(126,57,o),
(190,-12,o),
(318,-12,cs),
(428,-12,o),
(496,72,o),
(496,208,cs),
(496,321,o),
(438,394,o),
(334,416,cs),
(296,424,ls),
(210,442,o),
(166,498,o),
(166,590,cs),
(166,704,o),
(223,774,o),
(316,774,cs),
(413,774,o),
(462,711,o),
(470,576,c),
(510,576,l),
(502,736,o),
(440,812,o),
(316,812,cs),
(197,812,o),
(124,728,o),
(124,590,cs),
(124,477,o),
(182,404,o),
(286,382,cs),
(324,374,ls),
(410,356,o),
(454,300,o),
(454,208,cs),
(454,95,o),
(402,26,o),
(318,26,cs),
(217,26,o),
(166,83,o),
(158,204,c)
);
}
);
width = 600;
}
);
unicode = 83;
},
{
glyphname = Germandbls;
lastChange = "2022-06-15 06:57:40 +0000";
layers = (
{
background = {
shapes = (
{
ref = B;
}
);
};
layerId = m009;
shapes = (
{
closed = 1;
nodes = (
(162,0,l),
(162,592,ls),
(162,701,o),
(212,762,o),
(300,762,cs),
(459,762,l),
(450,776,l),
(279,440,l),
(279,406,l),
(335,406,ls),
(436,406,o),
(498,336,o),
(498,222,cs),
(498,108,o),
(436,38,o),
(335,38,cs),
(279,38,l),
(279,0,l),
(339,0,ls),
(464,0,o),
(540,84,o),
(540,222,cs),
(540,357,o),
(464,440,o),
(339,440,cs),
(306,440,l),
(313,423,l),
(486,762,l),
(486,800,l),
(304,800,ls),
(186,800,o),
(120,724,o),
(120,588,cs),
(120,0,l)
);
}
);
width = 600;
},
{
background = {
shapes = (
{
ref = B;
}
);
};
layerId = m005;
shapes = (
{
closed = 1;
nodes = (
(199,0,l),
(199,552,ls),
(199,646,o),
(237,694,o),
(312,694,cs),
(424,694,l),
(424,729,l),
(279,472,l),
(279,372,l),
(313,372,ls),
(399,372,o),
(451,322,o),
(451,240,cs),
(451,157,o),
(399,106,o),
(313,106,cs),
(279,106,l),
(279,0,l),
(317,0,ls),
(471,0,o),
(565,91,o),
(565,240,cs),
(565,384,o),
(471,472,o),
(317,472,cs),
(297,472,l),
(366,431,l),
(515,694,l),
(515,800,l),
(316,800,ls),
(164,800,o),
(85,714,o),
(85,548,cs),
(85,0,l)
);
}
);
width = 600;
},
{
background = {
shapes = (
{
ref = B;
}
);
};
layerId = m006;
shapes = (
{
closed = 1;
nodes = (
(232,0,l),
(232,522,ls),
(232,595,o),
(260,632,o),
(314,632,cs),
(406,632,l),
(406,688,l),
(279,494,l),
(279,346,l),
(308,346,ls),
(370,346,o),
(408,312,o),
(408,257,cs),
(408,202,o),
(370,168,o),
(308,168,cs),
(279,168,l),
(279,0,l),
(312,0,ls),
(488,0,o),
(596,94,o),
(596,247,cs),
(596,400,o),
(488,494,o),
(312,494,cs),
(299,494,l),
(410,435,l),
(539,632,l),
(539,800,l),
(318,800,ls),
(137,800,o),
(44,704,o),
(44,518,cs),
(44,0,l)
);
}
);
width = 600;
},
{
background = {
shapes = (
{
ref = B;
}
);
};
layerId = m007;
shapes = (
{
closed = 1;
nodes = (
(182,0,l),
(182,552,ls),
(182,686,o),
(253,762,o),
(378,762,cs),
(608,762,l),
(599,776,l),
(358,440,l),
(358,406,l),
(412,406,ls),
(558,406,o),
(648,336,o),
(648,222,cs),
(648,108,o),
(558,38,o),
(412,38,cs),
(358,38,l),
(358,0,l),
(416,0,ls),
(586,0,o),
(690,84,o),
(690,222,cs),
(690,357,o),
(586,440,o),
(416,440,cs),
(385,440,l),
(392,422,l),
(636,762,l),
(636,800,l),
(382,800,ls),
(227,800,o),
(140,709,o),
(140,548,cs),
(140,0,l)
);
}
);
width = 750;
},
{
background = {
shapes = (
{
ref = B;
}
);
};
layerId = m01;
shapes = (
{
closed = 1;
nodes = (
(214,0,l),
(214,532,ls),
(214,634,o),
(272,692,o),
(374,692,cs),
(555,692,l),
(555,729,l),
(334,472,l),
(334,372,l),
(428,372,ls),
(526,372,o),
(586,322,o),
(586,240,cs),
(586,158,o),
(526,108,o),
(428,108,cs),
(334,108,l),
(334,0,l),
(432,0,ls),
(598,0,o),
(700,91,o),
(700,240,cs),
(700,384,o),
(598,472,o),
(432,472,cs),
(401,472,l),
(425,431,l),
(650,692,l),
(650,800,l),
(378,800,ls),
(200,800,o),
(100,702,o),
(100,528,cs),
(100,0,l)
);
}
);
width = 750;
},
{
background = {
shapes = (
{
ref = B;
}
);
};
layerId = m002;
shapes = (
{
closed = 1;
nodes = (
(258,0,l),
(258,502,ls),
(258,585,o),
(299,628,o),
(379,628,cs),
(530,628,l),
(530,688,l),
(358,496,l),
(358,344,l),
(402,344,ls),
(479,344,o),
(532,313,o),
(532,258,cs),
(532,203,o),
(479,172,o),
(402,172,cs),
(358,172,l),
(358,0,l),
(426,0,ls),
(608,0,o),
(720,83,o),
(720,248,cs),
(720,400,o),
(608,496,o),
(426,496,cs),
(405,496,l),
(498,435,l),
(668,628,l),
(668,800,l),
(383,800,ls),
(176,800,o),
(70,697,o),
(70,498,cs),
(70,0,l)
);
}
);
width = 750;
}
);
unicode = 7838;
},
{
glyphname = T;
kernLeft = T_LEFT;
kernRight = T_RIGHT;
lastChange = "2022-09-18 19:57:43 +0000";
layers = (
{
anchors = (
{
name = bottom;
pos = (375,0);
},
{
name = center;
pos = (375,400);
},
{
name = tcedilla;
pos = (368,0);
},
{
name = top;
pos = (375,800);
}
);
background = {
shapes = (
{
ref = H;
}
);
};
layerId = m01;
shapes = (
{
closed = 1;
nodes = (
(432,0,l),
(432,692,l),
(690,692,l),
(690,800,l),
(60,800,l),
(60,692,l),
(318,692,l),
(318,0,l)
);
}
);
width = 750;
},
{
anchors = (
{
name = bottom;
pos = (375,0);
},
{
name = center;
pos = (375,400);
},
{
name = tcedilla;
pos = (374,0);
},
{
name = top;
pos = (375,800);
}
);
background = {
shapes = (
{
ref = H;
}
);
};
layerId = m002;
shapes = (
{
closed = 1;
nodes = (
(469,0,l),
(469,620,l),
(712,620,l),
(712,800,l),
(38,800,l),
(38,620,l),
(281,620,l),
(281,0,l)
);
}
);
width = 750;
},
{
anchors = (
{
name = bottom;
pos = (300,0);
},
{
name = center;
pos = (300,400);
},
{
name = tcedilla;
pos = (296,0);
},
{
name = top;
pos = (300,800);
}
);
background = {
shapes = (
{
ref = H;
}
);
};
layerId = m005;
shapes = (
{
closed = 1;
nodes = (
(357,0,l),
(357,694,l),
(550,694,l),
(550,800,l),
(50,800,l),
(50,694,l),
(243,694,l),
(243,0,l)
);
}
);
width = 600;
},
{
anchors = (
{
name = bottom;
pos = (300,0);
},
{
name = center;
pos = (300,400);
},
{
name = tcedilla;
pos = (306,0);
},
{
name = top;
pos = (300,800);
}
);
background = {
shapes = (
{
ref = H;
}
);
};
layerId = m006;
shapes = (
{
closed = 1;
nodes = (
(394,0,l),
(394,624,l),
(578,624,l),
(578,800,l),
(22,800,l),
(22,624,l),
(206,624,l),
(206,0,l)
);
}
);
width = 600;
},
{
anchors = (
{
name = bottom;
pos = (375,0);
},
{
name = center;
pos = (375,400);
},
{
name = tcedilla;
pos = (362,0);
},
{
name = top;
pos = (375,800);
}
);
background = {
shapes = (
{
ref = H;
}
);
};
layerId = m007;
shapes = (
{
closed = 1;
nodes = (
(396,0,l),
(396,762,l),
(660,762,l),
(660,800,l),
(90,800,l),
(90,762,l),
(354,762,l),
(354,0,l)
);
}
);
width = 750;
},
{
anchors = (
{
name = bottom;
pos = (300,0);
},
{
name = center;
pos = (300,400);
},
{
name = tcedilla;
pos = (292,0);
},
{
name = top;
pos = (300,800);
}
);
background = {
shapes = (
{
ref = H;
}
);
};
layerId = m009;
shapes = (
{
closed = 1;
nodes = (
(321,0,l),
(321,762,l),
(510,762,l),
(510,800,l),
(90,800,l),
(90,762,l),
(279,762,l),
(279,0,l)
);
}
);
width = 600;
}
);
unicode = 84;
},
{
glyphname = U;
kernRight = U_RIGHT;
lastChange = "2022-09-11 17:24:48 +0000";
layers = (
{
anchors = (
{
name = bottom;
pos = (375,0);
},
{
name = ogonek;
pos = (487,10);
},
{
name = top;
pos = (375,800);
},
{
name = topright;
pos = (730,800);
}
);
background = {
shapes = (
{
ref = H;
}
);
};
layerId = m01;
shapes = (
{
closed = 1;
nodes = (
(90,280,ls),
(90,88,o),
(190,-16,o),
(375,-16,cs),
(560,-16,o),
(660,88,o),
(660,280,cs),
(660,800,l),
(550,800,l),
(550,290,ls),
(550,166,o),
(486,92,o),
(377,92,cs),
(268,92,o),
(204,166,o),
(204,290,cs),
(204,800,l),
(90,800,l)
);
}
);
width = 750;
},
{
anchors = (
{
name = bottom;
pos = (375,0);
},
{
name = ogonek;
pos = (504,10);
},
{
name = top;
pos = (375,800);
},
{
name = topright;
pos = (730,800);
}
);
background = {
shapes = (
{
ref = H;
}
);
};
layerId = m002;
shapes = (
{
closed = 1;
nodes = (
(60,300,ls),
(60,98,o),
(174,-20,o),
(375,-20,cs),
(576,-20,o),
(690,98,o),
(690,300,cs),
(690,800,l),
(510,800,l),
(510,306,ls),
(510,209,o),
(461,152,o),
(379,152,cs),
(297,152,o),
(248,207,o),
(248,300,cs),
(248,800,l),
(60,800,l)
);
}
);
width = 750;
},
{
anchors = (
{
name = bottom;
pos = (300,0);
},
{
name = ogonek;
pos = (395,10);
},
{
name = top;
pos = (300,800);
},
{
name = topright;
pos = (580,800);
}
);
background = {
shapes = (
{
ref = H;
}
);
};
layerId = m005;
shapes = (
{
closed = 1;
nodes = (
(74,230,ls),
(74,73,o),
(155,-16,o),
(300,-16,cs),
(445,-16,o),
(526,73,o),
(526,230,cs),
(526,800,l),
(416,800,l),
(416,240,ls),
(416,146,o),
(374,90,o),
(302,90,cs),
(230,90,o),
(188,146,o),
(188,240,cs),
(188,800,l),
(74,800,l)
);
}
);
width = 600;
},
{
anchors = (
{
name = bottom;
pos = (300,0);
},
{
name = ogonek;
pos = (422,10);
},
{
name = top;
pos = (300,800);
},
{
name = topright;
pos = (580,800);
}
);
background = {
shapes = (
{
ref = H;
}
);
};
layerId = m006;
shapes = (
{
closed = 1;
nodes = (
(34,260,ls),
(34,74,o),
(124,-20,o),
(300,-20,cs),
(476,-20,o),
(566,74,o),
(566,260,cs),
(566,800,l),
(386,800,l),
(386,276,ls),
(386,191,o),
(358,148,o),
(304,148,cs),
(250,148,o),
(222,189,o),
(222,270,cs),
(222,800,l),
(34,800,l)
);
}
);
width = 600;
},
{
anchors = (
{
name = bottom;
pos = (375,0);
},
{
name = ogonek;
pos = (467,10);
},
{
name = top;
pos = (375,800);
},
{
name = topright;
pos = (730,800);
}
);
background = {
shapes = (
{
ref = H;
}
);
};
layerId = m007;
shapes = (
{
closed = 1;
nodes = (
(120,250,ls),
(120,82,o),
(212,-12,o),
(375,-12,cs),
(538,-12,o),
(630,82,o),
(630,250,cs),
(630,800,l),
(589,800,l),
(589,250,ls),
(589,107,o),
(511,26,o),
(375,26,cs),
(239,26,o),
(162,107,o),
(162,250,cs),
(162,800,l),
(120,800,l)
);
}
);
width = 750;
},
{
anchors = (
{
name = bottom;
pos = (300,0);
},
{
name = ogonek;
pos = (372,10);
},
{
name = top;
pos = (300,800);
},
{
name = topright;
pos = (580,800);
}
);
background = {
shapes = (
{
ref = H;
}
);
};
layerId = m009;
shapes = (
{
closed = 1;
nodes = (
(114,210,ls),
(114,68,o),
(181,-12,o),
(300,-12,cs),
(419,-12,o),
(486,68,o),
(486,210,cs),
(486,800,l),
(445,800,l),
(445,210,ls),
(445,92,o),
(392,26,o),
(300,26,cs),
(208,26,o),
(156,92,o),
(156,210,cs),
(156,800,l),
(114,800,l)
);
}
);
width = 600;
}
);
unicode = 85;
},
{
glyphname = V;
lastChange = "2022-03-13 14:39:41 +0000";
layers = (
{
anchors = (
{
name = connect;
pos = (375,800);
}
);
background = {
shapes = (
{
ref = H;
}
);
};
layerId = m01;
shapes = (
{
closed = 1;
nodes = (
(56,800,l),
(282,0,l),
(468,0,l),
(694,800,l),
(581,800,l),
(383,88,l),
(373,88,l),
(176,800,l)
);
}
);
width = 750;
},
{
anchors = (
{
name = connect;
pos = (375,800);
}
);
background = {
shapes = (
{
ref = H;
}
);
};
layerId = m002;
shapes = (
{
closed = 1;
nodes = (
(23,800,l),
(215,0,l),
(535,0,l),
(727,800,l),
(552,800,l),
(391,120,l),
(371,120,l),
(210,800,l)
);
}
);
width = 750;
},
{
anchors = (
{
name = connect;
pos = (300,800);
}
);
background = {
shapes = (
{
ref = H;
}
);
};
layerId = m005;
shapes = (
{
closed = 1;
nodes = (
(45,800,l),
(208,0,l),
(392,0,l),
(555,800,l),
(446,800,l),
(308,80,l),
(298,80,l),
(161,800,l)
);
}
);
width = 600;
},
{
anchors = (
{
name = connect;
pos = (300,800);
}
);
background = {
shapes = (
{
ref = H;
}
);
};
layerId = m006;
shapes = (
{
closed = 1;
nodes = (
(18,800,l),
(148,0,l),
(452,0,l),
(582,800,l),
(407,800,l),
(314,170,l),
(294,170,l),
(207,800,l)
);
}
);
width = 600;
},
{
anchors = (
{
name = connect;
pos = (375,800);
}
);
background = {
shapes = (
{
ref = H;
}
);
};
layerId = m007;
shapes = (
{
closed = 1;
nodes = (
(90,800,l),
(341,0,l),
(409,0,l),
(660,800,l),
(617,800,l),
(380,40,l),
(374,40,l),
(136,800,l)
);
}
);
width = 750;
},
{
anchors = (
{
name = connect;
pos = (300,800);
}
);
background = {
shapes = (
{
ref = H;
}
);
};
layerId = m009;
shapes = (
{
closed = 1;
nodes = (
(76,800,l),
(264,0,l),
(336,0,l),
(524,800,l),
(482,800,l),
(305,36,l),
(299,36,l),
(121,800,l)
);
}
);
width = 600;
}
);
unicode = 86;
},
{
glyphname = W;
lastChange = "2022-08-31 09:08:30 +0000";
layers = (
{
anchors = (
{
name = bottom;
pos = (375,0);
},
{
name = top;
pos = (375,800);
},
{
name = topacute;
pos = (388,800);
},
{
name = topgrave;
pos = (398,800);
}
);
background = {
shapes = (
{
ref = M;
}
);
};
layerId = m01;
shapes = (
{
closed = 1;
nodes = (
(24,800,l),
(135,0,l),
(302,0,l),
(372,540,l),
(382,540,l),
(447,0,l),
(615,0,l),
(726,800,l),
(626,800,l),
(548,200,l),
(536,80,l),
(526,80,l),
(463,600,l),
(297,600,l),
(230,80,l),
(220,80,l),
(208,200,l),
(131,800,l)
);
}
);
width = 750;
},
{
anchors = (
{
name = bottom;
pos = (375,0);
},
{
name = top;
pos = (375,800);
},
{
name = topacute;
pos = (376,800);
},
{
name = topgrave;
pos = (400,800);
}
);
background = {
shapes = (
{
ref = M;
}
);
};
layerId = m002;
shapes = (
{
closed = 1;
nodes = (
(12,800,l),
(84,0,l),
(328,0,l),
(367,446,l),
(387,446,l),
(420,0,l),
(666,0,l),
(738,800,l),
(573,800,l),
(553,550,l),
(536,170,l),
(516,170,l),
(483,620,l),
(282,620,l),
(242,170,l),
(222,170,l),
(205,550,l),
(185,800,l)
);
}
);
width = 750;
},
{
anchors = (
{
name = bottom;
pos = (300,0);
},
{
name = top;
pos = (300,800);
},
{
name = topacute;
pos = (310,800);
},
{
name = topgrave;
pos = (306,800);
}
);
background = {
shapes = (
{
ref = M;
}
);
};
layerId = m005;
shapes = (
{
closed = 1;
nodes = (
(20,800,l),
(94,0,l),
(245,0,l),
(294,520,l),
(308,520,l),
(354,0,l),
(506,0,l),
(580,800,l),
(484,800,l),
(448,392,l),
(429,80,l),
(415,80,l),
(369,600,l),
(237,600,l),
(188,80,l),
(174,80,l),
(160,392,l),
(124,800,l)
);
}
);
width = 600;
},
{
anchors = (
{
name = bottom;
pos = (300,0);
},
{
name = top;
pos = (300,800);
},
{
name = topacute;
pos = (308,800);
},
{
name = topgrave;
pos = (314,800);
}
);
background = {
shapes = (
{
ref = M;
}
);
};
layerId = m006;
shapes = (
{
closed = 1;
nodes = (
(12,800,l),
(66,0,l),
(276,0,l),
(290,480,l),
(310,480,l),
(324,0,l),
(534,0,l),
(588,800,l),
(424,800,l),
(434,620,l),
(419,170,l),
(399,170,l),
(394,620,l),
(219,620,l),
(211,170,l),
(191,170,l),
(179,620,l),
(189,800,l)
);
}
);
width = 600;
},
{
anchors = (
{
name = bottom;
pos = (375,0);
},
{
name = top;
pos = (375,800);
},
{
name = topacute;
pos = (390,800);
},
{
name = topgrave;
pos = (386,800);
}
);
layerId = m007;
shapes = (
{
closed = 1;
nodes = (
(48,800,l),
(199,0,l),
(269,0,l),
(373,564,l),
(379,564,l),
(482,0,l),
(551,0,l),
(702,800,l),
(663,800,l),
(534,105,l),
(520,24,l),
(512,24,l),
(409,588,l),
(345,588,l),
(241,24,l),
(233,24,l),
(220,105,l),
(90,800,l)
);
}
);
width = 750;
},
{
anchors = (
{
name = bottom;
pos = (300,0);
},
{
name = top;
pos = (300,800);
},
{
name = topacute;
pos = (310,800);
},
{
name = topgrave;
pos = (310,800);
}
);
layerId = m009;
shapes = (
{
closed = 1;
nodes = (
(48,800,l),
(152,0,l),
(219,0,l),
(298,562,l),
(304,562,l),
(381,0,l),
(448,0,l),
(552,800,l),
(514,800,l),
(427,105,l),
(419,34,l),
(409,34,l),
(333,588,l),
(271,588,l),
(193,34,l),
(183,34,l),
(176,105,l),
(90,800,l)
);
}
);
width = 600;
}
);
unicode = 87;
},
{
glyphname = X;
kernLeft = X_LEFT;
kernRight = X_RIGHT;
lastChange = "2022-02-06 19:29:55 +0000";
layers = (
{
background = {
shapes = (
{
closed = 1;
nodes = (
(53,800,l),
(287,383,l),
(69,0,l),
(190,0,l),
(406,386,l),
(179,800,l)
);
},
{
closed = 1;
nodes = (
(344,386,l),
(554,0,l),
(681,0,l),
(463,391,l),
(697,800,l),
(579,800,l)
);
}
);
};
layerId = m01;
shapes = (
{
closed = 1;
nodes = (
(199,0,l),
(360,286,l),
(370,332,l),
(381,332,l),
(391,286,l),
(548,0,l),
(681,0,l),
(463,393,l),
(697,800,l),
(569,800,l),
(390,486,l),
(380,440,l),
(369,440,l),
(359,486,l),
(184,800,l),
(53,800,l),
(287,384,l),
(69,0,l)
);
}
);
width = 750;
},
{
background = {
shapes = (
{
closed = 1;
nodes = (
(29,800,l),
(227,390,l),
(41,0,l),
(243,0,l),
(416,386,l),
(236,800,l)
);
},
{
closed = 1;
nodes = (
(327,386,l),
(498,0,l),
(707,0,l),
(520,390,l),
(721,800,l),
(520,800,l)
);
}
);
};
layerId = m002;
shapes = (
{
closed = 1;
nodes = (
(232,0,l),
(345,230,l),
(359,296,l),
(379,296,l),
(393,230,l),
(504,0,l),
(709,0,l),
(512,390,l),
(721,800,l),
(532,800,l),
(404,542,l),
(390,476,l),
(369,476,l),
(355,542,l),
(232,800,l),
(29,800,l),
(235,390,l),
(41,0,l)
);
}
);
width = 750;
},
{
background = {
shapes = (
{
closed = 1;
nodes = (
(46,800,l),
(213,386,l),
(58,0,l),
(172,0,l),
(323,386,l),
(164,800,l)
);
},
{
closed = 1;
nodes = (
(277,386,l),
(422,0,l),
(542,0,l),
(387,386,l),
(554,800,l),
(444,800,l)
);
}
);
};
layerId = m005;
shapes = (
{
closed = 1;
nodes = (
(175,0,l),
(281,271,l),
(293,331,l),
(303,331,l),
(315,271,l),
(419,0,l),
(542,0,l),
(390,388,l),
(554,800,l),
(439,800,l),
(319,496,l),
(308,441,l),
(297,441,l),
(287,496,l),
(168,800,l),
(46,800,l),
(210,386,l),
(58,0,l)
);
}
);
width = 600;
},
{
background = {
shapes = (
{
closed = 1;
nodes = (
(23,800,l),
(149,390,l),
(35,0,l),
(231,0,l),
(330,386,l),
(224,800,l)
);
},
{
closed = 1;
nodes = (
(270,386,l),
(363,0,l),
(565,0,l),
(451,390,l),
(577,800,l),
(382,800,l)
);
}
);
};
layerId = m006;
shapes = (
{
closed = 1;
nodes = (
(218,0,l),
(280,199,l),
(285,295,l),
(305,295,l),
(310,199,l),
(371,0,l),
(565,0,l),
(440,390,l),
(577,800,l),
(395,800,l),
(321,566,l),
(316,471,l),
(296,471,l),
(291,566,l),
(216,800,l),
(23,800,l),
(162,390,l),
(35,0,l)
);
}
);
width = 600;
},
{
layerId = m007;
shapes = (
{
closed = 1;
nodes = (
(160,0,l),
(370,356,l),
(371,367,l),
(377,367,l),
(378,356,l),
(588,0,l),
(639,0,l),
(411,387,l),
(655,800,l),
(607,800,l),
(380,415,l),
(379,405,l),
(373,405,l),
(372,415,l),
(145,800,l),
(95,800,l),
(339,386,l),
(111,0,l)
);
}
);
width = 750;
},
{
background = {
shapes = (
{
closed = 1;
nodes = (
(82,800,l),
(266,386,l),
(96,0,l),
(140,0,l),
(307,386,l),
(127,800,l)
);
},
{
closed = 1;
nodes = (
(293,386,l),
(458,0,l),
(504,0,l),
(334,387,l),
(518,800,l),
(475,800,l)
);
}
);
};
layerId = m009;
shapes = (
{
closed = 1;
nodes = (
(142,0,l),
(295,348,l),
(296,367,l),
(302,367,l),
(303,348,l),
(456,0,l),
(504,0,l),
(334,387,l),
(518,800,l),
(473,800,l),
(305,422,l),
(304,405,l),
(298,405,l),
(297,422,l),
(129,800,l),
(82,800,l),
(266,386,l),
(96,0,l)
);
}
);
width = 600;
}
);
unicode = 88;
},
{
glyphname = Y;
lastChange = "2022-04-03 20:22:16 +0000";
layers = (
{
anchors = (
{
name = bottom;
pos = (375,0);
},
{
name = connect;
pos = (375,250);
},
{
name = top;
pos = (375,800);
},
{
name = topleft;
pos = (20,800);
}
);
background = {
shapes = (
{
pos = (1,0);
ref = X;
}
);
};
layerId = m01;
shapes = (
{
closed = 1;
nodes = (
(43,800,l),
(318,348,l),
(318,0,l),
(432,0,l),
(432,348,l),
(707,800,l),
(590,800,l),
(393,473,l),
(383,444,l),
(373,444,l),
(363,473,l),
(169,800,l)
);
}
);
width = 750;
},
{
anchors = (
{
name = bottom;
pos = (375,0);
},
{
name = connect;
pos = (379,240);
},
{
name = top;
pos = (375,800);
},
{
name = topleft;
pos = (20,800);
}
);
background = {
shapes = (
{
closed = 1;
nodes = (
(17,800,l),
(285,296,l),
(285,0,l),
(473,0,l),
(473,296,l),
(741,800,l),
(550,800,l),
(360,423,l),
(408,423,l),
(220,800,l)
);
}
);
};
layerId = m002;
shapes = (
{
closed = 1;
nodes = (
(17,800,l),
(285,296,l),
(285,0,l),
(473,0,l),
(473,296,l),
(741,800,l),
(551,800,l),
(411,529,l),
(397,454,l),
(376,454,l),
(362,529,l),
(223,800,l)
);
}
);
width = 750;
},
{
anchors = (
{
name = bottom;
pos = (300,0);
},
{
name = connect;
pos = (300,250);
},
{
name = top;
pos = (300,800);
},
{
name = topleft;
pos = (20,800);
}
);
background = {
shapes = (
{
pos = (1,0);
ref = X;
}
);
};
layerId = m005;
shapes = (
{
closed = 1;
nodes = (
(36,800,l),
(243,334,l),
(243,0,l),
(357,0,l),
(357,334,l),
(564,800,l),
(452,800,l),
(319,493,l),
(308,445,l),
(297,445,l),
(286,493,l),
(154,800,l)
);
}
);
width = 600;
},
{
anchors = (
{
name = bottom;
pos = (300,0);
},
{
name = connect;
pos = (299,240);
},
{
name = top;
pos = (300,800);
},
{
name = topleft;
pos = (20,800);
}
);
background = {
shapes = (
{
pos = (-3,-28);
ref = X;
}
);
};
layerId = m006;
shapes = (
{
closed = 1;
nodes = (
(10,800,l),
(206,286,l),
(206,0,l),
(394,0,l),
(394,286,l),
(590,800,l),
(408,800,l),
(318,545,l),
(313,450,l),
(293,450,l),
(288,545,l),
(201,800,l)
);
}
);
width = 600;
},
{
anchors = (
{
name = bottom;
pos = (375,0);
},
{
name = connect;
pos = (375,250);
},
{
name = top;
pos = (375,800);
},
{
name = topleft;
pos = (20,800);
}
);
background = {
shapes = (
{
ref = X;
}
);
};
layerId = m007;
shapes = (
{
closed = 1;
nodes = (
(84,800,l),
(354,356,l),
(354,0,l),
(396,0,l),
(396,356,l),
(666,800,l),
(619,800,l),
(381,407,l),
(380,400,l),
(374,400,l),
(373,407,l),
(134,800,l)
);
}
);
width = 750;
},
{
anchors = (
{
name = bottom;
pos = (300,0);
},
{
name = connect;
pos = (300,250);
},
{
name = top;
pos = (300,800);
},
{
name = topleft;
pos = (20,800);
}
);
background = {
shapes = (
{
pos = (1,0);
ref = X;
}
);
};
layerId = m009;
shapes = (
{
closed = 1;
nodes = (
(72,800,l),
(279,356,l),
(279,0,l),
(321,0,l),
(321,356,l),
(528,800,l),
(484,800,l),
(306,418,l),
(305,404,l),
(299,404,l),
(298,418,l),
(120,800,l)
);
}
);
width = 600;
}
);
unicode = 89;
},
{
glyphname = Z;
lastChange = "2022-06-08 19:37:38 +0000";
layers = (
{
anchors = (
{
name = bottom;
pos = (375,0);
},
{
name = center;
pos = (375,400);
},
{
name = top;
pos = (375,800);
}
);
background = {
shapes = (
{
ref = H;
},
{
closed = 1;
nodes = (
(640,0,l),
(640,108,l),
(128,108,l),
(128,58,l),
(640,604,l),
(640,800,l),
(110,800,l),
(110,692,l),
(622,692,l),
(622,742,l),
(110,196,l),
(110,0,l)
);
}
);
};
layerId = m01;
shapes = (
{
closed = 1;
nodes = (
(640,0,l),
(640,108,l),
(184,108,l),
(184,118,l),
(640,604,l),
(640,800,l),
(110,800,l),
(110,692,l),
(566,692,l),
(566,682,l),
(110,196,l),
(110,0,l)
);
}
);
width = 750;
},
{
anchors = (
{
name = bottom;
pos = (375,0);
},
{
name = center;
pos = (375,400);
},
{
name = top;
pos = (375,800);
}
);
background = {
shapes = (
{
ref = H;
},
{
closed = 1;
nodes = (
(660,0,l),
(660,180,l),
(137,180,l),
(137,123,l),
(660,492,l),
(660,800,l),
(90,800,l),
(90,620,l),
(613,620,l),
(613,677,l),
(90,308,l),
(90,0,l)
);
}
);
};
layerId = m002;
shapes = (
{
closed = 1;
nodes = (
(660,0,l),
(660,160,l),
(246,160,l),
(246,180,l),
(660,532,l),
(660,800,l),
(90,800,l),
(90,640,l),
(504,640,l),
(504,620,l),
(90,268,l),
(90,0,l)
);
}
);
width = 750;
},
{
anchors = (
{
name = bottom;
pos = (300,0);
},
{
name = center;
pos = (300,400);
},
{
name = top;
pos = (300,800);
}
);
background = {
shapes = (
{
closed = 1;
nodes = (
(510,0,l),
(510,110,l),
(104,110,l),
(104,26,l),
(510,608,l),
(510,800,l),
(90,800,l),
(90,690,l),
(496,690,l),
(496,774,l),
(90,192,l),
(90,0,l)
);
},
{
ref = H;
}
);
};
layerId = m005;
shapes = (
{
closed = 1;
nodes = (
(510,0,l),
(510,106,l),
(170,106,l),
(170,116,l),
(510,612,l),
(510,800,l),
(90,800,l),
(90,694,l),
(430,694,l),
(430,684,l),
(90,188,l),
(90,0,l)
);
}
);
width = 600;
},
{
anchors = (
{
name = bottom;
pos = (300,0);
},
{
name = center;
pos = (300,400);
},
{
name = top;
pos = (300,800);
}
);
background = {
shapes = (
{
ref = H;
},
{
closed = 1;
nodes = (
(540,0,l),
(540,176,l),
(92,176,l),
(92,87,l),
(540,503,l),
(540,800,l),
(60,800,l),
(60,624,l),
(508,624,l),
(508,713,l),
(60,297,l),
(60,0,l)
);
}
);
};
layerId = m006;
shapes = (
{
closed = 1;
nodes = (
(540,0,l),
(540,160,l),
(209,160,l),
(209,180,l),
(540,539,l),
(540,800,l),
(60,800,l),
(60,640,l),
(391,640,l),
(391,620,l),
(60,261,l),
(60,0,l)
);
}
);
width = 600;
},
{
anchors = (
{
name = bottom;
pos = (375,0);
},
{
name = center;
pos = (375,400);
},
{
name = top;
pos = (375,800);
}
);
background = {
shapes = (
{
ref = H;
},
{
closed = 1;
nodes = (
(620,0,l),
(620,38,l),
(139,38,l),
(139,13,l),
(620,729,l),
(620,800,l),
(130,800,l),
(130,762,l),
(611,762,l),
(611,787,l),
(130,71,l),
(130,0,l)
);
}
);
};
layerId = m007;
shapes = (
{
closed = 1;
nodes = (
(620,0,l),
(620,38,l),
(160,38,l),
(160,44,l),
(620,729,l),
(620,800,l),
(130,800,l),
(130,762,l),
(590,762,l),
(590,756,l),
(130,71,l),
(130,0,l)
);
}
);
width = 750;
},
{
anchors = (
{
name = bottom;
pos = (300,0);
},
{
name = center;
pos = (300,400);
},
{
name = top;
pos = (300,800);
}
);
background = {
shapes = (
{
ref = H;
}
);
};
layerId = m009;
shapes = (
{
closed = 1;
nodes = (
(480,0,l),
(480,38,l),
(154,38,l),
(154,44,l),
(480,736,l),
(480,800,l),
(120,800,l),
(120,762,l),
(446,762,l),
(446,756,l),
(120,64,l),
(120,0,l)
);
}
);
width = 600;
}
);
unicode = 90;
},
{
glyphname = Saltillo;
lastChange = "2022-09-23 17:50:18 +0000";
layers = (
{
layerId = m009;
shapes = (
{
closed = 1;
nodes = (
(316,420,l),
(328,630,l),
(328,800,l),
(292,800,l),
(292,420,l)
);
}
);
width = 600;
},
{
layerId = m005;
shapes = (
{
closed = 1;
nodes = (
(340,400,l),
(360,620,l),
(360,800,l),
(260,800,l),
(260,400,l)
);
}
);
width = 600;
},
{
layerId = m006;
shapes = (
{
closed = 1;
nodes = (
(360,380,l),
(390,610,l),
(390,800,l),
(230,800,l),
(230,380,l)
);
}
);
width = 600;
},
{
layerId = m007;
shapes = (
{
closed = 1;
nodes = (
(391,420,l),
(403,630,l),
(403,800,l),
(367,800,l),
(367,420,l)
);
}
);
width = 750;
},
{
layerId = m01;
shapes = (
{
closed = 1;
nodes = (
(419,400,l),
(439,620,l),
(439,800,l),
(339,800,l),
(339,400,l)
);
}
);
width = 750;
},
{
layerId = m002;
shapes = (
{
closed = 1;
nodes = (
(435,380,l),
(465,610,l),
(465,800,l),
(305,800,l),
(305,380,l)
);
}
);
width = 750;
}
);
unicode = 42891;
},
{
glyphname = a;
kernLeft = a_left;
kernRight = n_right;
lastChange = "2022-09-11 17:24:56 +0000";
layers = (
{
anchors = (
{
name = bottom;
pos = (372,0);
},
{
name = ogonek;
pos = (626,10);
},
{
name = top;
pos = (372,600);
}
);
background = {
shapes = (
{
pos = (-12,0);
ref = "en-cy";
}
);
};
layerId = m01;
shapes = (
{
closed = 1;
nodes = (
(305,342,ls),
(184,324,o),
(116,258,o),
(116,160,cs),
(116,54,o),
(191,-16,o),
(310,-16,cs),
(392,-16,o),
(450,10,o),
(488,60,c),
(518,60,l),
(518,0,l),
(626,0,l),
(626,388,ls),
(626,534,o),
(535,616,o),
(372,616,cs),
(203,616,o),
(92,530,o),
(80,390,c),
(186,390,l),
(204,469,o),
(269,513,o),
(368,513,cs),
(462,513,o),
(518,464,o),
(518,380,cs),
(518,259,ls),
(518,163,o),
(436,88,o),
(332,88,cs),
(275,88,o),
(233,120,o),
(233,163,cs),
(233,208,o),
(258,238,o),
(316,247,cs),
(530,279,l),
(530,376,l)
);
}
);
width = 750;
},
{
anchors = (
{
name = bottom;
pos = (376,0);
},
{
name = ogonek;
pos = (658,10);
},
{
name = top;
pos = (376,620);
}
);
background = {
shapes = (
{
angle = 180;
pos = (752,620);
ref = n;
}
);
};
layerId = m002;
shapes = (
{
closed = 1;
nodes = (
(293,367,ls),
(159,347,o),
(84,278,o),
(84,172,cs),
(84,59,o),
(166,-16,o),
(290,-16,cs),
(368,-16,o),
(417,12,o),
(442,66,c),
(482,66,l),
(482,0,l),
(658,0,l),
(658,400,ls),
(658,554,o),
(554,640,o),
(368,640,cs),
(191,640,o),
(72,545,o),
(56,390,c),
(232,390,l),
(240,450,o),
(289,486,o),
(368,486,cs),
(448,486,o),
(482,452,o),
(482,380,cs),
(482,242,ls),
(482,179,o),
(419,130,o),
(338,130,cs),
(289,130,o),
(268,150,o),
(268,186,cs),
(268,215,o),
(294,238,o),
(332,243,cs),
(492,266,l),
(492,396,l)
);
}
);
width = 750;
},
{
anchors = (
{
name = bottom;
pos = (290,0);
},
{
name = ogonek;
pos = (494,10);
},
{
name = top;
pos = (290,600);
}
);
background = {
shapes = (
{
pos = (-10,0);
ref = "en-cy";
}
);
};
layerId = m005;
shapes = (
{
closed = 1;
nodes = (
(267,348,ls),
(154,327,o),
(90,258,o),
(90,154,cs),
(90,54,o),
(152,-14,o),
(244,-14,cs),
(301,-14,o),
(337,6,o),
(358,46,c),
(388,46,l),
(388,0,l),
(494,0,l),
(494,416,ls),
(494,542,o),
(421,616,o),
(298,616,cs),
(165,616,o),
(78,534,o),
(70,400,c),
(174,400,l),
(188,474,o),
(232,516,o),
(296,516,cs),
(349,516,o),
(388,473,o),
(388,410,cs),
(388,212,ls),
(388,142,o),
(334,84,o),
(278,84,cs),
(231,84,o),
(204,113,o),
(204,162,cs),
(204,215,o),
(231,246,o),
(285,256,cs),
(398,276,l),
(398,372,l)
);
}
);
width = 600;
},
{
anchors = (
{
name = bottom;
pos = (298,0);
},
{
name = ogonek;
pos = (536,10);
},
{
name = top;
pos = (298,620);
}
);
background = {
shapes = (
{
pos = (4,0);
ref = u;
}
);
};
layerId = m006;
shapes = (
{
closed = 1;
nodes = (
(236,364,ls),
(117,343,o),
(56,272,o),
(56,154,cs),
(56,60,o),
(130,-14,o),
(224,-14,cs),
(277,-14,o),
(308,11,o),
(322,56,c),
(362,56,l),
(362,0,l),
(536,0,l),
(536,412,ls),
(536,563,o),
(454,640,o),
(292,640,cs),
(139,640,o),
(40,549,o),
(32,400,c),
(199,400,l),
(215,458,o),
(246,490,o),
(292,490,cs),
(337,490,o),
(362,460,o),
(362,410,cs),
(362,218,ls),
(362,169,o),
(329,130,o),
(288,130,cs),
(253,130,o),
(230,152,o),
(230,184,cs),
(230,218,o),
(250,241,o),
(285,247,cs),
(372,262,l),
(372,388,l)
);
}
);
width = 600;
},
{
anchors = (
{
name = bottom;
pos = (358,0);
},
{
name = ogonek;
pos = (592,10);
},
{
name = top;
pos = (358,588);
}
);
background = {
shapes = (
{
angle = 180;
pos = (735,588);
ref = n;
}
);
};
layerId = m007;
shapes = (
{
closed = 1;
nodes = (
(299,305,ls),
(195,290,o),
(136,231,o),
(136,143,cs),
(136,47,o),
(209,-12,o),
(329,-12,cs),
(417,-12,o),
(495,23,o),
(533,80,c),
(553,80,l),
(553,0,l),
(592,0,l),
(592,396,ls),
(592,527,o),
(510,600,o),
(363,600,cs),
(222,600,o),
(120,516,o),
(108,390,c),
(147,390,l),
(156,494,o),
(242,564,o),
(363,564,cs),
(485,564,o),
(553,501,o),
(553,390,cs),
(553,232,ls),
(553,107,o),
(465,24,o),
(333,24,cs),
(236,24,o),
(177,69,o),
(177,143,cs),
(177,211,o),
(226,256,o),
(314,269,cs),
(563,305,l),
(563,344,l)
);
}
);
width = 750;
},
{
anchors = (
{
name = bottom;
pos = (290,0);
},
{
name = ogonek;
pos = (446,10);
},
{
name = top;
pos = (290,588);
}
);
background = {
shapes = (
{
angle = 180;
pos = (586,588);
ref = n;
}
);
};
layerId = m009;
shapes = (
{
closed = 1;
nodes = (
(269,316,ls),
(175,298,o),
(122,236,o),
(122,142,cs),
(122,50,o),
(180,-12,o),
(268,-12,cs),
(319,-12,o),
(364,10,o),
(387,46,c),
(407,46,l),
(407,0,l),
(446,0,l),
(446,424,ls),
(446,537,o),
(390,600,o),
(291,600,cs),
(181,600,o),
(114,528,o),
(104,400,c),
(142,400,l),
(151,505,o),
(205,564,o),
(291,564,cs),
(365,564,o),
(407,512,o),
(407,420,cs),
(407,192,ls),
(407,91,o),
(352,24,o),
(270,24,cs),
(205,24,o),
(162,71,o),
(162,142,cs),
(162,218,o),
(203,265,o),
(284,280,cs),
(417,305,l),
(417,344,l)
);
}
);
width = 600;
}
);
unicode = 97;
},
{
glyphname = ae;
lastChange = "2022-09-26 20:03:41 +0000";
layers = (
{
anchors = (
{
name = bottom;
pos = (300,0);
},
{
name = top;
pos = (300,588);
}
);
layerId = m009;
shapes = (
{
closed = 1;
nodes = (
(503,-12,o),
(545,50,o),
(562,184,c),
(525,184,l),
(510,74,o),
(480,23,o),
(428,23,cs),
(360,23,o),
(328,110,o),
(328,300,cs),
(328,481,o),
(359,565,o),
(426,565,cs),
(485,565,o),
(512,486,o),
(512,316,c),
(526,318,l),
(308,318,l),
(308,284,l),
(548,284,l),
(549,291,o),
(550,311,o),
(550,318,cs),
(550,511,o),
(511,600,o),
(426,600,cs),
(334,600,o),
(292,505,o),
(292,300,cs),
(292,87,o),
(335,-12,o),
(428,-12,cs)
);
},
{
closed = 1;
nodes = (
(172,316,ls),
(94,299,o),
(50,236,o),
(50,142,cs),
(50,49,o),
(101,-12,o),
(178,-12,cs),
(240,-12,o),
(283,23,o),
(299,86,c),
(319,86,l),
(325,110,l),
(325,424,ls),
(325,537,o),
(278,600,o),
(194,600,cs),
(104,600,o),
(48,529,o),
(38,400,c),
(76,400,l),
(85,505,o),
(127,564,o),
(194,564,cs),
(254,564,o),
(288,513,o),
(288,420,cs),
(288,192,ls),
(288,84,o),
(249,24,o),
(180,24,cs),
(126,24,o),
(90,71,o),
(90,142,cs),
(90,217,o),
(125,266,o),
(187,280,cs),
(298,305,l),
(298,344,l)
);
}
);
width = 600;
},
{
anchors = (
{
name = bottom;
pos = (300,0);
},
{
name = top;
pos = (300,600);
}
);
layerId = m005;
shapes = (
{
closed = 1;
nodes = (
(509,-16,o),
(558,47,o),
(570,184,c),
(472,184,l),
(460,111,o),
(445,84,o),
(418,84,cs),
(377,84,o),
(362,145,o),
(362,305,cs),
(362,458,o),
(377,516,o),
(416,516,cs),
(448,516,o),
(460,461,o),
(460,317,c),
(494,360,l),
(330,360,l),
(330,264,l),
(556,264,l),
(557,278,o),
(558,300,o),
(558,317,cs),
(558,534,o),
(519,616,o),
(416,616,cs),
(323,616,o),
(272,505,o),
(272,305,cs),
(272,85,o),
(317,-16,o),
(416,-16,cs)
);
},
{
closed = 1;
nodes = (
(187,350,ls),
(94,325,o),
(42,256,o),
(42,154,cs),
(42,46,o),
(90,-14,o),
(176,-14,cs),
(231,-14,o),
(276,18,o),
(290,66,c),
(330,66,l),
(350,110,l),
(350,416,ls),
(350,545,o),
(299,616,o),
(206,616,cs),
(101,616,o),
(38,539,o),
(30,400,c),
(130,400,l),
(141,479,o),
(165,516,o),
(204,516,cs),
(242,516,o),
(260,483,o),
(260,410,cs),
(260,212,ls),
(260,130,o),
(239,84,o),
(200,84,cs),
(171,84,o),
(152,115,o),
(152,162,cs),
(152,211,o),
(174,250,o),
(208,259,cs),
(270,276,l),
(270,372,l)
);
}
);
width = 600;
},
{
anchors = (
{
name = bottom;
pos = (300,0);
},
{
name = top;
pos = (300,620);
}
);
layerId = m006;
shapes = (
{
closed = 1;
nodes = (
(521,-20,o),
(574,48,o),
(588,194,c),
(453,194,l),
(449,147,o),
(439,126,o),
(420,126,cs),
(391,126,o),
(382,170,o),
(382,313,cs),
(382,450,o),
(389,492,o),
(414,492,cs),
(439,492,o),
(446,450,o),
(446,313,c),
(512,374,l),
(316,374,l),
(316,254,l),
(576,254,l),
(579,269,o),
(580,293,o),
(580,313,cs),
(580,537,o),
(529,640,o),
(420,640,cs),
(312,640,o),
(262,537,o),
(262,313,cs),
(262,85,o),
(313,-20,o),
(422,-20,cs)
);
},
{
closed = 1;
nodes = (
(173,366,ls),
(65,336,o),
(24,278,o),
(24,154,cs),
(24,53,o),
(79,-14,o),
(162,-14,cs),
(223,-14,o),
(266,15,o),
(282,66,c),
(312,66,l),
(362,210,l),
(362,412,ls),
(362,568,o),
(311,640,o),
(200,640,cs),
(83,640,o),
(24,564,o),
(12,400,c),
(142,400,l),
(152,468,o),
(168,494,o),
(200,494,cs),
(230,494,o),
(242,471,o),
(242,410,cs),
(242,218,ls),
(242,161,o),
(226,130,o),
(196,130,cs),
(172,130,o),
(158,149,o),
(158,184,cs),
(158,216,o),
(177,243,o),
(205,250,cs),
(252,262,l),
(252,388,l)
);
}
);
width = 600;
},
{
anchors = (
{
name = bottom;
pos = (375,0);
},
{
name = top;
pos = (375,588);
}
);
layerId = m007;
shapes = (
{
closed = 1;
nodes = (
(635,-12,o),
(689,50,o),
(710,184,c),
(672,184,l),
(652,74,o),
(611,23,o),
(541,23,cs),
(447,23,o),
(403,110,o),
(403,300,cs),
(403,470,o),
(451,565,o),
(537,565,cs),
(621,565,o),
(660,487,o),
(660,318,c),
(674,319,l),
(389,319,l),
(389,284,l),
(696,284,l),
(697,291,o),
(698,308,o),
(698,318,cs),
(698,511,o),
(648,600,o),
(539,600,cs),
(428,600,o),
(366,493,o),
(366,300,cs),
(366,87,o),
(421,-12,o),
(541,-12,cs)
);
},
{
closed = 1;
nodes = (
(200,311,ls),
(105,293,o),
(52,232,o),
(52,141,cs),
(52,49,o),
(113,-12,o),
(206,-12,cs),
(290,-12,o),
(349,32,o),
(372,110,c),
(395,110,l),
(399,140,l),
(399,396,ls),
(399,527,o),
(340,600,o),
(234,600,cs),
(126,600,o),
(57,525,o),
(40,390,c),
(79,390,l),
(97,502,o),
(152,564,o),
(234,564,cs),
(316,564,o),
(362,502,o),
(362,390,cs),
(362,212,ls),
(362,99,o),
(301,24,o),
(210,24,cs),
(140,24,o),
(93,72,o),
(93,145,cs),
(93,213,o),
(133,259,o),
(206,273,cs),
(372,305,l),
(372,344,l)
);
}
);
width = 750;
},
{
anchors = (
{
name = bottom;
pos = (375,0);
},
{
name = top;
pos = (375,600);
}
);
layerId = m01;
shapes = (
{
closed = 1;
nodes = (
(641,-16,o),
(711,55,o),
(726,184,c),
(624,184,l),
(609,116,o),
(579,84,o),
(534,84,cs),
(467,84,o),
(436,154,o),
(436,305,cs),
(436,449,o),
(466,516,o),
(530,516,cs),
(588,516,o),
(610,458,o),
(610,305,c),
(647,362,l),
(410,362,l),
(410,264,l),
(710,264,l),
(711,278,o),
(712,292,o),
(712,307,cs),
(712,518,o),
(656,616,o),
(536,616,cs),
(403,616,o),
(342,518,o),
(342,305,cs),
(342,85,o),
(409,-16,o),
(540,-16,cs)
);
},
{
closed = 1;
nodes = (
(221,342,ls),
(96,307,o),
(38,246,o),
(38,150,cs),
(38,50,o),
(105,-16,o),
(206,-16,cs),
(280,-16,o),
(329,11,o),
(362,70,c),
(402,70,l),
(426,100,l),
(426,388,ls),
(426,533,o),
(362,616,o),
(246,616,cs),
(117,616,o),
(38,535,o),
(24,390,c),
(128,390,l),
(146,474,o),
(182,513,o),
(242,513,cs),
(302,513,o),
(332,471,o),
(332,380,cs),
(332,229,ls),
(332,144,o),
(290,88,o),
(226,88,cs),
(183,88,o),
(155,116,o),
(155,158,cs),
(155,203,o),
(179,232,o),
(232,247,cs),
(342,279,l),
(342,376,l)
);
}
);
width = 750;
},
{
anchors = (
{
name = bottom;
pos = (375,0);
},
{
name = top;
pos = (375,620);
}
);
layerId = m002;
shapes = (
{
closed = 1;
nodes = (
(647,-20,o),
(712,48,o),
(736,194,c),
(574,194,l),
(563,148,o),
(550,130,o),
(528,130,cs),
(487,130,o),
(472,180,o),
(472,313,cs),
(472,440,o),
(486,488,o),
(522,488,cs),
(557,488,o),
(570,440,o),
(570,313,c),
(624,376,l),
(415,376,l),
(415,252,l),
(723,252,l),
(726,266,o),
(728,294,o),
(728,313,cs),
(728,537,o),
(666,640,o),
(532,640,cs),
(386,640,o),
(318,537,o),
(318,313,cs),
(318,85,o),
(385,-20,o),
(530,-20,cs)
);
},
{
closed = 1;
nodes = (
(212,375,ls),
(82,350,o),
(22,285,o),
(22,172,cs),
(22,59,o),
(92,-16,o),
(198,-16,cs),
(267,-16,o),
(319,13,o),
(344,66,c),
(384,66,l),
(458,120,l),
(458,400,ls),
(458,554,o),
(384,640,o),
(252,640,cs),
(107,640,o),
(32,561,o),
(14,390,c),
(170,390,l),
(180,456,o),
(203,486,o),
(242,486,cs),
(287,486,o),
(304,457,o),
(304,380,cs),
(304,242,ls),
(304,165,o),
(283,130,o),
(236,130,cs),
(206,130,o),
(186,152,o),
(186,186,cs),
(186,220,o),
(208,243,o),
(249,252,cs),
(314,266,l),
(314,396,l)
);
}
);
width = 750;
}
);
unicode = 230;
},
{
glyphname = b;
kernLeft = left_ascender;
kernRight = rnd_right;
lastChange = "2022-11-19 10:51:40 +0000";
layers = (
{
layerId = m01;
shapes = (
{
closed = 1;
nodes = (
(578,-16,o),
(686,110,o),
(686,300,cs),
(686,490,o),
(578,616,o),
(416,616,cs),
(344,616,o),
(278,586,o),
(250,540,c),
(220,540,l),
(220,848,l),
(110,848,l),
(110,0,l),
(220,0,l),
(220,60,l),
(250,60,l),
(278,14,o),
(344,-16,o),
(416,-16,cs)
);
},
{
closed = 1;
nodes = (
(284,88,o),
(216,169,o),
(216,300,cs),
(216,431,o),
(284,512,o),
(396,512,cs),
(508,512,o),
(576,431,o),
(576,300,cs),
(576,169,o),
(508,88,o),
(396,88,cs)
);
}
);
width = 750;
},
{
layerId = m002;
shapes = (
{
closed = 1;
nodes = (
(610,-16,o),
(720,114,o),
(720,310,cs),
(720,506,o),
(610,636,o),
(446,636,cs),
(382,636,o),
(324,606,o),
(300,560,c),
(260,560,l),
(260,848,l),
(80,848,l),
(80,0,l),
(260,0,l),
(260,60,l),
(300,60,l),
(324,14,o),
(382,-16,o),
(446,-16,cs)
);
},
{
closed = 1;
nodes = (
(303,144,o),
(246,207,o),
(246,310,cs),
(246,413,o),
(303,476,o),
(396,476,cs),
(489,476,o),
(546,413,o),
(546,310,cs),
(546,207,o),
(489,144,o),
(396,144,cs)
);
}
);
width = 750;
},
{
layerId = m005;
shapes = (
{
closed = 1;
nodes = (
(468,-16,o),
(538,98,o),
(538,300,cs),
(538,502,o),
(468,616,o),
(344,616,cs),
(294,616,o),
(254,594,o),
(232,554,c),
(202,554,l),
(202,848,l),
(92,848,l),
(92,0,l),
(202,0,l),
(202,46,l),
(232,46,l),
(254,6,o),
(294,-16,o),
(344,-16,cs)
);
},
{
closed = 1;
nodes = (
(237,86,o),
(198,159,o),
(198,300,cs),
(198,441,o),
(237,514,o),
(314,514,cs),
(391,514,o),
(430,441,o),
(430,300,cs),
(430,159,o),
(391,86,o),
(314,86,cs)
);
}
);
width = 600;
},
{
layerId = m006;
shapes = (
{
closed = 1;
nodes = (
(503,-16,o),
(570,101,o),
(570,310,cs),
(570,519,o),
(503,636,o),
(384,636,cs),
(336,636,o),
(298,610,o),
(278,564,c),
(238,564,l),
(238,848,l),
(58,848,l),
(58,0,l),
(238,0,l),
(238,56,l),
(278,56,l),
(298,10,o),
(336,-16,o),
(384,-16,cs)
);
},
{
closed = 1;
nodes = (
(257,138,o),
(228,196,o),
(228,310,cs),
(228,424,o),
(257,482,o),
(314,482,cs),
(371,482,o),
(400,424,o),
(400,310,cs),
(400,196,o),
(371,138,o),
(314,138,cs)
);
}
);
width = 600;
},
{
layerId = m007;
shapes = (
{
closed = 1;
nodes = (
(564,-12,o),
(662,104,o),
(662,294,cs),
(662,484,o),
(564,600,o),
(404,600,cs),
(317,600,o),
(242,561,o),
(206,498,c),
(186,498,l),
(186,848,l),
(146,848,l),
(146,0,l),
(186,0,l),
(186,90,l),
(206,90,l),
(242,27,o),
(317,-12,o),
(404,-12,cs)
);
},
{
closed = 1;
nodes = (
(266,24,o),
(183,127,o),
(183,294,cs),
(183,461,o),
(266,564,o),
(402,564,cs),
(538,564,o),
(621,461,o),
(621,294,cs),
(621,127,o),
(538,24,o),
(402,24,cs)
);
}
);
width = 750;
},
{
layerId = m009;
shapes = (
{
closed = 1;
nodes = (
(445,-12,o),
(510,92,o),
(510,294,cs),
(510,496,o),
(445,600,o),
(320,600,cs),
(262,600,o),
(218,576,o),
(190,530,c),
(170,530,l),
(170,848,l),
(130,848,l),
(130,0,l),
(170,0,l),
(170,58,l),
(190,58,l),
(218,12,o),
(262,-12,o),
(320,-12,cs)
);
},
{
closed = 1;
nodes = (
(218,24,o),
(166,116,o),
(166,294,cs),
(166,472,o),
(218,564,o),
(318,564,cs),
(418,564,o),
(470,472,o),
(470,294,cs),
(470,116,o),
(418,24,o),
(318,24,cs)
);
}
);
width = 600;
}
);
unicode = 98;
},
{
glyphname = c;
kernLeft = rnd_left;
kernRight = rnd_right;
lastChange = "2022-05-22 15:00:16 +0000";
layers = (
{
anchors = (
{
name = bottom;
pos = (398,0);
},
{
name = currencystroke;
pos = (387,300);
},
{
name = top;
pos = (398,600);
}
);
background = {
shapes = (
{
pos = (18,0);
ref = o;
}
);
};
layerId = m01;
shapes = (
{
closed = 1;
nodes = (
(535,-16,o),
(646,76,o),
(658,214,c),
(557,214,l),
(533,136,o),
(471,88,o),
(389,88,cs),
(277,88,o),
(208,167,o),
(208,297,cs),
(208,430,o),
(278,512,o),
(395,512,cs),
(489,512,o),
(555,457,o),
(573,368,c),
(674,368,l),
(668,517,o),
(561,616,o),
(399,616,cs),
(218,616,o),
(98,488,o),
(98,297,cs),
(98,109,o),
(214,-16,o),
(389,-16,cs)
);
}
);
width = 750;
},
{
anchors = (
{
name = bottom;
pos = (394,0);
},
{
name = currencystroke;
pos = (390,310);
},
{
name = top;
pos = (394,620);
}
);
background = {
shapes = (
{
pos = (20,0);
ref = o;
}
);
};
layerId = m002;
shapes = (
{
closed = 1;
nodes = (
(559,-20,o),
(677,83,o),
(692,238,c),
(526,238,l),
(506,177,o),
(459,140,o),
(396,140,cs),
(302,140,o),
(244,203,o),
(244,307,cs),
(244,414,o),
(303,480,o),
(398,480,cs),
(470,480,o),
(522,434,o),
(540,360,c),
(704,360,l),
(698,528,o),
(577,640,o),
(398,640,cs),
(201,640,o),
(70,507,o),
(70,307,cs),
(70,111,o),
(200,-20,o),
(396,-20,cs)
);
}
);
width = 750;
},
{
anchors = (
{
name = bottom;
pos = (320,0);
},
{
name = currencystroke;
pos = (316,300);
},
{
name = top;
pos = (320,600);
}
);
background = {
shapes = (
{
pos = (17,0);
ref = o;
}
);
};
layerId = m005;
shapes = (
{
closed = 1;
nodes = (
(437,-16,o),
(516,71,o),
(522,214,c),
(422,214,l),
(408,130,o),
(373,86,o),
(315,86,cs),
(238,86,o),
(199,158,o),
(199,297,cs),
(199,440,o),
(240,514,o),
(321,514,cs),
(379,514,o),
(416,464,o),
(432,368,c),
(532,368,l),
(526,522,o),
(447,616,o),
(323,616,cs),
(175,616,o),
(91,501,o),
(91,297,cs),
(91,97,o),
(172,-16,o),
(315,-16,cs)
);
}
);
width = 600;
},
{
anchors = (
{
name = bottom;
pos = (320,0);
},
{
name = currencystroke;
pos = (312,310);
},
{
name = top;
pos = (320,620);
}
);
background = {
shapes = (
{
pos = (14,0);
ref = o;
}
);
};
layerId = m006;
shapes = (
{
closed = 1;
nodes = (
(450,-20,o),
(535,73,o),
(548,238,c),
(394,238,l),
(377,169,o),
(350,134,o),
(310,134,cs),
(257,134,o),
(228,193,o),
(228,307,cs),
(228,425,o),
(260,486,o),
(317,486,cs),
(361,486,o),
(389,444,o),
(404,360,c),
(558,360,l),
(551,539,o),
(465,640,o),
(318,640,cs),
(152,640,o),
(58,520,o),
(58,307,cs),
(58,98,o),
(149,-20,o),
(312,-20,cs)
);
}
);
width = 600;
},
{
anchors = (
{
name = bottom;
pos = (388,0);
},
{
name = currencystroke;
pos = (380,294);
},
{
name = top;
pos = (388,588);
}
);
background = {
shapes = (
{
pos = (8,0);
ref = o;
}
);
};
layerId = m007;
shapes = (
{
closed = 1;
nodes = (
(519,-12,o),
(607,65,o),
(624,202,c),
(585,202,l),
(570,88,o),
(496,24,o),
(382,24,cs),
(239,24,o),
(159,120,o),
(159,292,cs),
(159,466,o),
(242,564,o),
(390,564,cs),
(508,564,o),
(584,493,o),
(597,368,c),
(636,368,l),
(623,514,o),
(531,600,o),
(390,600,cs),
(216,600,o),
(118,489,o),
(118,292,cs),
(118,97,o),
(213,-12,o),
(382,-12,cs)
);
}
);
width = 750;
},
{
anchors = (
{
name = bottom;
pos = (316,0);
},
{
name = currencystroke;
pos = (311,294);
},
{
name = top;
pos = (316,588);
}
);
background = {
shapes = (
{
pos = (12,0);
ref = o;
}
);
};
layerId = m009;
shapes = (
{
closed = 1;
nodes = (
(412,-12,o),
(473,61,o),
(490,202,c),
(452,202,l),
(437,85,o),
(389,24,o),
(310,24,cs),
(208,24,o),
(156,115,o),
(156,292,cs),
(156,472,o),
(210,564,o),
(316,564,cs),
(400,564,o),
(449,497,o),
(460,368,c),
(498,368,l),
(487,519,o),
(423,600,o),
(316,600,cs),
(184,600,o),
(116,495,o),
(116,292,cs),
(116,91,o),
(182,-12,o),
(310,-12,cs)
);
}
);
width = 600;
}
);
unicode = 99;
},
{
glyphname = d;
kernLeft = rnd_left;
lastChange = "2022-11-19 10:52:33 +0000";
layers = (
{
anchors = (
{
name = bottom;
pos = (375,0);
},
{
name = center;
pos = (375,300);
},
{
name = top;
pos = (375,848);
},
{
name = topright;
pos = (730,848);
}
);
layerId = m01;
shapes = (
{
closed = 1;
nodes = (
(406,-16,o),
(472,14,o),
(500,60,c),
(530,60,l),
(530,0,l),
(640,0,l),
(640,848,l),
(530,848,l),
(530,540,l),
(500,540,l),
(472,586,o),
(406,616,o),
(334,616,cs),
(172,616,o),
(64,490,o),
(64,300,cs),
(64,110,o),
(172,-16,o),
(334,-16,cs)
);
},
{
closed = 1;
nodes = (
(242,88,o),
(174,169,o),
(174,300,cs),
(174,431,o),
(242,512,o),
(354,512,cs),
(466,512,o),
(534,431,o),
(534,300,cs),
(534,169,o),
(466,88,o),
(354,88,cs)
);
}
);
width = 750;
},
{
anchors = (
{
name = bottom;
pos = (375,0);
},
{
name = center;
pos = (375,310);
},
{
name = top;
pos = (375,848);
},
{
name = topright;
pos = (730,848);
}
);
layerId = m002;
shapes = (
{
closed = 1;
nodes = (
(368,-16,o),
(426,14,o),
(450,60,c),
(490,60,l),
(490,0,l),
(670,0,l),
(670,848,l),
(490,848,l),
(490,560,l),
(450,560,l),
(426,606,o),
(368,636,o),
(304,636,cs),
(140,636,o),
(30,506,o),
(30,310,cs),
(30,114,o),
(140,-16,o),
(304,-16,cs)
);
},
{
closed = 1;
nodes = (
(261,144,o),
(204,207,o),
(204,310,cs),
(204,413,o),
(261,476,o),
(354,476,cs),
(447,476,o),
(504,413,o),
(504,310,cs),
(504,207,o),
(447,144,o),
(354,144,cs)
);
}
);
width = 750;
},
{
anchors = (
{
name = bottom;
pos = (300,0);
},
{
name = center;
pos = (300,300);
},
{
name = top;
pos = (300,848);
},
{
name = topright;
pos = (580,848);
}
);
layerId = m005;
shapes = (
{
closed = 1;
nodes = (
(306,-16,o),
(346,6,o),
(368,46,c),
(398,46,l),
(398,0,l),
(508,0,l),
(508,848,l),
(398,848,l),
(398,554,l),
(368,554,l),
(346,594,o),
(306,616,o),
(256,616,cs),
(132,616,o),
(62,502,o),
(62,300,cs),
(62,98,o),
(132,-16,o),
(256,-16,cs)
);
},
{
closed = 1;
nodes = (
(209,86,o),
(170,159,o),
(170,300,cs),
(170,441,o),
(209,514,o),
(286,514,cs),
(363,514,o),
(402,441,o),
(402,300,cs),
(402,159,o),
(363,86,o),
(286,86,cs)
);
}
);
width = 600;
},
{
anchors = (
{
name = bottom;
pos = (300,0);
},
{
name = center;
pos = (300,310);
},
{
name = top;
pos = (300,848);
},
{
name = topright;
pos = (580,848);
}
);
layerId = m006;
shapes = (
{
closed = 1;
nodes = (
(264,-16,o),
(302,10,o),
(322,56,c),
(362,56,l),
(362,0,l),
(542,0,l),
(542,848,l),
(362,848,l),
(362,564,l),
(322,564,l),
(302,610,o),
(264,636,o),
(216,636,cs),
(97,636,o),
(30,519,o),
(30,310,cs),
(30,101,o),
(97,-16,o),
(216,-16,cs)
);
},
{
closed = 1;
nodes = (
(229,138,o),
(200,196,o),
(200,310,cs),
(200,424,o),
(229,482,o),
(286,482,cs),
(343,482,o),
(372,424,o),
(372,310,cs),
(372,196,o),
(343,138,o),
(286,138,cs)
);
}
);
width = 600;
},
{
anchors = (
{
name = bottom;
pos = (375,0);
},
{
name = center;
pos = (375,294);
},
{
name = top;
pos = (375,848);
},
{
name = topright;
pos = (730,848);
}
);
layerId = m007;
shapes = (
{
closed = 1;
nodes = (
(433,-12,o),
(508,27,o),
(544,90,c),
(564,90,l),
(564,0,l),
(604,0,l),
(604,848,l),
(564,848,l),
(564,498,l),
(544,498,l),
(508,561,o),
(433,600,o),
(346,600,cs),
(186,600,o),
(88,484,o),
(88,294,cs),
(88,104,o),
(186,-12,o),
(346,-12,cs)
);
},
{
closed = 1;
nodes = (
(212,24,o),
(129,127,o),
(129,294,cs),
(129,461,o),
(212,564,o),
(348,564,cs),
(484,564,o),
(567,461,o),
(567,294,cs),
(567,127,o),
(484,24,o),
(348,24,cs)
);
}
);
width = 750;
},
{
anchors = (
{
name = bottom;
pos = (300,0);
},
{
name = center;
pos = (300,294);
},
{
name = top;
pos = (300,848);
},
{
name = topright;
pos = (580,848);
}
);
layerId = m009;
shapes = (
{
closed = 1;
nodes = (
(338,-12,o),
(382,12,o),
(410,58,c),
(430,58,l),
(430,0,l),
(470,0,l),
(470,848,l),
(430,848,l),
(430,530,l),
(410,530,l),
(382,576,o),
(338,600,o),
(280,600,cs),
(155,600,o),
(90,496,o),
(90,294,cs),
(90,92,o),
(155,-12,o),
(280,-12,cs)
);
},
{
closed = 1;
nodes = (
(182,24,o),
(130,116,o),
(130,294,cs),
(130,472,o),
(182,564,o),
(282,564,cs),
(382,564,o),
(434,472,o),
(434,294,cs),
(434,116,o),
(382,24,o),
(282,24,cs)
);
}
);
width = 600;
}
);
unicode = 100;
},
{
glyphname = dcaron;
lastChange = "2022-08-28 19:07:44 +0000";
layers = (
{
background = {
shapes = (
{
ref = d;
}
);
};
layerId = m009;
shapes = (
{
closed = 1;
nodes = (
(328,-12,o),
(372,12,o),
(400,58,c),
(420,58,l),
(420,0,l),
(460,0,l),
(460,848,l),
(420,848,l),
(420,530,l),
(400,530,l),
(372,576,o),
(328,600,o),
(270,600,cs),
(145,600,o),
(80,496,o),
(80,294,cs),
(80,92,o),
(145,-12,o),
(270,-12,cs)
);
},
{
closed = 1;
nodes = (
(424,116,o),
(372,24,o),
(272,24,cs),
(172,24,o),
(120,116,o),
(120,294,cs),
(120,472,o),
(172,564,o),
(272,564,cs),
(372,564,o),
(424,472,o),
(424,294,cs)
);
},
{
closed = 1;
nodes = (
(576,648,l),
(625,848,l),
(584,848,l),
(544,648,l)
);
}
);
width = 600;
},
{
background = {
shapes = (
{
ref = d;
}
);
};
layerId = m005;
shapes = (
{
closed = 1;
nodes = (
(288,-16,o),
(326,8,o),
(338,46,c),
(368,46,l),
(368,0,l),
(478,0,l),
(478,848,l),
(368,848,l),
(368,554,l),
(338,554,l),
(326,592,o),
(288,616,o),
(236,616,cs),
(115,616,o),
(52,509,o),
(52,300,cs),
(52,91,o),
(115,-16,o),
(236,-16,cs)
);
},
{
closed = 1;
nodes = (
(372,154,o),
(338,86,o),
(266,86,cs),
(194,86,o),
(160,154,o),
(160,300,cs),
(160,446,o),
(194,514,o),
(266,514,cs),
(338,514,o),
(372,446,o),
(372,300,cs)
);
},
{
closed = 1;
nodes = (
(628,648,l),
(678,848,l),
(568,848,l),
(538,648,l)
);
}
);
width = 600;
},
{
background = {
shapes = (
{
ref = d;
}
);
};
layerId = m006;
shapes = (
{
closed = 1;
nodes = (
(211,-16,o),
(242,10,o),
(252,56,c),
(292,56,l),
(292,0,l),
(472,0,l),
(472,848,l),
(292,848,l),
(292,564,l),
(252,564,l),
(242,610,o),
(211,636,o),
(166,636,cs),
(70,636,o),
(20,532,o),
(20,310,cs),
(20,88,o),
(70,-16,o),
(166,-16,cs)
);
},
{
closed = 1;
nodes = (
(302,190,o),
(285,138,o),
(246,138,cs),
(207,138,o),
(190,190,o),
(190,310,cs),
(190,430,o),
(207,482,o),
(246,482,cs),
(285,482,o),
(302,430,o),
(302,310,cs)
);
},
{
closed = 1;
nodes = (
(624,648,l),
(662,848,l),
(522,848,l),
(502,648,l)
);
}
);
width = 600;
},
{
background = {
shapes = (
{
ref = d;
}
);
};
layerId = m007;
shapes = (
{
closed = 1;
nodes = (
(423,-12,o),
(498,27,o),
(534,90,c),
(554,90,l),
(554,0,l),
(594,0,l),
(594,848,l),
(554,848,l),
(554,498,l),
(534,498,l),
(498,561,o),
(423,600,o),
(336,600,cs),
(176,600,o),
(78,484,o),
(78,294,cs),
(78,104,o),
(176,-12,o),
(336,-12,cs)
);
},
{
closed = 1;
nodes = (
(557,127,o),
(474,24,o),
(338,24,cs),
(202,24,o),
(119,127,o),
(119,294,cs),
(119,461,o),
(202,564,o),
(338,564,cs),
(474,564,o),
(557,461,o),
(557,294,cs)
);
},
{
closed = 1;
nodes = (
(710,648,l),
(760,848,l),
(718,848,l),
(678,648,l)
);
}
);
width = 750;
},
{
background = {
shapes = (
{
ref = d;
}
);
};
layerId = m01;
shapes = (
{
closed = 1;
nodes = (
(386,-16,o),
(439,10,o),
(470,60,c),
(500,60,l),
(500,0,l),
(610,0,l),
(610,848,l),
(500,848,l),
(500,540,l),
(470,540,l),
(439,590,o),
(386,616,o),
(314,616,cs),
(153,616,o),
(54,496,o),
(54,300,cs),
(54,104,o),
(153,-16,o),
(314,-16,cs)
);
},
{
closed = 1;
nodes = (
(504,164,o),
(443,88,o),
(334,88,cs),
(225,88,o),
(164,164,o),
(164,300,cs),
(164,436,o),
(225,512,o),
(334,512,cs),
(443,512,o),
(504,436,o),
(504,300,cs)
);
},
{
closed = 1;
nodes = (
(770,648,l),
(830,848,l),
(720,848,l),
(680,648,l)
);
}
);
width = 750;
},
{
background = {
shapes = (
{
ref = d;
}
);
};
layerId = m002;
shapes = (
{
closed = 1;
nodes = (
(310,-16,o),
(356,11,o),
(380,60,c),
(420,60,l),
(420,0,l),
(600,0,l),
(600,848,l),
(420,848,l),
(420,560,l),
(380,560,l),
(356,609,o),
(310,636,o),
(252,636,cs),
(104,636,o),
(20,519,o),
(20,310,cs),
(20,101,o),
(104,-16,o),
(252,-16,cs)
);
},
{
closed = 1;
nodes = (
(434,200,o),
(393,144,o),
(314,144,cs),
(235,144,o),
(194,200,o),
(194,310,cs),
(194,420,o),
(235,476,o),
(314,476,cs),
(393,476,o),
(434,420,o),
(434,310,cs)
);
},
{
closed = 1;
nodes = (
(779,648,l),
(828,848,l),
(670,848,l),
(640,648,l)
);
}
);
width = 750;
}
);
unicode = 271;
},
{
glyphname = eth;
lastChange = "2022-07-17 13:57:00 +0000";
layers = (
{
background = {
shapes = (
{
ref = o;
}
);
};
layerId = m009;
shapes = (
{
closed = 1;
nodes = (
(429,-12,o),
(496,95,o),
(496,304,cs),
(496,508,o),
(407,702,o),
(250,843,c),
(220,821,l),
(303,751,o),
(378,649,o),
(415,552,c),
(406,548,l),
(382,580,o),
(344,598,o),
(300,598,cs),
(175,598,o),
(104,489,o),
(104,294,cs),
(104,92,o),
(171,-12,o),
(300,-12,cs)
);
},
{
closed = 1;
nodes = (
(144,467,o),
(200,564,o),
(300,564,cs),
(403,564,o),
(456,467,o),
(456,294,cs),
(456,116,o),
(403,24,o),
(300,24,cs),
(197,24,o),
(144,116,o),
(144,294,cs)
);
},
{
closed = 1;
nodes = (
(182,642,l),
(449,760,l),
(438,788,l),
(170,670,l)
);
}
);
width = 600;
},
{
background = {
shapes = (
{
ref = o;
}
);
};
layerId = m005;
shapes = (
{
closed = 1;
nodes = (
(439,-16,o),
(526,106,o),
(526,318,cs),
(526,510,o),
(417,732,o),
(255,874,c),
(178,814,l),
(250,755,o),
(320,671,o),
(357,604,c),
(348,596,l),
(335,603,o),
(312,608,o),
(293,608,cs),
(159,608,o),
(74,491,o),
(74,300,cs),
(74,104,o),
(157,-16,o),
(293,-16,cs)
);
},
{
closed = 1;
nodes = (
(182,441,o),
(222,514,o),
(300,514,cs),
(378,514,o),
(418,441,o),
(418,300,cs),
(418,159,o),
(378,86,o),
(300,86,cs),
(222,86,o),
(182,159,o),
(182,300,cs)
);
},
{
closed = 1;
nodes = (
(172,636,l),
(469,743,l),
(444,817,l),
(147,710,l)
);
}
);
width = 600;
},
{
background = {
shapes = (
{
ref = o;
}
);
};
layerId = m006;
shapes = (
{
closed = 1;
nodes = (
(464,-20,o),
(556,102,o),
(556,320,cs),
(556,539,o),
(438,760,o),
(246,902,c),
(127,816,l),
(204,757,o),
(272,690,o),
(312,635,c),
(302,623,l),
(293,626,o),
(280,628,o),
(269,628,cs),
(130,628,o),
(44,507,o),
(44,310,cs),
(44,99,o),
(136,-20,o),
(300,-20,cs)
);
},
{
closed = 1;
nodes = (
(214,426,o),
(243,486,o),
(300,486,cs),
(357,486,o),
(386,426,o),
(386,310,cs),
(386,194,o),
(357,134,o),
(300,134,cs),
(243,134,o),
(214,194,o),
(214,310,cs)
);
},
{
closed = 1;
nodes = (
(129,635,l),
(498,726,l),
(479,816,l),
(110,725,l)
);
}
);
width = 600;
},
{
background = {
shapes = (
{
ref = o;
}
);
};
layerId = m007;
shapes = (
{
closed = 1;
nodes = (
(541,-12,o),
(640,108,o),
(640,310,cs),
(640,510,o),
(521,702,o),
(307,843,c),
(274,821,l),
(397,744,o),
(496,641,o),
(552,533,c),
(541,526,l),
(503,571,o),
(440,598,o),
(375,598,cs),
(216,598,o),
(110,476,o),
(110,294,cs),
(110,104,o),
(211,-12,o),
(375,-12,cs)
);
},
{
closed = 1;
nodes = (
(151,456,o),
(240,564,o),
(375,564,cs),
(515,564,o),
(599,461,o),
(599,294,cs),
(599,127,o),
(515,24,o),
(375,24,cs),
(235,24,o),
(151,127,o),
(151,294,cs)
);
},
{
closed = 1;
nodes = (
(208,641,l),
(569,759,l),
(561,788,l),
(200,670,l)
);
}
);
width = 750;
},
{
background = {
shapes = (
{
ref = o;
}
);
};
layerId = m01;
shapes = (
{
closed = 1;
nodes = (
(554,-16,o),
(670,111,o),
(670,318,cs),
(670,510,o),
(528,732,o),
(315,874,c),
(226,814,l),
(325,753,o),
(418,670,o),
(466,602,c),
(454,591,l),
(431,603,o),
(398,608,o),
(365,608,cs),
(202,608,o),
(80,485,o),
(80,300,cs),
(80,110,o),
(194,-16,o),
(365,-16,cs)
);
},
{
closed = 1;
nodes = (
(190,431,o),
(260,512,o),
(375,512,cs),
(490,512,o),
(560,431,o),
(560,300,cs),
(560,169,o),
(490,88,o),
(375,88,cs),
(260,88,o),
(190,169,o),
(190,300,cs)
);
},
{
closed = 1;
nodes = (
(195,633,l),
(583,740,l),
(564,817,l),
(176,710,l)
);
}
);
width = 750;
},
{
background = {
shapes = (
{
ref = o;
}
);
};
layerId = m002;
shapes = (
{
closed = 1;
nodes = (
(568,-20,o),
(697,116,o),
(697,320,cs),
(697,539,o),
(549,760,o),
(307,902,c),
(180,816,l),
(292,747,o),
(384,676,o),
(422,629,c),
(411,616,l),
(399,623,o),
(375,628,o),
(354,628,cs),
(173,628,o),
(53,501,o),
(53,310,cs),
(53,112,o),
(182,-20,o),
(375,-20,cs)
);
},
{
closed = 1;
nodes = (
(227,415,o),
(283,480,o),
(375,480,cs),
(467,480,o),
(523,415,o),
(523,310,cs),
(523,205,o),
(467,140,o),
(375,140,cs),
(283,140,o),
(227,205,o),
(227,310,cs)
);
},
{
closed = 1;
nodes = (
(154,634,l),
(618,725,l),
(602,816,l),
(138,725,l)
);
}
);
width = 750;
}
);
unicode = 240;
},
{
glyphname = e;
kernLeft = rnd_left;
kernRight = rnd_right;
lastChange = "2022-12-26 15:46:10 +0000";
layers = (
{
anchors = (
{
name = bottom;
pos = (384,0);
},
{
name = ogonek;
pos = (375,10);
},
{
name = top;
pos = (384,600);
}
);
background = {
shapes = (
{
pos = (20,0);
ref = o;
}
);
};
layerId = m01;
shapes = (
{
closed = 1;
nodes = (
(185,264,l),
(648,264,l),
(649,278,o),
(650,292,o),
(650,307,cs),
(650,499,o),
(550,616,o),
(388,616,cs),
(215,616,o),
(100,492,o),
(100,305,cs),
(100,106,o),
(211,-16,o),
(392,-16,cs),
(528,-16,o),
(638,64,o),
(668,184,c),
(564,184,l),
(525,120,o),
(466,84,o),
(392,84,cs),
(274,84,o),
(208,165,o),
(208,305,cs),
(208,435,o),
(276,516,o),
(388,516,cs),
(490,516,o),
(548,439,o),
(548,305,c),
(585,362,l),
(185,362,l)
);
}
);
width = 750;
},
{
anchors = (
{
name = bottom;
pos = (384,0);
},
{
name = ogonek;
pos = (375,10);
},
{
name = top;
pos = (384,620);
}
);
background = {
shapes = (
{
pos = (18,0);
ref = o;
}
);
};
layerId = m002;
shapes = (
{
closed = 1;
nodes = (
(215,252,l),
(682,252,l),
(685,268,o),
(687,291,o),
(687,313,cs),
(687,516,o),
(570,640,o),
(386,640,cs),
(198,640,o),
(68,509,o),
(68,313,cs),
(68,107,o),
(191,-20,o),
(384,-20,cs),
(534,-20,o),
(650,57,o),
(700,194,c),
(516,194,l),
(487,156,o),
(445,134,o),
(390,134,cs),
(288,134,o),
(242,198,o),
(242,313,cs),
(242,420,o),
(292,486,o),
(386,486,cs),
(482,486,o),
(529,426,o),
(529,313,c),
(583,376,l),
(215,376,l)
);
}
);
width = 750;
},
{
anchors = (
{
name = bottom;
pos = (306,0);
},
{
name = ogonek;
pos = (300,10);
},
{
name = top;
pos = (306,600);
}
);
background = {
shapes = (
{
pos = (14,0);
ref = o;
}
);
};
layerId = m005;
shapes = (
{
closed = 1;
nodes = (
(166,264,l),
(512,264,l),
(513,278,o),
(514,300,o),
(514,317,cs),
(514,514,o),
(445,616,o),
(310,616,cs),
(168,616,o),
(88,504,o),
(88,305,cs),
(88,93,o),
(164,-16,o),
(312,-16,cs),
(427,-16,o),
(500,52,o),
(526,184,c),
(426,184,l),
(400,116,o),
(365,84,o),
(312,84,cs),
(232,84,o),
(194,155,o),
(194,305,cs),
(194,444,o),
(233,516,o),
(310,516,cs),
(379,516,o),
(412,452,o),
(412,317,c),
(450,360,l),
(166,360,l)
);
}
);
width = 600;
},
{
anchors = (
{
name = bottom;
pos = (306,0);
},
{
name = ogonek;
pos = (300,10);
},
{
name = top;
pos = (306,620);
}
);
background = {
shapes = (
{
pos = (10,0);
ref = o;
}
);
};
layerId = m006;
shapes = (
{
closed = 1;
nodes = (
(188,254,l),
(537,254,l),
(540,275,o),
(541,285,o),
(541,313,cs),
(541,529,o),
(461,640,o),
(306,640,cs),
(145,640,o),
(54,522,o),
(54,313,cs),
(54,93,o),
(140,-20,o),
(308,-20,cs),
(437,-20,o),
(520,53,o),
(553,194,c),
(398,194,l),
(372,149,o),
(346,130,o),
(312,130,cs),
(246,130,o),
(224,185,o),
(224,313,cs),
(224,431,o),
(248,490,o),
(306,490,cs),
(362,490,o),
(387,437,o),
(387,313,c),
(453,374,l),
(188,374,l)
);
}
);
width = 600;
},
{
anchors = (
{
name = bottom;
pos = (384,0);
},
{
name = ogonek;
pos = (375,10);
},
{
name = top;
pos = (384,588);
}
);
background = {
shapes = (
{
pos = (18,0);
ref = o;
}
);
};
layerId = m007;
shapes = (
{
closed = 1;
nodes = (
(155,284,l),
(622,284,l),
(623,294,o),
(624,307,o),
(624,318,cs),
(624,498,o),
(537,600,o),
(383,600,cs),
(225,600,o),
(128,486,o),
(128,300,cs),
(128,100,o),
(223,-12,o),
(393,-12,cs),
(515,-12,o),
(604,59,o),
(640,184,c),
(600,184,l),
(570,83,o),
(495,24,o),
(393,24,cs),
(250,24,o),
(169,124,o),
(169,300,cs),
(169,463,o),
(250,564,o),
(383,564,cs),
(513,564,o),
(586,474,o),
(586,318,c),
(600,319,l),
(155,319,l)
);
}
);
width = 750;
},
{
anchors = (
{
name = bottom;
pos = (308,0);
},
{
name = ogonek;
pos = (300,10);
},
{
name = top;
pos = (308,588);
}
);
background = {
shapes = (
{
pos = (10,0);
ref = o;
}
);
};
layerId = m009;
shapes = (
{
closed = 1;
nodes = (
(140,284,l),
(482,284,l),
(483,294,o),
(484,307,o),
(484,318,cs),
(484,510,o),
(427,600,o),
(306,600,cs),
(179,600,o),
(114,498,o),
(114,300,cs),
(114,88,o),
(176,-12,o),
(308,-12,cs),
(412,-12,o),
(472,51,o),
(496,184,c),
(457,184,l),
(437,76,o),
(389,24,o),
(308,24,cs),
(203,24,o),
(154,113,o),
(154,300,cs),
(154,473,o),
(206,564,o),
(306,564,cs),
(401,564,o),
(446,484,o),
(446,316,c),
(460,318,l),
(140,318,l)
);
}
);
width = 600;
}
);
unicode = 101;
},
{
glyphname = f;
kernLeft = f_left;
lastChange = "2022-03-27 12:02:34 +0000";
layers = (
{
layerId = m01;
shapes = (
{
closed = 1;
nodes = (
(396,496,l),
(650,496,l),
(650,600,l),
(396,600,l),
(396,648,ls),
(396,720,o),
(434,762,o),
(498,762,cs),
(551,762,o),
(588,737,o),
(610,690,c),
(712,690,l),
(704,799,o),
(624,864,o),
(498,864,cs),
(365,864,o),
(286,787,o),
(286,658,cs),
(286,600,l),
(140,600,l),
(140,496,l),
(286,496,l),
(286,0,l),
(396,0,l)
);
}
);
width = 750;
},
{
layerId = m002;
shapes = (
{
closed = 1;
nodes = (
(431,460,l),
(680,460,l),
(680,620,l),
(431,620,l),
(431,640,ls),
(431,692,o),
(455,716,o),
(506,716,cs),
(547,716,o),
(572,702,o),
(586,670,c),
(760,670,l),
(750,797,o),
(659,868,o),
(506,868,cs),
(343,868,o),
(251,786,o),
(251,640,cs),
(251,620,l),
(110,620,l),
(110,460,l),
(251,460,l),
(251,0,l),
(431,0,l)
);
}
);
width = 750;
},
{
layerId = m005;
shapes = (
{
closed = 1;
nodes = (
(334,498,l),
(508,498,l),
(508,600,l),
(334,600,l),
(334,678,ls),
(334,732,o),
(359,762,o),
(404,762,cs),
(446,762,o),
(473,736,o),
(487,690,c),
(584,690,l),
(578,798,o),
(510,864,o),
(404,864,cs),
(292,864,o),
(224,793,o),
(224,678,cs),
(224,600,l),
(114,600,l),
(114,498,l),
(224,498,l),
(224,0,l),
(334,0,l)
);
}
);
width = 600;
},
{
layerId = m006;
shapes = (
{
closed = 1;
nodes = (
(366,466,l),
(550,466,l),
(550,620,l),
(366,620,l),
(366,660,ls),
(366,696,o),
(380,718,o),
(405,718,cs),
(429,718,o),
(445,703,o),
(458,670,c),
(620,670,l),
(612,801,o),
(538,868,o),
(403,868,cs),
(260,868,o),
(186,797,o),
(186,660,cs),
(186,620,l),
(70,620,l),
(70,466,l),
(186,466,l),
(186,0,l),
(366,0,l)
);
}
);
width = 600;
},
{
layerId = m007;
shapes = (
{
closed = 1;
nodes = (
(361,552,l),
(620,552,l),
(620,588,l),
(361,588,l),
(361,668,ls),
(361,768,o),
(412,824,o),
(502,824,cs),
(586,824,o),
(639,776,o),
(648,690,c),
(687,690,l),
(677,799,o),
(610,860,o),
(502,860,cs),
(386,860,o),
(321,791,o),
(321,668,cs),
(321,588,l),
(170,588,l),
(170,552,l),
(321,552,l),
(321,0,l),
(361,0,l)
);
}
);
width = 750;
},
{
layerId = m009;
shapes = (
{
closed = 1;
nodes = (
(298,552,l),
(472,552,l),
(472,588,l),
(298,588,l),
(298,688,ls),
(298,775,o),
(335,824,o),
(400,824,cs),
(467,824,o),
(508,776,o),
(514,690,c),
(552,690,l),
(545,799,o),
(490,860,o),
(400,860,cs),
(309,860,o),
(258,798,o),
(258,688,cs),
(258,588,l),
(152,588,l),
(152,552,l),
(258,552,l),
(258,0,l),
(298,0,l)
);
}
);
width = 600;
}
);
unicode = 102;
},
{
glyphname = g;
kernLeft = rnd_left;
lastChange = "2022-09-25 08:59:45 +0000";
layers = (
{
anchors = (
{
name = bottom;
pos = (375,-200);
},
{
name = top;
pos = (385,600);
}
);
background = {
shapes = (
{
pos = (4,0);
ref = o;
}
);
};
layerId = m01;
shapes = (
{
closed = 1;
nodes = (
(646,600,l),
(536,600,l),
(536,546,l),
(506,546,l),
(478,588,o),
(415,616,o),
(348,616,cs),
(190,616,o),
(84,498,o),
(84,320,cs),
(84,145,o),
(190,28,o),
(348,28,cs),
(413,28,o),
(476,54,o),
(506,94,c),
(536,94,l),
(536,30,ls),
(536,-62,o),
(472,-116,o),
(364,-116,cs),
(278,-116,o),
(214,-80,o),
(192,-20,c),
(84,-20,l),
(90,-138,o),
(202,-216,o),
(364,-216,cs),
(539,-216,o),
(646,-122,o),
(646,20,cs)
);
},
{
closed = 1;
nodes = (
(194,439,o),
(260,512,o),
(368,512,cs),
(476,512,o),
(542,439,o),
(542,320,cs),
(542,201,o),
(476,128,o),
(368,128,cs),
(260,128,o),
(194,201,o),
(194,320,cs)
);
}
);
width = 750;
},
{
anchors = (
{
name = bottom;
pos = (385,-200);
},
{
name = top;
pos = (389,620);
}
);
background = {
shapes = (
{
pos = (-6,0);
ref = o;
}
);
};
layerId = m002;
shapes = (
{
closed = 1;
nodes = (
(678,620,l),
(498,620,l),
(498,560,l),
(458,560,l),
(436,606,o),
(378,636,o),
(312,636,cs),
(151,636,o),
(44,511,o),
(44,324,cs),
(44,146,o),
(151,28,o),
(312,28,cs),
(376,28,o),
(434,55,o),
(458,96,c),
(498,96,l),
(498,30,ls),
(498,-32,o),
(443,-70,o),
(352,-70,cs),
(297,-70,o),
(250,-51,o),
(228,-20,c),
(44,-20,l),
(64,-140,o),
(187,-220,o),
(352,-220,cs),
(548,-220,o),
(678,-120,o),
(678,30,cs)
);
},
{
closed = 1;
nodes = (
(218,420,o),
(273,476,o),
(362,476,cs),
(451,476,o),
(506,420,o),
(506,328,cs),
(506,236,o),
(451,180,o),
(362,180,cs),
(273,180,o),
(218,236,o),
(218,328,cs)
);
}
);
width = 750;
},
{
anchors = (
{
name = bottom;
pos = (300,-200);
},
{
name = top;
pos = (310,600);
}
);
background = {
shapes = (
{
pos = (-6,0);
ref = o;
}
);
};
layerId = m005;
shapes = (
{
closed = 1;
nodes = (
(502,600,l),
(392,600,l),
(392,558,l),
(362,558,l),
(342,594,o),
(303,616,o),
(258,616,cs),
(136,616,o),
(68,509,o),
(68,320,cs),
(68,133,o),
(136,28,o),
(258,28,cs),
(302,28,o),
(342,49,o),
(362,84,c),
(392,84,l),
(392,20,ls),
(392,-65,o),
(350,-116,o),
(280,-116,cs),
(218,-116,o),
(180,-87,o),
(162,-30,c),
(64,-30,l),
(70,-149,o),
(148,-216,o),
(280,-216,cs),
(422,-216,o),
(502,-131,o),
(502,20,cs)
);
},
{
closed = 1;
nodes = (
(176,448,o),
(215,514,o),
(288,514,cs),
(361,514,o),
(400,448,o),
(400,320,cs),
(400,192,o),
(361,126,o),
(288,126,cs),
(215,126,o),
(176,192,o),
(176,320,cs)
);
}
);
width = 600;
},
{
anchors = (
{
name = bottom;
pos = (310,-200);
},
{
name = top;
pos = (316,620);
}
);
background = {
shapes = (
{
pos = (-4,0);
ref = o;
}
);
};
layerId = m006;
shapes = (
{
closed = 1;
nodes = (
(542,620,l),
(362,620,l),
(362,564,l),
(324,564,l),
(304,610,o),
(264,636,o),
(212,636,cs),
(102,636,o),
(40,525,o),
(40,328,cs),
(40,136,o),
(102,28,o),
(212,28,cs),
(264,28,o),
(304,51,o),
(322,92,c),
(362,92,l),
(362,30,ls),
(362,-36,o),
(334,-70,o),
(280,-70,cs),
(251,-70,o),
(226,-56,o),
(208,-30,c),
(40,-30,l),
(54,-152,o),
(140,-220,o),
(280,-220,cs),
(448,-220,o),
(542,-130,o),
(542,30,cs)
);
},
{
closed = 1;
nodes = (
(210,430,o),
(238,482,o),
(292,482,cs),
(346,482,o),
(374,430,o),
(374,328,cs),
(374,226,o),
(346,174,o),
(292,174,cs),
(238,174,o),
(210,226,o),
(210,328,cs)
);
}
);
width = 600;
},
{
anchors = (
{
name = bottom;
pos = (375,-200);
},
{
name = top;
pos = (375,588);
}
);
background = {
shapes = (
{
pos = (-4,0);
ref = o;
}
);
};
layerId = m007;
shapes = (
{
closed = 1;
nodes = (
(612,588,l),
(572,588,l),
(572,504,l),
(552,504,l),
(516,564,o),
(443,600,o),
(359,600,cs),
(202,600,o),
(106,491,o),
(106,314,cs),
(106,137,o),
(202,28,o),
(359,28,cs),
(443,28,o),
(516,64,o),
(552,124,c),
(572,124,l),
(572,10,ls),
(572,-105,o),
(491,-176,o),
(358,-176,cs),
(237,-176,o),
(156,-124,o),
(145,-40,c),
(106,-40,l),
(120,-147,o),
(216,-212,o),
(358,-212,cs),
(515,-212,o),
(612,-128,o),
(612,10,cs)
);
},
{
closed = 1;
nodes = (
(147,469,o),
(228,564,o),
(361,564,cs),
(494,564,o),
(575,469,o),
(575,314,cs),
(575,159,o),
(494,64,o),
(361,64,cs),
(228,64,o),
(147,159,o),
(147,314,cs)
);
}
);
width = 750;
},
{
anchors = (
{
name = bottom;
pos = (300,-200);
},
{
name = top;
pos = (300,588);
}
);
background = {
shapes = (
{
pos = (-9,0);
ref = o;
}
);
};
layerId = m009;
shapes = (
{
closed = 1;
nodes = (
(469,588,l),
(429,588,l),
(429,534,l),
(409,534,l),
(383,578,o),
(340,600,o),
(281,600,cs),
(158,600,o),
(95,503,o),
(95,314,cs),
(95,125,o),
(158,28,o),
(281,28,cs),
(340,28,o),
(383,50,o),
(409,94,c),
(429,94,l),
(429,-10,ls),
(429,-120,o),
(379,-176,o),
(282,-176,cs),
(196,-176,o),
(145,-130,o),
(133,-40,c),
(95,-40,l),
(111,-154,o),
(175,-212,o),
(282,-212,cs),
(405,-212,o),
(469,-143,o),
(469,-10,cs)
);
},
{
closed = 1;
nodes = (
(135,479,o),
(185,564,o),
(283,564,cs),
(381,564,o),
(431,479,o),
(431,314,cs),
(431,149,o),
(381,64,o),
(283,64,cs),
(185,64,o),
(135,149,o),
(135,314,cs)
);
}
);
width = 600;
}
);
unicode = 103;
},
{
glyphname = h;
kernLeft = left_ascender;
kernRight = n_right;
lastChange = "2022-11-19 14:40:07 +0000";
layers = (
{
anchors = (
{
name = hbar;
pos = (175,848);
}
);
layerId = m01;
shapes = (
{
closed = 1;
nodes = (
(230,0,l),
(230,346,ls),
(230,451,o),
(284,510,o),
(381,510,cs),
(478,510,o),
(532,451,o),
(532,346,cs),
(532,0,l),
(642,0,l),
(642,376,ls),
(642,520,o),
(550,616,o),
(411,616,cs),
(350,616,o),
(293,592,o),
(260,552,c),
(230,552,l),
(230,848,l),
(120,848,l),
(120,0,l)
);
}
);
width = 750;
},
{
anchors = (
{
name = hbar;
pos = (180,848);
}
);
layerId = m002;
shapes = (
{
closed = 1;
nodes = (
(270,0,l),
(270,340,ls),
(270,430,o),
(307,476,o),
(380,476,cs),
(452,476,o),
(489,430,o),
(489,340,cs),
(489,0,l),
(669,0,l),
(669,370,ls),
(669,543,o),
(594,640,o),
(460,640,cs),
(392,640,o),
(338,611,o),
(310,560,c),
(270,560,l),
(270,848,l),
(90,848,l),
(90,0,l)
);
}
);
width = 750;
},
{
anchors = (
{
name = hbar;
pos = (155,848);
}
);
layerId = m005;
shapes = (
{
closed = 1;
nodes = (
(210,0,l),
(210,386,ls),
(210,473,o),
(240,514,o),
(305,514,cs),
(370,514,o),
(400,473,o),
(400,386,cs),
(400,0,l),
(510,0,l),
(510,416,ls),
(510,540,o),
(449,616,o),
(350,616,cs),
(300,616,o),
(263,597,o),
(240,560,c),
(210,560,l),
(210,848,l),
(100,848,l),
(100,0,l)
);
}
);
width = 600;
},
{
anchors = (
{
name = hbar;
pos = (150,848);
}
);
layerId = m006;
shapes = (
{
closed = 1;
nodes = (
(240,0,l),
(240,362,ls),
(240,433,o),
(260,466,o),
(303,466,cs),
(346,466,o),
(366,433,o),
(366,362,cs),
(366,0,l),
(546,0,l),
(546,430,ls),
(546,564,o),
(493,640,o),
(399,640,cs),
(342,640,o),
(299,611,o),
(280,560,c),
(240,560,l),
(240,848,l),
(60,848,l),
(60,0,l)
);
}
);
width = 600;
},
{
anchors = (
{
name = hbar;
pos = (170,848);
}
);
layerId = m007;
shapes = (
{
closed = 1;
nodes = (
(190,0,l),
(190,356,ls),
(190,484,o),
(263,562,o),
(383,562,cs),
(502,562,o),
(575,484,o),
(575,356,cs),
(575,0,l),
(615,0,l),
(615,362,ls),
(615,510,o),
(528,600,o),
(387,600,cs),
(313,600,o),
(246,570,o),
(210,520,c),
(190,520,l),
(190,848,l),
(150,848,l),
(150,0,l)
);
}
);
width = 750;
},
{
anchors = (
{
name = hbar;
pos = (160,848);
}
);
layerId = m009;
shapes = (
{
closed = 1;
nodes = (
(180,0,l),
(180,396,ls),
(180,506,o),
(223,562,o),
(307,562,cs),
(391,562,o),
(434,506,o),
(434,396,cs),
(434,0,l),
(474,0,l),
(474,402,ls),
(474,529,o),
(416,600,o),
(313,600,cs),
(267,600,o),
(226,583,o),
(200,554,c),
(180,554,l),
(180,848,l),
(140,848,l),
(140,0,l)
);
}
);
width = 600;
}
);
unicode = 104;
},
{
glyphname = idotless;
lastChange = "2022-09-25 08:59:51 +0000";
layers = (
{
anchors = (
{
name = bottom;
pos = (402,0);
},
{
name = ogonek;
pos = (655,10);
},
{
name = top;
pos = (402,600);
},
{
name = topacute;
pos = (402,600);
},
{
name = topgrave;
pos = (402,600);
}
);
background = {
shapes = (
{
pos = (40,0);
ref = "en-cy";
}
);
};
layerId = m01;
shapes = (
{
closed = 1;
nodes = (
(155,496,l),
(355,496,l),
(355,104,l),
(155,104,l),
(155,0,l),
(665,0,l),
(665,104,l),
(465,104,l),
(465,600,l),
(155,600,l)
);
}
);
width = 750;
},
{
anchors = (
{
name = bottom;
pos = (407,0);
},
{
name = ogonek;
pos = (688,10);
},
{
name = top;
pos = (407,620);
},
{
name = topacute;
pos = (407,620);
},
{
name = topgrave;
pos = (407,620);
}
);
background = {
shapes = (
{
pos = (40,0);
ref = "en-cy";
}
);
};
layerId = m002;
shapes = (
{
closed = 1;
nodes = (
(130,460,l),
(325,460,l),
(325,160,l),
(130,160,l),
(130,0,l),
(700,0,l),
(700,160,l),
(505,160,l),
(505,620,l),
(130,620,l)
);
}
);
width = 750;
},
{
anchors = (
{
name = bottom;
pos = (317,0);
},
{
name = ogonek;
pos = (517,10);
},
{
name = top;
pos = (317,600);
},
{
name = topacute;
pos = (317,600);
},
{
name = topgrave;
pos = (317,600);
}
);
layerId = m005;
shapes = (
{
closed = 1;
nodes = (
(125,498,l),
(270,498,l),
(270,102,l),
(125,102,l),
(125,0,l),
(525,0,l),
(525,102,l),
(380,102,l),
(380,600,l),
(125,600,l)
);
}
);
width = 600;
},
{
anchors = (
{
name = bottom;
pos = (322,0);
},
{
name = ogonek;
pos = (560,10);
},
{
name = top;
pos = (322,620);
},
{
name = topacute;
pos = (322,620);
},
{
name = topgrave;
pos = (322,620);
}
);
layerId = m006;
shapes = (
{
closed = 1;
nodes = (
(90,466,l),
(240,466,l),
(240,154,l),
(90,154,l),
(90,0,l),
(570,0,l),
(570,154,l),
(420,154,l),
(420,620,l),
(90,620,l)
);
}
);
width = 600;
},
{
anchors = (
{
name = bottom;
pos = (401,0);
},
{
name = ogonek;
pos = (620,10);
},
{
name = top;
pos = (401,588);
},
{
name = topacute;
pos = (401,588);
},
{
name = topgrave;
pos = (401,588);
}
);
background = {
shapes = (
{
pos = (40,0);
ref = "en-cy";
}
);
};
layerId = m007;
shapes = (
{
closed = 1;
nodes = (
(180,552,l),
(385,552,l),
(385,36,l),
(180,36,l),
(180,0,l),
(630,0,l),
(630,36,l),
(425,36,l),
(425,588,l),
(180,588,l)
);
}
);
width = 750;
},
{
anchors = (
{
name = bottom;
pos = (316,0);
},
{
name = ogonek;
pos = (472,10);
},
{
name = top;
pos = (316,588);
},
{
name = topacute;
pos = (316,588);
},
{
name = topgrave;
pos = (316,588);
}
);
layerId = m009;
shapes = (
{
closed = 1;
nodes = (
(160,552,l),
(300,552,l),
(300,36,l),
(160,36,l),
(160,0,l),
(480,0,l),
(480,36,l),
(340,36,l),
(340,588,l),
(160,588,l)
);
}
);
width = 600;
}
);
unicode = 305;
},
{
glyphname = ij;
lastChange = "2022-09-01 19:58:08 +0000";
layers = (
{
background = {
shapes = (
{
ref = H;
}
);
};
layerId = m009;
shapes = (
{
closed = 1;
nodes = (
(120,588,l),
(120,0,l),
(160,0,l),
(160,588,l)
);
},
{
closed = 1;
nodes = (
(162,680,o),
(172,701,o),
(172,750,cs),
(172,799,o),
(162,820,o),
(140,820,cs),
(118,820,o),
(108,799,o),
(108,750,cs),
(108,701,o),
(118,680,o),
(140,680,cs)
);
},
{
closed = 1;
nodes = (
(440,588,l),
(440,-26,ls),
(440,-125,o),
(405,-176,o),
(338,-176,cs),
(280,-176,l),
(280,-212,l),
(338,-212,ls),
(432,-212,o),
(480,-149,o),
(480,-26,cs),
(480,588,l)
);
},
{
closed = 1;
nodes = (
(482,680,o),
(492,701,o),
(492,750,cs),
(492,799,o),
(482,820,o),
(460,820,cs),
(438,820,o),
(428,799,o),
(428,750,cs),
(428,701,o),
(438,680,o),
(460,680,cs)
);
}
);
width = 600;
},
{
background = {
shapes = (
{
ref = H;
}
);
};
layerId = m005;
shapes = (
{
closed = 1;
nodes = (
(80,600,l),
(80,0,l),
(190,0,l),
(190,600,l)
);
},
{
closed = 1;
nodes = (
(182,684,o),
(209,716,o),
(209,770,cs),
(209,824,o),
(182,856,o),
(135,856,cs),
(88,856,o),
(61,824,o),
(61,770,cs),
(61,716,o),
(88,684,o),
(135,684,cs)
);
},
{
closed = 1;
nodes = (
(410,600,l),
(410,-26,ls),
(410,-82,o),
(384,-114,o),
(338,-114,cs),
(284,-114,l),
(284,-216,l),
(338,-216,ls),
(451,-216,o),
(520,-144,o),
(520,-26,cs),
(520,600,l)
);
},
{
closed = 1;
nodes = (
(512,684,o),
(539,716,o),
(539,770,cs),
(539,824,o),
(512,856,o),
(465,856,cs),
(418,856,o),
(391,824,o),
(391,770,cs),
(391,716,o),
(418,684,o),
(465,684,cs)
);
}
);
width = 600;
},
{
background = {
shapes = (
{
ref = H;
}
);
};
layerId = m006;
shapes = (
{
closed = 1;
nodes = (
(40,620,l),
(40,0,l),
(220,0,l),
(220,620,l)
);
},
{
closed = 1;
nodes = (
(203,692,o),
(244,727,o),
(244,788,cs),
(244,849,o),
(203,884,o),
(130,884,cs),
(57,884,o),
(16,849,o),
(16,788,cs),
(16,727,o),
(57,692,o),
(130,692,cs)
);
},
{
closed = 1;
nodes = (
(380,620,l),
(380,-20,ls),
(380,-56,o),
(367,-74,o),
(341,-74,cs),
(286,-74,l),
(286,-220,l),
(344,-220,ls),
(482,-220,o),
(560,-147,o),
(560,-18,cs),
(560,620,l)
);
},
{
closed = 1;
nodes = (
(543,692,o),
(584,727,o),
(584,788,cs),
(584,849,o),
(543,884,o),
(470,884,cs),
(397,884,o),
(356,849,o),
(356,788,cs),
(356,727,o),
(397,692,o),
(470,692,cs)
);
}
);
width = 600;
},
{
background = {
shapes = (
{
ref = H;
}
);
};
layerId = m007;
shapes = (
{
closed = 1;
nodes = (
(160,588,l),
(160,0,l),
(200,0,l),
(200,588,l)
);
},
{
closed = 1;
nodes = (
(202,680,o),
(212,701,o),
(212,750,cs),
(212,799,o),
(202,820,o),
(180,820,cs),
(158,820,o),
(148,799,o),
(148,750,cs),
(148,701,o),
(158,680,o),
(180,680,cs)
);
},
{
closed = 1;
nodes = (
(550,588,l),
(550,-16,ls),
(550,-118,o),
(501,-176,o),
(415,-176,c),
(314,-176,l),
(314,-212,l),
(415,-212,l),
(527,-212,o),
(590,-141,o),
(590,-16,cs),
(590,588,l)
);
},
{
closed = 1;
nodes = (
(592,680,o),
(602,701,o),
(602,750,cs),
(602,799,o),
(592,820,o),
(570,820,cs),
(548,820,o),
(538,799,o),
(538,750,cs),
(538,701,o),
(548,680,o),
(570,680,cs)
);
}
);
width = 750;
},
{
background = {
shapes = (
{
ref = H;
}
);
};
layerId = m01;
shapes = (
{
closed = 1;
nodes = (
(120,600,l),
(120,0,l),
(230,0,l),
(230,600,l)
);
},
{
closed = 1;
nodes = (
(230,692,o),
(263,721,o),
(263,770,cs),
(263,819,o),
(230,848,o),
(175,848,cs),
(120,848,o),
(87,819,o),
(87,770,cs),
(87,721,o),
(120,692,o),
(175,692,cs)
);
},
{
closed = 1;
nodes = (
(520,600,l),
(520,-6,ls),
(520,-75,o),
(482,-116,o),
(418,-116,c),
(334,-116,l),
(334,-216,l),
(418,-216,l),
(554,-216,o),
(630,-144,o),
(630,-16,cs),
(630,600,l)
);
},
{
closed = 1;
nodes = (
(630,692,o),
(663,721,o),
(663,770,cs),
(663,819,o),
(630,848,o),
(575,848,cs),
(520,848,o),
(487,819,o),
(487,770,cs),
(487,721,o),
(520,692,o),
(575,692,cs)
);
}
);
width = 750;
},
{
background = {
shapes = (
{
ref = H;
}
);
};
layerId = m002;
shapes = (
{
closed = 1;
nodes = (
(80,620,l),
(80,0,l),
(260,0,l),
(260,620,l)
);
},
{
closed = 1;
nodes = (
(243,692,o),
(284,727,o),
(284,788,cs),
(284,849,o),
(243,884,o),
(170,884,cs),
(97,884,o),
(56,849,o),
(56,788,cs),
(56,727,o),
(97,692,o),
(170,692,cs)
);
},
{
closed = 1;
nodes = (
(490,620,l),
(490,10,ls),
(490,-40,o),
(461,-70,o),
(412,-70,c),
(350,-70,l),
(350,-220,l),
(412,-220,l),
(577,-220,o),
(670,-137,o),
(670,10,cs),
(670,620,l)
);
},
{
closed = 1;
nodes = (
(653,692,o),
(694,727,o),
(694,788,cs),
(694,849,o),
(653,884,o),
(580,884,cs),
(507,884,o),
(466,849,o),
(466,788,cs),
(466,727,o),
(507,692,o),
(580,692,cs)
);
}
);
width = 750;
}
);
unicode = 307;
},
{
glyphname = jdotless;
lastChange = "2022-09-18 19:36:25 +0000";
layers = (
{
anchors = (
{
name = top;
pos = (480,600);
},
{
name = topacute;
pos = (480,600);
}
);
background = {
shapes = (
{
ref = i;
}
);
};
layerId = m01;
shapes = (
{
closed = 1;
nodes = (
(145,496,l),
(425,496,l),
(425,-6,ls),
(425,-75,o),
(387,-116,o),
(323,-116,cs),
(269,-116,o),
(233,-92,o),
(213,-46,c),
(109,-46,l),
(118,-155,o),
(195,-216,o),
(323,-216,cs),
(459,-216,o),
(535,-144,o),
(535,-16,cs),
(535,600,l),
(145,600,l)
);
}
);
width = 750;
},
{
anchors = (
{
name = top;
pos = (480,620);
},
{
name = topacute;
pos = (476,620);
}
);
background = {
shapes = (
{
ref = i;
}
);
};
layerId = m002;
shapes = (
{
closed = 1;
nodes = (
(130,460,l),
(390,460,l),
(390,10,ls),
(390,-40,o),
(361,-70,o),
(312,-70,cs),
(280,-70,o),
(256,-55,o),
(240,-26,c),
(60,-26,l),
(69,-150,o),
(160,-220,o),
(312,-220,cs),
(477,-220,o),
(570,-137,o),
(570,10,cs),
(570,620,l),
(130,620,l)
);
}
);
width = 750;
},
{
anchors = (
{
name = top;
pos = (382,600);
},
{
name = topacute;
pos = (382,600);
}
);
background = {
shapes = (
{
ref = i;
}
);
};
layerId = m005;
shapes = (
{
closed = 1;
nodes = (
(107,498,l),
(327,498,l),
(327,-26,ls),
(327,-82,o),
(301,-114,o),
(255,-114,cs),
(214,-114,o),
(188,-90,o),
(175,-46,c),
(75,-46,l),
(81,-151,o),
(149,-216,o),
(255,-216,cs),
(368,-216,o),
(437,-144,o),
(437,-26,cs),
(437,600,l),
(107,600,l)
);
}
);
width = 600;
},
{
anchors = (
{
name = top;
pos = (382,620);
},
{
name = topacute;
pos = (372,620);
}
);
background = {
shapes = (
{
ref = i;
}
);
};
layerId = m006;
shapes = (
{
closed = 1;
nodes = (
(80,466,l),
(292,466,l),
(292,-20,ls),
(292,-56,o),
(279,-74,o),
(253,-74,cs),
(232,-74,o),
(218,-59,o),
(204,-26,c),
(38,-26,l),
(43,-150,o),
(121,-220,o),
(256,-220,cs),
(394,-220,o),
(472,-147,o),
(472,-18,cs),
(472,620,l),
(80,620,l)
);
}
);
width = 600;
},
{
anchors = (
{
name = top;
pos = (480,588);
},
{
name = topacute;
pos = (480,588);
}
);
background = {
shapes = (
{
ref = i;
}
);
};
layerId = m007;
shapes = (
{
closed = 1;
nodes = (
(160,552,l),
(460,552,l),
(460,-16,ls),
(460,-118,o),
(411,-176,o),
(325,-176,cs),
(244,-176,o),
(190,-129,o),
(174,-46,c),
(134,-46,l),
(152,-152,o),
(221,-212,o),
(325,-212,cs),
(437,-212,o),
(500,-141,o),
(500,-16,cs),
(500,588,l),
(160,588,l)
);
}
);
width = 750;
},
{
anchors = (
{
name = top;
pos = (372,588);
},
{
name = topacute;
pos = (374,588);
}
);
background = {
shapes = (
{
ref = i;
}
);
};
layerId = m009;
shapes = (
{
closed = 1;
nodes = (
(120,552,l),
(352,552,l),
(352,-26,ls),
(352,-125,o),
(317,-176,o),
(250,-176,cs),
(182,-176,o),
(144,-132,o),
(138,-46,c),
(98,-46,l),
(106,-156,o),
(158,-212,o),
(250,-212,cs),
(344,-212,o),
(392,-149,o),
(392,-26,cs),
(392,588,l),
(120,588,l)
);
}
);
width = 600;
}
);
unicode = 567;
},
{
glyphname = k;
kernLeft = left_ascender;
kernRight = k_right;
lastChange = "2022-11-19 14:52:36 +0000";
layers = (
{
anchors = (
{
name = bottom;
pos = (405,0);
},
{
name = top;
pos = (405,848);
}
);
background = {
shapes = (
{
pos = (52,0);
ref = "en-cy";
}
);
};
layerId = m01;
shapes = (
{
closed = 1;
nodes = (
(682,0,l),
(393,296,l),
(686,600,l),
(541,600,l),
(246,292,l),
(531,0,l)
);
},
{
closed = 1;
nodes = (
(282,0,l),
(282,848,l),
(172,848,l),
(172,0,l)
);
}
);
width = 750;
},
{
anchors = (
{
name = bottom;
pos = (395,0);
},
{
name = top;
pos = (395,848);
}
);
background = {
shapes = (
{
pos = (30,0);
ref = "en-cy";
}
);
};
layerId = m002;
shapes = (
{
closed = 1;
nodes = (
(710,0,l),
(460,310,l),
(714,620,l),
(516,620,l),
(254,300,l),
(497,0,l)
);
},
{
closed = 1;
nodes = (
(300,0,l),
(300,848,l),
(120,848,l),
(120,0,l)
);
}
);
width = 750;
},
{
anchors = (
{
name = bottom;
pos = (330,0);
},
{
name = top;
pos = (330,848);
}
);
background = {
shapes = (
{
pos = (26,0);
ref = "en-cy";
}
);
};
layerId = m005;
shapes = (
{
closed = 1;
nodes = (
(552,0,l),
(346,296,l),
(554,600,l),
(428,600,l),
(218,292,l),
(420,0,l)
);
},
{
closed = 1;
nodes = (
(246,0,l),
(246,848,l),
(136,848,l),
(136,0,l)
);
}
);
width = 600;
},
{
anchors = (
{
name = bottom;
pos = (320,0);
},
{
name = top;
pos = (320,848);
}
);
background = {
shapes = (
{
pos = (8,0);
ref = "en-cy";
}
);
};
layerId = m006;
shapes = (
{
closed = 1;
nodes = (
(582,0,l),
(421,311,l),
(584,620,l),
(403,620,l),
(235,300,l),
(391,0,l)
);
},
{
closed = 1;
nodes = (
(260,0,l),
(260,848,l),
(80,848,l),
(80,0,l)
);
}
);
width = 600;
},
{
anchors = (
{
name = bottom;
pos = (415,0);
},
{
name = top;
pos = (415,848);
}
);
background = {
shapes = (
{
pos = (54,0);
ref = "en-cy";
}
);
};
layerId = m007;
shapes = (
{
closed = 1;
nodes = (
(666,0,l),
(312,291,l),
(670,588,l),
(612,588,l),
(252,290,l),
(604,0,l)
);
},
{
closed = 1;
nodes = (
(264,0,l),
(264,848,l),
(224,848,l),
(224,0,l)
);
}
);
width = 750;
},
{
anchors = (
{
name = bottom;
pos = (340,0);
},
{
name = top;
pos = (340,848);
}
);
background = {
shapes = (
{
pos = (10,0);
ref = "en-cy";
}
);
};
layerId = m009;
shapes = (
{
closed = 1;
nodes = (
(510,0,l),
(268,292,l),
(512,588,l),
(464,588,l),
(218,290,l),
(458,0,l)
);
},
{
closed = 1;
nodes = (
(230,0,l),
(230,848,l),
(190,848,l),
(190,0,l)
);
}
);
width = 600;
}
);
unicode = 107;
},
{
glyphname = l;
kernLeft = left_ascender;
lastChange = "2022-09-17 15:26:24 +0000";
layers = (
{
anchors = (
{
name = bottom;
pos = (395,0);
},
{
name = center;
pos = (375,424);
},
{
name = top;
pos = (375,848);
},
{
name = topacute;
pos = (396,848);
},
{
name = topright;
pos = (520,848);
}
);
background = {
shapes = (
{
pos = (-160,0);
ref = dcaron;
}
);
};
layerId = m01;
shapes = (
{
closed = 1;
nodes = (
(140,744,l),
(340,744,l),
(340,104,l),
(140,104,l),
(140,0,l),
(650,0,l),
(650,104,l),
(450,104,l),
(450,848,l),
(140,848,l)
);
}
);
width = 750;
},
{
anchors = (
{
name = bottom;
pos = (395,0);
},
{
name = center;
pos = (375,424);
},
{
name = top;
pos = (375,848);
},
{
name = topacute;
pos = (394,848);
},
{
name = topright;
pos = (525,848);
}
);
background = {
shapes = (
{
pos = (-115,0);
ref = dcaron;
}
);
};
layerId = m002;
shapes = (
{
closed = 1;
nodes = (
(110,688,l),
(305,688,l),
(305,160,l),
(110,160,l),
(110,0,l),
(680,0,l),
(680,160,l),
(485,160,l),
(485,848,l),
(110,848,l)
);
}
);
width = 750;
},
{
anchors = (
{
name = bottom;
pos = (310,0);
},
{
name = center;
pos = (300,424);
},
{
name = top;
pos = (300,848);
},
{
name = topacute;
pos = (310,848);
},
{
name = topright;
pos = (425,848);
}
);
background = {
shapes = (
{
pos = (-113,0);
ref = dcaron;
}
);
};
layerId = m005;
shapes = (
{
closed = 1;
nodes = (
(110,746,l),
(255,746,l),
(255,102,l),
(110,102,l),
(110,0,l),
(510,0,l),
(510,102,l),
(365,102,l),
(365,848,l),
(110,848,l)
);
}
);
width = 600;
},
{
anchors = (
{
name = bottom;
pos = (315,0);
},
{
name = center;
pos = (300,424);
},
{
name = top;
pos = (300,848);
},
{
name = topacute;
pos = (316,848);
},
{
name = topright;
pos = (435,848);
}
);
background = {
shapes = (
{
pos = (-67,0);
ref = dcaron;
}
);
};
layerId = m006;
shapes = (
{
closed = 1;
nodes = (
(75,694,l),
(225,694,l),
(225,154,l),
(75,154,l),
(75,0,l),
(555,0,l),
(555,154,l),
(405,154,l),
(405,848,l),
(75,848,l)
);
}
);
width = 600;
},
{
anchors = (
{
name = bottom;
pos = (395,0);
},
{
name = center;
pos = (375,424);
},
{
name = top;
pos = (375,848);
},
{
name = topacute;
pos = (396,848);
},
{
name = topright;
pos = (498,848);
}
);
background = {
shapes = (
{
pos = (-179,0);
ref = dcaron;
}
);
};
layerId = m007;
shapes = (
{
closed = 1;
nodes = (
(170,812,l),
(375,812,l),
(375,36,l),
(170,36,l),
(170,0,l),
(620,0,l),
(620,36,l),
(415,36,l),
(415,848,l),
(170,848,l)
);
}
);
width = 750;
},
{
anchors = (
{
name = bottom;
pos = (305,0);
},
{
name = center;
pos = (300,424);
},
{
name = top;
pos = (300,848);
},
{
name = topacute;
pos = (310,848);
},
{
name = topright;
pos = (408,848);
}
);
background = {
shapes = (
{
pos = (-135,0);
ref = dcaron;
}
);
};
layerId = m009;
shapes = (
{
closed = 1;
nodes = (
(145,812,l),
(285,812,l),
(285,36,l),
(145,36,l),
(145,0,l),
(465,0,l),
(465,36,l),
(325,36,l),
(325,848,l),
(145,848,l)
);
}
);
width = 600;
}
);
unicode = 108;
},
{
glyphname = lslash;
lastChange = "2022-09-18 18:40:39 +0000";
layers = (
{
background = {
shapes = (
{
closed = 1;
nodes = (
(450,486,l),
(450,527,l),
(150,362,l),
(150,321,l)
);
}
);
};
layerId = m009;
shapes = (
{
ref = l;
},
{
closed = 1;
nodes = (
(430,476,l),
(430,516,l),
(170,372,l),
(170,332,l)
);
}
);
width = 600;
},
{
background = {
shapes = (
{
closed = 1;
nodes = (
(460,456,l),
(460,568,l),
(142,393,l),
(142,281,l)
);
}
);
};
layerId = m005;
shapes = (
{
ref = l;
},
{
closed = 1;
nodes = (
(470,476,l),
(470,579,l),
(130,392,l),
(130,289,l)
);
}
);
width = 600;
},
{
background = {
shapes = (
{
closed = 1;
nodes = (
(480,415,l),
(480,575,l),
(119,376,l),
(119,216,l)
);
}
);
};
layerId = m006;
shapes = (
{
ref = l;
},
{
closed = 1;
nodes = (
(500,481,l),
(500,629,l),
(100,407,l),
(100,259,l)
);
}
);
width = 600;
},
{
background = {
shapes = (
{
closed = 1;
nodes = (
(554,544,l),
(554,585,l),
(224,403,l),
(224,362,l)
);
}
);
};
layerId = m007;
shapes = (
{
ref = l;
},
{
closed = 1;
nodes = (
(560,548,l),
(560,588,l),
(200,390,l),
(200,350,l)
);
}
);
width = 750;
},
{
background = {
shapes = (
{
closed = 1;
nodes = (
(484,458,l),
(484,568,l),
(84,348,l),
(84,238,l)
);
}
);
};
layerId = m01;
shapes = (
{
ref = l;
},
{
closed = 1;
nodes = (
(590,525,l),
(590,629,l),
(170,399,l),
(170,295,l)
);
}
);
width = 750;
},
{
layerId = m002;
shapes = (
{
ref = l;
},
{
closed = 1;
nodes = (
(622,541,l),
(622,689,l),
(140,425,l),
(140,277,l)
);
}
);
width = 750;
}
);
unicode = 322;
},
{
glyphname = m;
kernLeft = sqr_left;
kernRight = n_right;
lastChange = "2022-03-13 12:44:30 +0000";
layers = (
{
background = {
shapes = (
{
pos = (-40,0);
ref = n;
}
);
};
layerId = m01;
shapes = (
{
closed = 1;
nodes = (
(80,0,l),
(190,0,l),
(190,400,ls),
(190,461,o),
(212,492,o),
(256,492,cs),
(300,492,o),
(322,461,o),
(322,400,cs),
(322,0,l),
(432,0,l),
(432,400,ls),
(432,461,o),
(454,492,o),
(498,492,cs),
(542,492,o),
(564,461,o),
(564,400,cs),
(564,0,l),
(674,0,l),
(674,446,ls),
(674,548,o),
(621,616,o),
(542,616,cs),
(476,616,o),
(429,574,o),
(425,512,c),
(485,546,l),
(357,546,l),
(422,498,l),
(413,569,o),
(369,616,o),
(312,616,cs),
(249,616,o),
(208,576,o),
(204,512,c),
(269,552,l),
(190,552,l),
(190,600,l),
(80,600,l)
);
}
);
width = 750;
},
{
background = {
shapes = (
{
pos = (-48,0);
ref = n;
}
);
};
layerId = m002;
shapes = (
{
closed = 1;
nodes = (
(42,0,l),
(206,0,l),
(206,404,ls),
(206,437,o),
(222,456,o),
(250,456,cs),
(278,456,o),
(294,437,o),
(294,404,cs),
(294,0,l),
(458,0,l),
(458,404,ls),
(458,437,o),
(474,456,o),
(502,456,cs),
(530,456,o),
(546,437,o),
(546,404,cs),
(546,0,l),
(710,0,l),
(710,473,ls),
(710,580,o),
(671,640,o),
(603,640,cs),
(535,640,o),
(495,590,o),
(491,500,c),
(563,550,l),
(414,550,l),
(467,500,l),
(462,590,o),
(425,640,o),
(364,640,cs),
(296,640,o),
(256,590,o),
(252,500,c),
(323,550,l),
(222,550,l),
(222,620,l),
(42,620,l)
);
}
);
width = 750;
},
{
background = {
shapes = (
{
pos = (-33,0);
ref = n;
}
);
};
layerId = m005;
shapes = (
{
closed = 1;
nodes = (
(67,0,l),
(163,0,l),
(163,440,ls),
(163,480,o),
(179,500,o),
(210,500,cs),
(240,500,o),
(255,480,o),
(255,440,cs),
(255,0,l),
(349,0,l),
(349,440,ls),
(349,480,o),
(364,500,o),
(394,500,cs),
(425,500,o),
(441,480,o),
(441,440,cs),
(441,0,l),
(537,0,l),
(537,476,ls),
(537,564,o),
(506,616,o),
(454,616,cs),
(410,616,o),
(382,581,o),
(378,522,c),
(426,550,l),
(294,550,l),
(350,520,l),
(346,580,o),
(320,616,o),
(280,616,cs),
(238,616,o),
(212,583,o),
(210,526,c),
(256,552,l),
(177,552,l),
(177,600,l),
(67,600,l)
);
}
);
width = 600;
},
{
background = {
shapes = (
{
pos = (-60,0);
ref = n;
}
);
};
layerId = m006;
shapes = (
{
closed = 1;
nodes = (
(28,0,l),
(172,0,l),
(172,416,ls),
(172,444,o),
(182,458,o),
(201,458,cs),
(220,458,o),
(230,444,o),
(230,416,cs),
(230,0,l),
(374,0,l),
(374,416,ls),
(374,444,o),
(384,458,o),
(403,458,cs),
(422,458,o),
(432,444,o),
(432,416,cs),
(432,0,l),
(576,0,l),
(576,483,ls),
(576,590,o),
(548,640,o),
(489,640,cs),
(430,640,o),
(399,592,o),
(399,500,c),
(457,550,l),
(326,550,l),
(379,500,l),
(377,595,o),
(349,640,o),
(292,640,cs),
(236,640,o),
(206,592,o),
(206,500,c),
(263,550,l),
(180,550,l),
(180,620,l),
(28,620,l)
);
}
);
width = 600;
},
{
background = {
shapes = (
{
pos = (-50,0);
ref = n;
}
);
};
layerId = m007;
shapes = (
{
closed = 1;
nodes = (
(100,0,l),
(140,0,l),
(140,416,ls),
(140,509,o),
(179,562,o),
(248,562,cs),
(317,562,o),
(356,509,o),
(356,416,cs),
(356,0,l),
(396,0,l),
(396,416,ls),
(396,509,o),
(435,562,o),
(504,562,cs),
(573,562,o),
(612,509,o),
(612,416,cs),
(612,0,l),
(652,0,l),
(652,422,ls),
(652,532,o),
(599,600,o),
(512,600,cs),
(450,600,o),
(402,568,o),
(387,517,c),
(416,536,l),
(351,536,l),
(381,508,l),
(362,567,o),
(317,600,o),
(256,600,cs),
(200,600,o),
(156,574,o),
(144,528,c),
(178,540,l),
(140,540,l),
(140,588,l),
(100,588,l)
);
}
);
width = 750;
},
{
background = {
shapes = (
{
pos = (-46,0);
ref = n;
}
);
};
layerId = m009;
shapes = (
{
closed = 1;
nodes = (
(94,0,l),
(134,0,l),
(134,456,ls),
(134,526,o),
(160,562,o),
(209,562,cs),
(258,562,o),
(284,526,o),
(284,456,cs),
(284,0,l),
(324,0,l),
(324,456,ls),
(324,526,o),
(350,562,o),
(399,562,cs),
(448,562,o),
(474,526,o),
(474,456,cs),
(474,0,l),
(514,0,l),
(514,462,ls),
(514,550,o),
(472,600,o),
(407,600,cs),
(358,600,o),
(324,574,o),
(313,527,c),
(334,556,l),
(289,556,l),
(307,527,l),
(300,574,o),
(266,600,o),
(217,600,cs),
(178,600,o),
(148,579,o),
(141,547,c),
(154,560,l),
(134,560,l),
(134,588,l),
(94,588,l)
);
}
);
width = 600;
}
);
unicode = 109;
},
{
glyphname = n;
kernLeft = sqr_left;
kernRight = n_right;
lastChange = "2022-11-19 14:36:15 +0000";
layers = (
{
anchors = (
{
name = bottom;
pos = (375,0);
},
{
name = bottomright;
pos = (642,0);
},
{
name = hookleft;
pos = (120,0);
},
{
name = top;
pos = (375,600);
}
);
layerId = m01;
shapes = (
{
closed = 1;
nodes = (
(230,0,l),
(230,346,ls),
(230,451,o),
(284,510,o),
(381,510,cs),
(478,510,o),
(532,451,o),
(532,346,cs),
(532,0,l),
(642,0,l),
(642,376,ls),
(642,520,o),
(550,616,o),
(411,616,cs),
(350,616,o),
(293,592,o),
(260,552,c),
(230,552,l),
(230,600,l),
(120,600,l),
(120,0,l)
);
}
);
width = 750;
},
{
anchors = (
{
name = bottom;
pos = (375,0);
},
{
name = bottomright;
pos = (669,0);
},
{
name = hookleft;
pos = (90,0);
},
{
name = top;
pos = (375,620);
}
);
layerId = m002;
shapes = (
{
closed = 1;
nodes = (
(270,0,l),
(270,340,ls),
(270,430,o),
(307,476,o),
(380,476,cs),
(452,476,o),
(489,430,o),
(489,340,cs),
(489,0,l),
(669,0,l),
(669,370,ls),
(669,543,o),
(594,640,o),
(460,640,cs),
(392,640,o),
(338,611,o),
(310,560,c),
(270,560,l),
(270,620,l),
(90,620,l),
(90,0,l)
);
}
);
width = 750;
},
{
anchors = (
{
name = bottom;
pos = (300,0);
},
{
name = bottomright;
pos = (510,0);
},
{
name = hookleft;
pos = (100,0);
},
{
name = top;
pos = (300,600);
}
);
layerId = m005;
shapes = (
{
closed = 1;
nodes = (
(210,0,l),
(210,386,ls),
(210,473,o),
(240,514,o),
(305,514,cs),
(370,514,o),
(400,473,o),
(400,386,cs),
(400,0,l),
(510,0,l),
(510,416,ls),
(510,540,o),
(449,616,o),
(350,616,cs),
(300,616,o),
(263,597,o),
(240,560,c),
(210,560,l),
(210,600,l),
(100,600,l),
(100,0,l)
);
}
);
width = 600;
},
{
anchors = (
{
name = bottom;
pos = (300,0);
},
{
name = bottomright;
pos = (546,0);
},
{
name = hookleft;
pos = (60,0);
},
{
name = top;
pos = (300,620);
}
);
layerId = m006;
shapes = (
{
closed = 1;
nodes = (
(240,0,l),
(240,362,ls),
(240,433,o),
(260,466,o),
(303,466,cs),
(346,466,o),
(366,433,o),
(366,362,cs),
(366,0,l),
(546,0,l),
(546,430,ls),
(546,564,o),
(493,640,o),
(399,640,cs),
(342,640,o),
(299,611,o),
(280,560,c),
(240,560,l),
(240,620,l),
(60,620,l),
(60,0,l)
);
}
);
width = 600;
},
{
anchors = (
{
name = bottom;
pos = (375,0);
},
{
name = bottomright;
pos = (615,0);
},
{
name = hookleft;
pos = (150,0);
},
{
name = top;
pos = (375,588);
}
);
layerId = m007;
shapes = (
{
closed = 1;
nodes = (
(190,0,l),
(190,356,ls),
(190,484,o),
(263,562,o),
(383,562,cs),
(502,562,o),
(575,484,o),
(575,356,cs),
(575,0,l),
(615,0,l),
(615,362,ls),
(615,510,o),
(528,600,o),
(387,600,cs),
(313,600,o),
(246,570,o),
(210,520,c),
(190,520,l),
(190,588,l),
(150,588,l),
(150,0,l)
);
}
);
width = 750;
},
{
anchors = (
{
name = bottom;
pos = (300,0);
},
{
name = bottomright;
pos = (474,0);
},
{
name = hookleft;
pos = (140,0);
},
{
name = top;
pos = (300,588);
}
);
layerId = m009;
shapes = (
{
closed = 1;
nodes = (
(180,0,l),
(180,396,ls),
(180,506,o),
(223,562,o),
(307,562,cs),
(391,562,o),
(434,506,o),
(434,396,cs),
(434,0,l),
(474,0,l),
(474,402,ls),
(474,529,o),
(416,600,o),
(313,600,cs),
(267,600,o),
(226,583,o),
(200,554,c),
(180,554,l),
(180,588,l),
(140,588,l),
(140,0,l)
);
}
);
width = 600;
}
);
unicode = 110;
},
{
glyphname = o;
kernLeft = rnd_left;
kernRight = rnd_right;
lastChange = "2022-04-19 20:00:20 +0000";
layers = (
{
anchors = (
{
name = bottom;
pos = (375,0);
},
{
name = center;
pos = (375,300);
},
{
name = ogonek;
pos = (675,10);
},
{
name = top;
pos = (375,600);
},
{
name = topright;
pos = (730,600);
}
);
layerId = m01;
shapes = (
{
closed = 1;
nodes = (
(552,-16,o),
(670,110,o),
(670,300,cs),
(670,490,o),
(552,616,o),
(375,616,cs),
(198,616,o),
(80,490,o),
(80,300,cs),
(80,110,o),
(198,-16,o),
(375,-16,cs)
);
},
{
closed = 1;
nodes = (
(260,88,o),
(190,169,o),
(190,300,cs),
(190,431,o),
(260,512,o),
(375,512,cs),
(490,512,o),
(560,431,o),
(560,300,cs),
(560,169,o),
(490,88,o),
(375,88,cs)
);
}
);
width = 750;
},
{
anchors = (
{
name = bottom;
pos = (375,0);
},
{
name = center;
pos = (375,310);
},
{
name = ogonek;
pos = (675,10);
},
{
name = top;
pos = (375,620);
},
{
name = topright;
pos = (730,620);
}
);
layerId = m002;
shapes = (
{
closed = 1;
nodes = (
(570,-20,o),
(700,112,o),
(700,310,cs),
(700,508,o),
(570,640,o),
(375,640,cs),
(180,640,o),
(50,508,o),
(50,310,cs),
(50,112,o),
(180,-20,o),
(375,-20,cs)
);
},
{
closed = 1;
nodes = (
(281,140,o),
(224,205,o),
(224,310,cs),
(224,415,o),
(281,480,o),
(375,480,cs),
(469,480,o),
(526,415,o),
(526,310,cs),
(526,205,o),
(469,140,o),
(375,140,cs)
);
}
);
width = 750;
},
{
anchors = (
{
name = bottom;
pos = (300,0);
},
{
name = center;
pos = (300,300);
},
{
name = ogonek;
pos = (540,10);
},
{
name = top;
pos = (300,600);
},
{
name = topright;
pos = (580,600);
}
);
layerId = m005;
shapes = (
{
closed = 1;
nodes = (
(445,-16,o),
(526,98,o),
(526,300,cs),
(526,502,o),
(445,616,o),
(300,616,cs),
(155,616,o),
(74,502,o),
(74,300,cs),
(74,98,o),
(155,-16,o),
(300,-16,cs)
);
},
{
closed = 1;
nodes = (
(222,86,o),
(182,159,o),
(182,300,cs),
(182,441,o),
(222,514,o),
(300,514,cs),
(378,514,o),
(418,441,o),
(418,300,cs),
(418,159,o),
(378,86,o),
(300,86,cs)
);
}
);
width = 600;
},
{
anchors = (
{
name = bottom;
pos = (300,0);
},
{
name = center;
pos = (300,310);
},
{
name = ogonek;
pos = (540,10);
},
{
name = top;
pos = (300,620);
},
{
name = topright;
pos = (580,620);
}
);
layerId = m006;
shapes = (
{
closed = 1;
nodes = (
(464,-20,o),
(556,99,o),
(556,310,cs),
(556,521,o),
(464,640,o),
(300,640,cs),
(136,640,o),
(44,521,o),
(44,310,cs),
(44,99,o),
(136,-20,o),
(300,-20,cs)
);
},
{
closed = 1;
nodes = (
(243,134,o),
(214,194,o),
(214,310,cs),
(214,426,o),
(243,486,o),
(300,486,cs),
(357,486,o),
(386,426,o),
(386,310,cs),
(386,194,o),
(357,134,o),
(300,134,cs)
);
}
);
width = 600;
},
{
anchors = (
{
name = bottom;
pos = (375,0);
},
{
name = center;
pos = (375,294);
},
{
name = ogonek;
pos = (675,10);
},
{
name = top;
pos = (375,588);
},
{
name = topright;
pos = (730,588);
}
);
layerId = m007;
shapes = (
{
closed = 1;
nodes = (
(539,-12,o),
(640,104,o),
(640,294,cs),
(640,484,o),
(539,600,o),
(375,600,cs),
(211,600,o),
(110,484,o),
(110,294,cs),
(110,104,o),
(211,-12,o),
(375,-12,cs)
);
},
{
closed = 1;
nodes = (
(236,24,o),
(151,127,o),
(151,294,cs),
(151,461,o),
(236,564,o),
(375,564,cs),
(514,564,o),
(599,461,o),
(599,294,cs),
(599,127,o),
(514,24,o),
(375,24,cs)
);
}
);
width = 750;
},
{
anchors = (
{
name = bottom;
pos = (300,0);
},
{
name = center;
pos = (300,294);
},
{
name = ogonek;
pos = (540,10);
},
{
name = top;
pos = (300,588);
},
{
name = topright;
pos = (580,588);
}
);
layerId = m009;
shapes = (
{
closed = 1;
nodes = (
(429,-12,o),
(496,92,o),
(496,294,cs),
(496,496,o),
(429,600,o),
(300,600,cs),
(171,600,o),
(104,496,o),
(104,294,cs),
(104,92,o),
(171,-12,o),
(300,-12,cs)
);
},
{
closed = 1;
nodes = (
(197,24,o),
(144,116,o),
(144,294,cs),
(144,472,o),
(197,564,o),
(300,564,cs),
(403,564,o),
(456,472,o),
(456,294,cs),
(456,116,o),
(403,24,o),
(300,24,cs)
);
}
);
width = 600;
}
);
unicode = 111;
},
{
glyphname = oe;
lastChange = "2022-04-23 07:45:39 +0000";
layers = (
{
background = {
shapes = (
{
ref = M;
}
);
};
layerId = m009;
shapes = (
{
closed = 1;
nodes = (
(299,-12,o),
(336,72,o),
(336,294,cs),
(336,516,o),
(299,600,o),
(202,600,cs),
(105,600,o),
(68,516,o),
(68,294,cs),
(68,72,o),
(105,-12,o),
(202,-12,cs)
);
},
{
closed = 1;
nodes = (
(134,24,o),
(108,98,o),
(108,294,cs),
(108,490,o),
(134,564,o),
(204,564,cs),
(274,564,o),
(300,490,o),
(300,294,cs),
(300,98,o),
(274,24,o),
(204,24,cs)
);
},
{
closed = 1;
nodes = (
(505,-12,o),
(545,50,o),
(562,184,c),
(525,184,l),
(510,74,o),
(481,23,o),
(434,23,cs),
(366,23,o),
(340,99,o),
(340,300,cs),
(340,492,o),
(365,565,o),
(432,565,cs),
(490,565,o),
(512,497,o),
(512,316,c),
(526,318,l),
(320,318,l),
(320,284,l),
(548,284,l),
(549,291,o),
(550,311,o),
(550,318,cs),
(550,524,o),
(516,600,o),
(432,600,cs),
(339,600,o),
(304,518,o),
(304,300,cs),
(304,74,o),
(340,-12,o),
(434,-12,cs)
);
}
);
width = 600;
},
{
background = {
shapes = (
{
ref = M;
}
);
};
layerId = m005;
shapes = (
{
closed = 1;
nodes = (
(303,-16,o),
(352,84,o),
(352,300,cs),
(352,516,o),
(303,616,o),
(196,616,cs),
(89,616,o),
(40,516,o),
(40,300,cs),
(40,84,o),
(89,-16,o),
(196,-16,cs)
);
},
{
closed = 1;
nodes = (
(163,86,o),
(148,145,o),
(148,300,cs),
(148,455,o),
(163,514,o),
(204,514,cs),
(245,514,o),
(260,455,o),
(260,300,cs),
(260,145,o),
(245,86,o),
(204,86,cs)
);
},
{
closed = 1;
nodes = (
(509,-16,o),
(558,47,o),
(570,184,c),
(472,184,l),
(460,111,o),
(445,84,o),
(418,84,cs),
(377,84,o),
(362,145,o),
(362,305,cs),
(362,460,o),
(375,516,o),
(416,516,cs),
(450,516,o),
(460,463,o),
(460,317,c),
(494,360,l),
(330,360,l),
(330,264,l),
(556,264,l),
(557,278,o),
(558,300,o),
(558,317,cs),
(558,534,o),
(519,616,o),
(416,616,cs),
(317,616,o),
(272,518,o),
(272,305,cs),
(272,85,o),
(317,-16,o),
(416,-16,cs)
);
}
);
width = 600;
},
{
background = {
shapes = (
{
ref = M;
}
);
};
layerId = m006;
shapes = (
{
closed = 1;
nodes = (
(308,-20,o),
(362,84,o),
(362,310,cs),
(362,536,o),
(308,640,o),
(191,640,cs),
(74,640,o),
(20,536,o),
(20,310,cs),
(20,84,o),
(74,-20,o),
(191,-20,cs)
);
},
{
closed = 1;
nodes = (
(178,134,o),
(170,175,o),
(170,310,cs),
(170,445,o),
(178,486,o),
(206,486,cs),
(234,486,o),
(242,445,o),
(242,310,cs),
(242,175,o),
(234,134,o),
(206,134,cs)
);
},
{
closed = 1;
nodes = (
(521,-20,o),
(574,48,o),
(588,194,c),
(453,194,l),
(449,147,o),
(439,126,o),
(420,126,cs),
(391,126,o),
(382,170,o),
(382,313,cs),
(382,450,o),
(389,492,o),
(414,492,cs),
(439,492,o),
(446,450,o),
(446,313,c),
(512,374,l),
(316,374,l),
(316,254,l),
(576,254,l),
(579,269,o),
(580,293,o),
(580,313,cs),
(580,537,o),
(529,640,o),
(420,640,cs),
(312,640,o),
(262,537,o),
(262,313,cs),
(262,85,o),
(313,-20,o),
(422,-20,cs)
);
}
);
width = 600;
},
{
background = {
shapes = (
{
ref = M;
}
);
};
layerId = m007;
shapes = (
{
closed = 1;
nodes = (
(359,-12,o),
(414,85,o),
(414,294,cs),
(414,503,o),
(359,600,o),
(239,600,cs),
(119,600,o),
(64,503,o),
(64,294,cs),
(64,85,o),
(119,-12,o),
(239,-12,cs)
);
},
{
closed = 1;
nodes = (
(148,24,o),
(105,109,o),
(105,294,cs),
(105,479,o),
(148,564,o),
(241,564,cs),
(334,564,o),
(377,479,o),
(377,294,cs),
(377,109,o),
(334,24,o),
(241,24,cs)
);
},
{
closed = 1;
nodes = (
(638,-12,o),
(689,50,o),
(710,184,c),
(672,184,l),
(652,74,o),
(613,23,o),
(549,23,cs),
(460,23,o),
(419,110,o),
(419,300,cs),
(419,481,o),
(459,565,o),
(545,565,cs),
(624,565,o),
(660,487,o),
(660,318,c),
(674,319,l),
(405,319,l),
(405,284,l),
(696,284,l),
(697,291,o),
(698,308,o),
(698,318,cs),
(698,511,o),
(650,600,o),
(547,600,cs),
(434,600,o),
(382,505,o),
(382,300,cs),
(382,87,o),
(435,-12,o),
(549,-12,cs)
);
}
);
width = 750;
},
{
background = {
shapes = (
{
ref = M;
}
);
};
layerId = m01;
shapes = (
{
closed = 1;
nodes = (
(378,-16,o),
(440,84,o),
(440,300,cs),
(440,516,o),
(378,616,o),
(243,616,cs),
(108,616,o),
(46,516,o),
(46,300,cs),
(46,84,o),
(108,-16,o),
(243,-16,cs)
);
},
{
closed = 1;
nodes = (
(185,88,o),
(156,155,o),
(156,300,cs),
(156,445,o),
(185,512,o),
(249,512,cs),
(313,512,o),
(342,445,o),
(342,300,cs),
(342,155,o),
(313,88,o),
(249,88,cs)
);
},
{
closed = 1;
nodes = (
(647,-16,o),
(711,55,o),
(726,184,c),
(624,184,l),
(610,120,o),
(581,84,o),
(542,84,cs),
(479,84,o),
(450,154,o),
(450,305,cs),
(450,449,o),
(478,516,o),
(538,516,cs),
(590,516,o),
(610,458,o),
(610,305,c),
(647,362,l),
(422,362,l),
(422,264,l),
(710,264,l),
(711,278,o),
(712,292,o),
(712,307,cs),
(712,528,o),
(662,616,o),
(542,616,cs),
(413,616,o),
(354,518,o),
(354,305,cs),
(354,85,o),
(415,-16,o),
(546,-16,cs)
);
}
);
width = 750;
},
{
background = {
shapes = (
{
ref = M;
}
);
};
layerId = m002;
shapes = (
{
closed = 1;
nodes = (
(397,-20,o),
(466,84,o),
(466,310,cs),
(466,536,o),
(397,640,o),
(249,640,cs),
(101,640,o),
(32,536,o),
(32,310,cs),
(32,84,o),
(101,-20,o),
(249,-20,cs)
);
},
{
closed = 1;
nodes = (
(221,136,o),
(206,184,o),
(206,310,cs),
(206,436,o),
(221,484,o),
(259,484,cs),
(297,484,o),
(312,436,o),
(312,310,cs),
(312,184,o),
(297,136,o),
(259,136,cs)
);
},
{
closed = 1;
nodes = (
(648,-20,o),
(712,48,o),
(736,194,c),
(568,194,l),
(558,150,o),
(545,130,o),
(526,130,cs),
(493,130,o),
(480,180,o),
(480,313,cs),
(480,440,o),
(493,488,o),
(526,488,cs),
(558,488,o),
(570,440,o),
(570,313,c),
(624,376,l),
(463,376,l),
(463,252,l),
(723,252,l),
(726,266,o),
(728,294,o),
(728,313,cs),
(728,537,o),
(667,640,o),
(536,640,cs),
(392,640,o),
(326,537,o),
(326,313,cs),
(326,85,o),
(392,-20,o),
(534,-20,cs)
);
}
);
width = 750;
}
);
unicode = 339;
},
{
glyphname = p;
kernLeft = sqr_left;
kernRight = rnd_right;
lastChange = "2022-11-19 10:54:57 +0000";
layers = (
{
layerId = m01;
shapes = (
{
closed = 1;
nodes = (
(220,-200,l),
(220,60,l),
(250,60,l),
(278,14,o),
(344,-16,o),
(416,-16,cs),
(578,-16,o),
(686,110,o),
(686,300,cs),
(686,490,o),
(578,616,o),
(416,616,cs),
(344,616,o),
(278,586,o),
(250,540,c),
(220,540,l),
(220,600,l),
(110,600,l),
(110,-200,l)
);
},
{
closed = 1;
nodes = (
(284,88,o),
(216,169,o),
(216,300,cs),
(216,431,o),
(284,512,o),
(396,512,cs),
(508,512,o),
(576,431,o),
(576,300,cs),
(576,169,o),
(508,88,o),
(396,88,cs)
);
}
);
width = 750;
},
{
layerId = m002;
shapes = (
{
closed = 1;
nodes = (
(260,-200,l),
(260,60,l),
(300,60,l),
(324,14,o),
(382,-16,o),
(446,-16,cs),
(610,-16,o),
(720,114,o),
(720,310,cs),
(720,506,o),
(610,636,o),
(446,636,cs),
(382,636,o),
(324,606,o),
(300,560,c),
(260,560,l),
(260,620,l),
(80,620,l),
(80,-200,l)
);
},
{
closed = 1;
nodes = (
(303,144,o),
(246,207,o),
(246,310,cs),
(246,413,o),
(303,476,o),
(396,476,cs),
(489,476,o),
(546,413,o),
(546,310,cs),
(546,207,o),
(489,144,o),
(396,144,cs)
);
}
);
width = 750;
},
{
layerId = m005;
shapes = (
{
closed = 1;
nodes = (
(202,-200,l),
(202,46,l),
(232,46,l),
(254,6,o),
(294,-16,o),
(344,-16,cs),
(468,-16,o),
(538,98,o),
(538,300,cs),
(538,502,o),
(468,616,o),
(344,616,cs),
(294,616,o),
(254,594,o),
(232,554,c),
(202,554,l),
(202,600,l),
(92,600,l),
(92,-200,l)
);
},
{
closed = 1;
nodes = (
(237,86,o),
(198,159,o),
(198,300,cs),
(198,441,o),
(237,514,o),
(314,514,cs),
(391,514,o),
(430,441,o),
(430,300,cs),
(430,159,o),
(391,86,o),
(314,86,cs)
);
}
);
width = 600;
},
{
layerId = m006;
shapes = (
{
closed = 1;
nodes = (
(238,-200,l),
(238,56,l),
(278,56,l),
(298,10,o),
(336,-16,o),
(384,-16,cs),
(503,-16,o),
(570,101,o),
(570,310,cs),
(570,519,o),
(503,636,o),
(384,636,cs),
(336,636,o),
(298,610,o),
(278,564,c),
(238,564,l),
(238,620,l),
(58,620,l),
(58,-200,l)
);
},
{
closed = 1;
nodes = (
(257,138,o),
(228,196,o),
(228,310,cs),
(228,424,o),
(257,482,o),
(314,482,cs),
(371,482,o),
(400,424,o),
(400,310,cs),
(400,196,o),
(371,138,o),
(314,138,cs)
);
}
);
width = 600;
},
{
layerId = m007;
shapes = (
{
closed = 1;
nodes = (
(186,-200,l),
(186,90,l),
(206,90,l),
(242,27,o),
(317,-12,o),
(404,-12,cs),
(564,-12,o),
(662,104,o),
(662,294,cs),
(662,484,o),
(564,600,o),
(404,600,cs),
(317,600,o),
(242,561,o),
(206,498,c),
(186,498,l),
(186,588,l),
(146,588,l),
(146,-200,l)
);
},
{
closed = 1;
nodes = (
(266,24,o),
(183,127,o),
(183,294,cs),
(183,461,o),
(266,564,o),
(402,564,cs),
(538,564,o),
(621,461,o),
(621,294,cs),
(621,127,o),
(538,24,o),
(402,24,cs)
);
}
);
width = 750;
},
{
layerId = m009;
shapes = (
{
closed = 1;
nodes = (
(170,-200,l),
(170,58,l),
(190,58,l),
(218,12,o),
(262,-12,o),
(320,-12,cs),
(445,-12,o),
(510,92,o),
(510,294,cs),
(510,496,o),
(445,600,o),
(320,600,cs),
(262,600,o),
(218,576,o),
(190,530,c),
(170,530,l),
(170,588,l),
(130,588,l),
(130,-200,l)
);
},
{
closed = 1;
nodes = (
(218,24,o),
(166,116,o),
(166,294,cs),
(166,472,o),
(218,564,o),
(318,564,cs),
(418,564,o),
(470,472,o),
(470,294,cs),
(470,116,o),
(418,24,o),
(318,24,cs)
);
}
);
width = 600;
}
);
unicode = 112;
},
{
glyphname = thorn;
lastChange = "2022-07-16 16:33:20 +0000";
layers = (
{
layerId = m009;
shapes = (
{
closed = 1;
nodes = (
(445,-12,o),
(510,92,o),
(510,294,cs),
(510,496,o),
(445,600,o),
(320,600,cs),
(262,600,o),
(218,576,o),
(190,530,c),
(170,530,l),
(170,848,l),
(130,848,l),
(130,-200,l),
(170,-200,l),
(170,58,l),
(190,58,l),
(218,12,o),
(262,-12,o),
(320,-12,cs)
);
},
{
closed = 1;
nodes = (
(166,472,o),
(218,564,o),
(318,564,cs),
(418,564,o),
(470,472,o),
(470,294,cs),
(470,116,o),
(418,24,o),
(318,24,cs),
(218,24,o),
(166,116,o),
(166,294,cs)
);
}
);
width = 600;
},
{
layerId = m005;
shapes = (
{
closed = 1;
nodes = (
(468,-16,o),
(538,98,o),
(538,300,cs),
(538,502,o),
(468,616,o),
(344,616,cs),
(294,616,o),
(254,594,o),
(232,554,c),
(202,554,l),
(202,848,l),
(92,848,l),
(92,-200,l),
(202,-200,l),
(202,46,l),
(232,46,l),
(254,6,o),
(294,-16,o),
(344,-16,cs)
);
},
{
closed = 1;
nodes = (
(198,441,o),
(237,514,o),
(314,514,cs),
(391,514,o),
(430,441,o),
(430,300,cs),
(430,159,o),
(391,86,o),
(314,86,cs),
(237,86,o),
(198,159,o),
(198,300,cs)
);
}
);
width = 600;
},
{
layerId = m006;
shapes = (
{
closed = 1;
nodes = (
(503,-16,o),
(570,101,o),
(570,310,cs),
(570,519,o),
(503,636,o),
(384,636,cs),
(336,636,o),
(298,610,o),
(278,564,c),
(238,564,l),
(238,848,l),
(58,848,l),
(58,-200,l),
(238,-200,l),
(238,56,l),
(278,56,l),
(298,10,o),
(336,-16,o),
(384,-16,cs)
);
},
{
closed = 1;
nodes = (
(228,424,o),
(257,482,o),
(314,482,cs),
(371,482,o),
(400,424,o),
(400,310,cs),
(400,196,o),
(371,138,o),
(314,138,cs),
(257,138,o),
(228,196,o),
(228,310,cs)
);
}
);
width = 600;
},
{
layerId = m007;
shapes = (
{
closed = 1;
nodes = (
(564,-12,o),
(662,104,o),
(662,294,cs),
(662,484,o),
(564,600,o),
(404,600,cs),
(317,600,o),
(242,561,o),
(206,498,c),
(186,498,l),
(186,848,l),
(146,848,l),
(146,-200,l),
(186,-200,l),
(186,90,l),
(206,90,l),
(242,27,o),
(317,-12,o),
(404,-12,cs)
);
},
{
closed = 1;
nodes = (
(183,461,o),
(266,564,o),
(402,564,cs),
(538,564,o),
(621,461,o),
(621,294,cs),
(621,127,o),
(538,24,o),
(402,24,cs),
(266,24,o),
(183,127,o),
(183,294,cs)
);
}
);
width = 750;
},
{
layerId = m01;
shapes = (
{
closed = 1;
nodes = (
(578,-16,o),
(686,110,o),
(686,300,cs),
(686,490,o),
(578,616,o),
(416,616,cs),
(344,616,o),
(278,586,o),
(250,540,c),
(220,540,l),
(220,848,l),
(110,848,l),
(110,-200,l),
(220,-200,l),
(220,60,l),
(250,60,l),
(278,14,o),
(344,-16,o),
(416,-16,cs)
);
},
{
closed = 1;
nodes = (
(216,431,o),
(284,512,o),
(396,512,cs),
(508,512,o),
(576,431,o),
(576,300,cs),
(576,169,o),
(508,88,o),
(396,88,cs),
(284,88,o),
(216,169,o),
(216,300,cs)
);
}
);
width = 750;
},
{
layerId = m002;
shapes = (
{
closed = 1;
nodes = (
(610,-16,o),
(720,114,o),
(720,310,cs),
(720,506,o),
(610,636,o),
(446,636,cs),
(382,636,o),
(324,606,o),
(300,560,c),
(260,560,l),
(260,848,l),
(80,848,l),
(80,-200,l),
(260,-200,l),
(260,60,l),
(300,60,l),
(324,14,o),
(382,-16,o),
(446,-16,cs)
);
},
{
closed = 1;
nodes = (
(246,413,o),
(303,476,o),
(396,476,cs),
(489,476,o),
(546,413,o),
(546,310,cs),
(546,207,o),
(489,144,o),
(396,144,cs),
(303,144,o),
(246,207,o),
(246,310,cs)
);
}
);
width = 750;
}
);
unicode = 254;
},
{
glyphname = q;
kernLeft = rnd_left;
lastChange = "2022-11-19 10:55:40 +0000";
layers = (
{
layerId = m01;
shapes = (
{
closed = 1;
nodes = (
(640,-200,l),
(640,600,l),
(530,600,l),
(530,540,l),
(500,540,l),
(472,586,o),
(406,616,o),
(334,616,cs),
(172,616,o),
(64,490,o),
(64,300,cs),
(64,110,o),
(172,-16,o),
(334,-16,cs),
(406,-16,o),
(472,14,o),
(500,60,c),
(530,60,l),
(530,-200,l)
);
},
{
closed = 1;
nodes = (
(242,88,o),
(174,169,o),
(174,300,cs),
(174,431,o),
(242,512,o),
(354,512,cs),
(466,512,o),
(534,431,o),
(534,300,cs),
(534,169,o),
(466,88,o),
(354,88,cs)
);
}
);
width = 750;
},
{
layerId = m002;
shapes = (
{
closed = 1;
nodes = (
(670,-200,l),
(670,620,l),
(490,620,l),
(490,560,l),
(450,560,l),
(426,606,o),
(368,636,o),
(304,636,cs),
(140,636,o),
(30,506,o),
(30,310,cs),
(30,114,o),
(140,-16,o),
(304,-16,cs),
(368,-16,o),
(426,14,o),
(450,60,c),
(490,60,l),
(490,-200,l)
);
},
{
closed = 1;
nodes = (
(261,144,o),
(204,207,o),
(204,310,cs),
(204,413,o),
(261,476,o),
(354,476,cs),
(447,476,o),
(504,413,o),
(504,310,cs),
(504,207,o),
(447,144,o),
(354,144,cs)
);
}
);
width = 750;
},
{
layerId = m005;
shapes = (
{
closed = 1;
nodes = (
(508,-200,l),
(508,600,l),
(398,600,l),
(398,554,l),
(368,554,l),
(346,594,o),
(306,616,o),
(256,616,cs),
(132,616,o),
(62,502,o),
(62,300,cs),
(62,98,o),
(132,-16,o),
(256,-16,cs),
(306,-16,o),
(346,6,o),
(368,46,c),
(398,46,l),
(398,-200,l)
);
},
{
closed = 1;
nodes = (
(209,86,o),
(170,159,o),
(170,300,cs),
(170,441,o),
(209,514,o),
(286,514,cs),
(363,514,o),
(402,441,o),
(402,300,cs),
(402,159,o),
(363,86,o),
(286,86,cs)
);
}
);
width = 600;
},
{
layerId = m006;
shapes = (
{
closed = 1;
nodes = (
(542,-200,l),
(542,620,l),
(362,620,l),
(362,564,l),
(322,564,l),
(302,610,o),
(264,636,o),
(216,636,cs),
(97,636,o),
(30,519,o),
(30,310,cs),
(30,101,o),
(97,-16,o),
(216,-16,cs),
(264,-16,o),
(302,10,o),
(322,56,c),
(362,56,l),
(362,-200,l)
);
},
{
closed = 1;
nodes = (
(229,138,o),
(200,196,o),
(200,310,cs),
(200,424,o),
(229,482,o),
(286,482,cs),
(343,482,o),
(372,424,o),
(372,310,cs),
(372,196,o),
(343,138,o),
(286,138,cs)
);
}
);
width = 600;
},
{
layerId = m007;
shapes = (
{
closed = 1;
nodes = (
(604,-200,l),
(604,588,l),
(564,588,l),
(564,498,l),
(544,498,l),
(508,561,o),
(433,600,o),
(346,600,cs),
(186,600,o),
(88,484,o),
(88,294,cs),
(88,104,o),
(186,-12,o),
(346,-12,cs),
(433,-12,o),
(508,27,o),
(544,90,c),
(564,90,l),
(564,-200,l)
);
},
{
closed = 1;
nodes = (
(212,24,o),
(129,127,o),
(129,294,cs),
(129,461,o),
(212,564,o),
(348,564,cs),
(484,564,o),
(567,461,o),
(567,294,cs),
(567,127,o),
(484,24,o),
(348,24,cs)
);
}
);
width = 750;
},
{
layerId = m009;
shapes = (
{
closed = 1;
nodes = (
(470,-200,l),
(470,588,l),
(430,588,l),
(430,530,l),
(410,530,l),
(382,576,o),
(338,600,o),
(280,600,cs),
(155,600,o),
(90,496,o),
(90,294,cs),
(90,92,o),
(155,-12,o),
(280,-12,cs),
(338,-12,o),
(382,12,o),
(410,58,c),
(430,58,l),
(430,-200,l)
);
},
{
closed = 1;
nodes = (
(182,24,o),
(130,116,o),
(130,294,cs),
(130,472,o),
(182,564,o),
(282,564,cs),
(382,564,o),
(434,472,o),
(434,294,cs),
(434,116,o),
(382,24,o),
(282,24,cs)
);
}
);
width = 600;
}
);
unicode = 113;
},
{
glyphname = r;
kernLeft = sqr_left;
kernRight = n_right;
lastChange = "2022-09-17 15:35:21 +0000";
layers = (
{
anchors = (
{
name = bottom;
pos = (301,0);
},
{
name = top;
pos = (395,600);
}
);
layerId = m01;
shapes = (
{
closed = 1;
nodes = (
(100,496,l),
(246,496,l),
(246,104,l),
(120,104,l),
(120,0,l),
(564,0,l),
(564,104,l),
(356,104,l),
(356,320,ls),
(356,447,o),
(395,512,o),
(472,512,cs),
(534,512,o),
(566,475,o),
(566,404,cs),
(566,340,l),
(680,340,l),
(680,420,ls),
(680,542,o),
(615,616,o),
(508,616,cs),
(451,616,o),
(404,594,o),
(378,554,c),
(348,554,l),
(348,600,l),
(100,600,l)
);
}
);
width = 750;
},
{
anchors = (
{
name = bottom;
pos = (286,0);
},
{
name = top;
pos = (385,620);
}
);
layerId = m002;
shapes = (
{
closed = 1;
nodes = (
(80,460,l),
(200,460,l),
(200,160,l),
(90,160,l),
(90,0,l),
(564,0,l),
(564,160,l),
(372,160,l),
(372,306,ls),
(372,416,o),
(398,468,o),
(454,468,cs),
(500,468,o),
(522,438,o),
(522,374,cs),
(522,300,l),
(704,300,l),
(704,388,ls),
(704,554,o),
(650,640,o),
(544,640,cs),
(481,640,o),
(427,610,o),
(402,560,c),
(362,560,l),
(362,620,l),
(80,620,l)
);
}
);
width = 750;
},
{
anchors = (
{
name = bottom;
pos = (241,0);
},
{
name = top;
pos = (320,600);
}
);
layerId = m005;
shapes = (
{
closed = 1;
nodes = (
(84,498,l),
(186,498,l),
(186,102,l),
(100,102,l),
(100,0,l),
(438,0,l),
(438,102,l),
(296,102,l),
(296,340,ls),
(296,457,o),
(321,512,o),
(374,512,cs),
(412,512,o),
(430,484,o),
(430,424,cs),
(430,340,l),
(544,340,l),
(544,440,ls),
(544,549,o),
(497,616,o),
(421,616,cs),
(377,616,o),
(340,595,o),
(322,560,c),
(292,560,l),
(292,600,l),
(84,600,l)
);
}
);
width = 600;
},
{
anchors = (
{
name = bottom;
pos = (232,0);
},
{
name = top;
pos = (310,620);
}
);
layerId = m006;
shapes = (
{
closed = 1;
nodes = (
(58,466,l),
(146,466,l),
(146,154,l),
(66,154,l),
(66,0,l),
(442,0,l),
(442,154,l),
(318,154,l),
(318,386,ls),
(318,436,o),
(330,458,o),
(359,458,cs),
(382,458,o),
(392,444,o),
(392,412,cs),
(392,320,l),
(574,320,l),
(574,452,ls),
(574,577,o),
(538,636,o),
(460,636,cs),
(411,636,o),
(374,609,o),
(358,560,c),
(318,560,l),
(318,620,l),
(58,620,l)
);
}
);
width = 600;
},
{
anchors = (
{
name = bottom;
pos = (300,0);
},
{
name = top;
pos = (405,588);
}
);
layerId = m007;
shapes = (
{
closed = 1;
nodes = (
(110,552,l),
(280,552,l),
(280,36,l),
(140,36,l),
(140,0,l),
(563,0,l),
(563,36,l),
(320,36,l),
(320,326,ls),
(320,482,o),
(375,562,o),
(482,562,cs),
(572,562,o),
(618,512,o),
(618,414,cs),
(618,340,l),
(660,340,l),
(660,426,ls),
(660,534,o),
(595,600,o),
(490,600,cs),
(418,600,o),
(370,576,o),
(340,526,c),
(320,526,l),
(320,588,l),
(110,588,l)
);
}
);
width = 750;
},
{
anchors = (
{
name = bottom;
pos = (232,0);
},
{
name = top;
pos = (330,588);
}
);
layerId = m009;
shapes = (
{
closed = 1;
nodes = (
(98,552,l),
(212,552,l),
(212,36,l),
(122,36,l),
(122,0,l),
(419,0,l),
(419,36,l),
(252,36,l),
(252,366,ls),
(252,497,o),
(294,564,o),
(375,564,cs),
(441,564,o),
(472,522,o),
(472,434,cs),
(472,340,l),
(514,340,l),
(514,446,ls),
(514,545,o),
(466,600,o),
(381,600,cs),
(333,600,o),
(296,584,o),
(272,552,c),
(252,552,l),
(252,588,l),
(98,588,l)
);
}
);
width = 600;
}
);
unicode = 114;
},
{
glyphname = s;
lastChange = "2022-04-08 14:52:18 +0000";
layers = (
{
anchors = (
{
name = bottom;
pos = (383,0);
},
{
name = top;
pos = (383,600);
}
);
background = {
shapes = (
{
pos = (6,0);
ref = o;
}
);
};
layerId = m01;
shapes = (
{
closed = 1;
nodes = (
(116,184,l),
(122,58,o),
(220,-16,o),
(382,-16,cs),
(541,-16,o),
(634,54,o),
(634,174,cs),
(634,275,o),
(572,328,o),
(430,348,cs),
(344,360,ls),
(268,371,o),
(230,393,o),
(230,428,cs),
(230,484,o),
(281,512,o),
(380,512,cs),
(475,512,o),
(534,473,o),
(554,404,c),
(654,404,l),
(648,537,o),
(548,616,o),
(382,616,cs),
(216,616,o),
(120,546,o),
(120,426,cs),
(120,325,o),
(182,272,o),
(324,252,cs),
(410,240,ls),
(486,229,o),
(524,207,o),
(524,172,cs),
(524,116,o),
(477,88,o),
(384,88,cs),
(294,88,o),
(237,123,o),
(217,184,c)
);
}
);
width = 750;
},
{
anchors = (
{
name = bottom;
pos = (384,0);
},
{
name = top;
pos = (384,620);
}
);
background = {
shapes = (
{
pos = (4,0);
ref = o;
}
);
};
layerId = m002;
shapes = (
{
closed = 1;
nodes = (
(94,194,l),
(107,52,o),
(207,-20,o),
(390,-20,cs),
(569,-20,o),
(672,57,o),
(672,191,cs),
(672,309,o),
(596,374,o),
(446,385,cs),
(340,393,ls),
(288,397,o),
(266,411,o),
(266,438,cs),
(266,471,o),
(305,488,o),
(382,488,cs),
(458,488,o),
(503,460,o),
(516,414,c),
(688,414,l),
(680,564,o),
(577,640,o),
(382,640,cs),
(201,640,o),
(94,559,o),
(94,429,cs),
(94,312,o),
(170,247,o),
(320,236,cs),
(426,228,ls),
(478,224,o),
(500,210,o),
(500,180,cs),
(500,148,o),
(463,132,o),
(390,132,cs),
(328,132,o),
(286,156,o),
(268,194,c)
);
}
);
width = 750;
},
{
anchors = (
{
name = bottom;
pos = (308,0);
},
{
name = top;
pos = (308,600);
}
);
background = {
shapes = (
{
pos = (8,0);
ref = o;
}
);
};
layerId = m005;
shapes = (
{
closed = 1;
nodes = (
(96,184,l),
(104,57,o),
(180,-16,o),
(303,-16,cs),
(422,-16,o),
(502,57,o),
(502,166,cs),
(502,269,o),
(446,332,o),
(335,351,cs),
(288,359,ls),
(236,368,o),
(206,395,o),
(206,433,cs),
(206,481,o),
(244,514,o),
(300,514,cs),
(362,514,o),
(400,477,o),
(416,404,c),
(516,404,l),
(510,537,o),
(429,616,o),
(300,616,cs),
(180,616,o),
(100,544,o),
(100,434,cs),
(100,331,o),
(157,268,o),
(268,249,cs),
(315,241,ls),
(366,232,o),
(396,205,o),
(396,167,cs),
(396,119,o),
(358,86,o),
(303,86,cs),
(250,86,o),
(215,119,o),
(198,184,c)
);
}
);
width = 600;
},
{
anchors = (
{
name = bottom;
pos = (308,0);
},
{
name = top;
pos = (308,620);
}
);
background = {
shapes = (
{
ref = o;
}
);
};
layerId = m006;
shapes = (
{
closed = 1;
nodes = (
(66,194,l),
(76,53,o),
(159,-20,o),
(310,-20,cs),
(451,-20,o),
(538,60,o),
(538,191,cs),
(538,300,o),
(484,356,o),
(360,378,cs),
(286,391,ls),
(252,397,o),
(238,412,o),
(238,440,cs),
(238,470,o),
(263,490,o),
(300,490,cs),
(347,490,o),
(372,467,o),
(388,414,c),
(548,414,l),
(540,563,o),
(455,640,o),
(300,640,cs),
(156,640,o),
(68,560,o),
(68,429,cs),
(68,316,o),
(122,258,o),
(246,236,cs),
(320,223,ls),
(354,217,o),
(368,203,o),
(368,176,cs),
(368,149,o),
(344,130,o),
(310,130,cs),
(268,130,o),
(245,149,o),
(228,194,c)
);
}
);
width = 600;
},
{
anchors = (
{
name = bottom;
pos = (384,0);
},
{
name = top;
pos = (384,588);
}
);
background = {
shapes = (
{
ref = o;
}
);
};
layerId = m007;
shapes = (
{
closed = 1;
nodes = (
(142,174,l),
(151,55,o),
(235,-12,o),
(376,-12,cs),
(514,-12,o),
(598,52,o),
(598,156,cs),
(598,245,o),
(545,291,o),
(420,308,cs),
(334,320,ls),
(231,334,o),
(187,367,o),
(187,430,cs),
(187,513,o),
(258,564,o),
(374,564,cs),
(491,564,o),
(562,503,o),
(571,394,c),
(610,394,l),
(602,524,o),
(515,600,o),
(374,600,cs),
(233,600,o),
(146,535,o),
(146,430,cs),
(146,342,o),
(199,297,o),
(324,280,cs),
(410,268,ls),
(513,254,o),
(557,220,o),
(557,156,cs),
(557,74,o),
(488,24,o),
(376,24,cs),
(260,24,o),
(190,78,o),
(181,174,c)
);
}
);
width = 750;
},
{
anchors = (
{
name = bottom;
pos = (310,0);
},
{
name = top;
pos = (310,588);
}
);
background = {
shapes = (
{
pos = (12,0);
ref = o;
}
);
};
layerId = m009;
shapes = (
{
closed = 1;
nodes = (
(128,174,l),
(140,48,o),
(197,-12,o),
(305,-12,cs),
(412,-12,o),
(472,48,o),
(472,156,cs),
(472,237,o),
(428,288,o),
(344,306,cs),
(270,322,ls),
(205,336,o),
(172,373,o),
(172,432,cs),
(172,517,o),
(218,564,o),
(301,564,cs),
(387,564,o),
(433,510,o),
(442,394,c),
(480,394,l),
(471,532,o),
(411,600,o),
(301,600,cs),
(193,600,o),
(132,540,o),
(132,432,cs),
(132,351,o),
(176,300,o),
(260,282,cs),
(334,266,ls),
(399,252,o),
(432,215,o),
(432,156,cs),
(432,72,o),
(386,24,o),
(305,24,cs),
(222,24,o),
(177,72,o),
(167,174,c)
);
}
);
width = 600;
}
);
unicode = 115;
},
{
glyphname = germandbls;
lastChange = "2022-04-24 18:06:50 +0000";
layers = (
{
background = {
shapes = (
{
ref = b;
}
);
};
layerId = m009;
shapes = (
{
closed = 1;
nodes = (
(244,36,l),
(305,36,ls),
(409,36,o),
(468,107,o),
(468,233,cs),
(468,359,o),
(409,430,o),
(305,430,cs),
(244,430,l),
(244,462,l),
(303,462,ls),
(378,462,o),
(420,527,o),
(420,643,cs),
(420,755,o),
(376,824,o),
(303,824,cs),
(215,824,o),
(170,744,o),
(170,588,cs),
(170,0,l),
(130,0,l),
(130,588,ls),
(130,768,o),
(189,860,o),
(303,860,cs),
(400,860,o),
(460,778,o),
(460,645,cs),
(460,549,o),
(432,482,o),
(382,458,c),
(382,448,l),
(464,426,o),
(510,347,o),
(510,229,cs),
(510,82,o),
(438,0,o),
(309,0,cs),
(244,0,l)
);
}
);
width = 600;
},
{
background = {
shapes = (
{
ref = b;
}
);
};
layerId = m005;
shapes = (
{
closed = 1;
nodes = (
(270,102,l),
(307,102,ls),
(381,102,o),
(426,158,o),
(426,250,cs),
(426,342,o),
(381,398,o),
(307,398,cs),
(270,398,l),
(270,494,l),
(295,494,ls),
(345,494,o),
(376,545,o),
(376,628,cs),
(376,708,o),
(344,762,o),
(295,762,cs),
(234,762,o),
(202,699,o),
(202,578,cs),
(202,0,l),
(92,0,l),
(92,588,ls),
(92,770,o),
(161,864,o),
(295,864,cs),
(408,864,o),
(484,774,o),
(484,638,cs),
(484,565,o),
(454,503,o),
(406,476,c),
(406,458,l),
(488,440,o),
(538,358,o),
(538,242,cs),
(538,92,o),
(458,0,o),
(327,0,cs),
(270,0,l)
);
}
);
width = 600;
},
{
background = {
shapes = (
{
ref = b;
}
);
};
layerId = m006;
shapes = (
{
closed = 1;
nodes = (
(294,154,l),
(311,154,ls),
(363,154,o),
(392,194,o),
(392,266,cs),
(392,334,o),
(363,372,o),
(311,372,cs),
(294,372,l),
(294,520,l),
(302,520,ls),
(337,520,o),
(356,554,o),
(356,614,cs),
(356,676,o),
(335,714,o),
(302,714,cs),
(260,714,o),
(238,668,o),
(238,578,cs),
(238,0,l),
(58,0,l),
(58,588,ls),
(58,767,o),
(146,868,o),
(302,868,cs),
(435,868,o),
(524,776,o),
(524,638,cs),
(524,562,o),
(494,500,o),
(446,476,c),
(446,458,l),
(523,438,o),
(570,360,o),
(570,252,cs),
(570,96,o),
(479,0,o),
(331,0,cs),
(294,0,l)
);
}
);
width = 600;
},
{
background = {
shapes = (
{
ref = b;
}
);
};
layerId = m007;
shapes = (
{
closed = 1;
nodes = (
(303,36,l),
(409,36,ls),
(540,36,o),
(620,111,o),
(620,233,cs),
(620,355,o),
(540,430,o),
(409,430,cs),
(303,430,l),
(303,462,l),
(379,462,ls),
(489,462,o),
(556,531,o),
(556,643,cs),
(556,752,o),
(485,824,o),
(379,824,cs),
(255,824,o),
(186,739,o),
(186,588,cs),
(186,0,l),
(146,0,l),
(146,588,ls),
(146,762,o),
(230,860,o),
(379,860,cs),
(509,860,o),
(596,774,o),
(596,645,cs),
(596,563,o),
(558,493,o),
(496,462,c),
(496,452,l),
(599,430,o),
(662,345,o),
(662,229,cs),
(662,87,o),
(567,0,o),
(413,0,cs),
(303,0,l)
);
}
);
width = 750;
},
{
background = {
shapes = (
{
ref = b;
}
);
};
layerId = m01;
shapes = (
{
closed = 1;
nodes = (
(342,104,l),
(410,104,ls),
(507,104,o),
(572,162,o),
(572,250,cs),
(572,341,o),
(510,396,o),
(410,396,cs),
(342,396,l),
(342,496,l),
(376,496,ls),
(458,496,o),
(510,546,o),
(510,628,cs),
(510,705,o),
(454,760,o),
(376,760,cs),
(279,760,o),
(220,691,o),
(220,578,cs),
(220,0,l),
(110,0,l),
(110,588,ls),
(110,759,o),
(211,864,o),
(376,864,cs),
(518,864,o),
(620,769,o),
(620,638,cs),
(620,565,o),
(587,504,o),
(532,476,c),
(532,458,l),
(627,438,o),
(686,356,o),
(686,242,cs),
(686,97,o),
(584,0,o),
(430,0,cs),
(342,0,l)
);
}
);
width = 750;
},
{
background = {
shapes = (
{
ref = b;
}
);
};
layerId = m002;
shapes = (
{
closed = 1;
nodes = (
(356,160,l),
(413,160,ls),
(492,160,o),
(534,198,o),
(534,266,cs),
(534,334,o),
(492,372,o),
(413,372,cs),
(356,372,l),
(356,520,l),
(376,520,ls),
(445,520,o),
(482,554,o),
(482,614,cs),
(482,672,o),
(443,708,o),
(376,708,cs),
(302,708,o),
(260,661,o),
(260,578,cs),
(260,0,l),
(80,0,l),
(80,588,ls),
(80,767,o),
(185,868,o),
(376,868,cs),
(536,868,o),
(650,771,o),
(650,638,cs),
(650,568,o),
(614,506,o),
(555,476,c),
(555,458,l),
(652,438,o),
(712,360,o),
(712,252,cs),
(712,96,o),
(607,0,o),
(433,0,cs),
(356,0,l)
);
}
);
width = 750;
}
);
unicode = 223;
},
